<svg width="25" height="24" viewBox="0 0 25 24" fill="none" xmlns="http://www.w3.org/2000/svg">
<path id="Vector" fill-rule="evenodd" clip-rule="evenodd" d="M8.96277 8.3628H13.4196V10.5828C14.0616 9.306 15.708 8.1588 18.1812 8.1588C22.9224 8.1588 24.048 10.7004 24.048 15.3636V24H19.248V16.4256C19.248 13.77 18.606 12.2724 16.9716 12.2724C14.7048 12.2724 13.7628 13.8864 13.7628 16.4244V24H8.96277V8.3628ZM0.731974 23.796H5.53197V8.1588H0.731974V23.796ZM6.21957 3.06C6.21975 3.46233 6.13996 3.86068 5.98484 4.2319C5.82972 4.60313 5.60236 4.93982 5.31597 5.2224C4.73565 5.79915 3.95015 6.12198 3.13197 6.12C2.31524 6.11945 1.53155 5.79744 0.950374 5.2236C0.665027 4.94006 0.438437 4.60299 0.283586 4.23172C0.128735 3.86045 0.0486686 3.46227 0.0479736 3.06C0.0479736 2.2476 0.371974 1.47 0.951574 0.8964C1.53224 0.32179 2.31626 -0.000359053 3.13317 3.00317e-07C3.95157 3.00317e-07 4.73637 0.3228 5.31597 0.8964C5.89437 1.47 6.21957 2.2476 6.21957 3.06Z" fill="white"/>
</svg>
