<svg width="22" height="22" viewBox="0 0 22 22" fill="none" xmlns="http://www.w3.org/2000/svg">
<g clip-path="url(#clip0_85_5541)">
<path d="M1.32367 6.11353C1.01673 6.20123 0.738013 6.36756 0.515091 6.59605C0.292169 6.82454 0.132772 7.10729 0.0526718 7.4163C-0.0274283 7.72531 -0.0254548 8.04988 0.058397 8.35789C0.142249 8.6659 0.305072 8.94668 0.530757 9.17245L3.65842 12.2964V18.3336H9.70201L12.8508 21.4778C13.0198 21.6482 13.2208 21.7836 13.4423 21.8761C13.6638 21.9686 13.9014 22.0164 14.1414 22.0168C14.2992 22.0165 14.4563 21.9961 14.6089 21.9563C14.9178 21.8785 15.2007 21.7207 15.4293 21.4988C15.6578 21.2769 15.8238 20.9987 15.9106 20.6922L21.9918 0.0195312L1.32367 6.11353ZM1.83334 7.87628L17.4423 3.27461L5.49359 15.2041V11.5374L1.83334 7.87628ZM14.1533 20.1816L10.4619 16.5003H6.79526L18.7422 4.56345L14.1533 20.1816Z" fill="#050505"/>
</g>
<defs>
<clipPath id="clip0_85_5541">
<rect width="22" height="22" fill="white"/>
</clipPath>
</defs>
</svg>
