<svg width="24" height="24" viewBox="0 0 24 24" fill="none" xmlns="http://www.w3.org/2000/svg">
<g id="slack-new-logo 1" clip-path="url(#clip0_85_5576)">
<g id="Group">
<path id="Vector" fill-rule="evenodd" clip-rule="evenodd" d="M8.82987 0C7.50584 0.000978593 6.43428 1.07547 6.43525 2.39951C6.43428 3.72355 7.50681 4.79804 8.83085 4.79902H11.2264V2.40049C11.2274 1.07645 10.1549 0.00195719 8.82987 0C8.83085 0 8.83085 0 8.82987 0ZM8.82987 6.4H2.44357C1.11954 6.40098 0.0469977 7.47547 0.0479763 8.79951C0.0460191 10.1235 1.11856 11.198 2.44259 11.2H8.82987C10.1539 11.199 11.2264 10.1245 11.2255 8.80049C11.2264 7.47547 10.1539 6.40098 8.82987 6.4Z" fill="white"/>
<path id="Vector_2" fill-rule="evenodd" clip-rule="evenodd" d="M24 8.79951C24.001 7.47547 22.9284 6.40098 21.6044 6.4C20.2804 6.40098 19.2078 7.47547 19.2088 8.79951V11.2H21.6044C22.9284 11.199 24.001 10.1245 24 8.79951ZM17.6127 8.79951V2.39951C17.6137 1.07645 16.5421 0.00195719 15.2181 0C13.8941 0.000978593 12.8215 1.07547 12.8225 2.39951V8.79951C12.8206 10.1235 13.8931 11.198 15.2171 11.2C16.5412 11.199 17.6137 10.1245 17.6127 8.79951Z" fill="#BABCBF"/>
<path id="Vector_3" fill-rule="evenodd" clip-rule="evenodd" d="M15.2171 23.9998C16.5412 23.9988 17.6137 22.9243 17.6127 21.6003C17.6137 20.2763 16.5412 19.2018 15.2171 19.2008H12.8215V21.6003C12.8206 22.9234 13.8931 23.9978 15.2171 23.9998ZM15.2171 17.5988H21.6044C22.9284 17.5978 24.001 16.5234 24 15.1993C24.002 13.8753 22.9294 12.8008 21.6054 12.7988H15.2181C13.8941 12.7998 12.8215 13.8743 12.8225 15.1983C12.8215 16.5234 13.8931 17.5978 15.2171 17.5988Z" fill="white"/>
<path id="Vector_4" fill-rule="evenodd" clip-rule="evenodd" d="M0.0479743 15.2003C0.0469957 16.5243 1.11953 17.5988 2.44357 17.5998C3.76761 17.5988 4.84015 16.5243 4.83917 15.2003V12.8008H2.44357C1.11953 12.8018 0.0469957 13.8763 0.0479743 15.2003ZM6.43525 15.2003V21.6003C6.43329 22.9243 7.50583 23.9988 8.82987 24.0008C10.1539 23.9998 11.2264 22.9253 11.2255 21.6013V15.2022C11.2274 13.8782 10.1549 12.8037 8.83085 12.8018C7.50583 12.8018 6.43427 13.8763 6.43525 15.2003Z" fill="#BABCBF"/>
</g>
</g>
<defs>
<clipPath id="clip0_85_5576">
<rect width="23.952" height="24" fill="white" transform="translate(0.0479736)"/>
</clipPath>
</defs>
</svg>
