<svg width="24" height="24" viewBox="0 0 24 24" fill="none" xmlns="http://www.w3.org/2000/svg">
<g id="Property 1=data-storage" clip-path="url(#clip0_122_2613)">
<path id="Vector" d="M21.8906 19.7812C20.974 19.7812 20.1925 20.3692 19.9021 21.1875H13.9885C13.7763 20.5891 13.3015 20.1143 12.7031 19.9021V18.3179C14.3844 18.2693 15.9512 18.0474 17.1738 17.6807C18.308 17.3405 19.7344 16.699 19.7344 15.5156V2.8125C19.7344 1.62909 18.308 0.987671 17.1738 0.647461C15.7822 0.22998 13.9446 0 12 0C10.0554 0 8.21777 0.22998 6.82617 0.647461C5.69202 0.987671 4.26562 1.62909 4.26562 2.8125V15.5156C4.26562 15.8771 4.41284 16.4127 5.1145 16.9102C5.53107 17.2057 6.10693 17.465 6.82617 17.6807C8.04895 18.0474 9.6156 18.2693 11.2969 18.3179V19.9021C10.6985 20.1143 10.2237 20.5891 10.0115 21.1875H4.0979C3.8075 20.3692 3.026 19.7812 2.10938 19.7812C0.946289 19.7812 0 20.7275 0 21.8906C0 23.0537 0.946289 24 2.10938 24C3.026 24 3.8075 23.412 4.0979 22.5938H10.0115C10.3019 23.412 11.0834 24 12 24C12.9166 24 13.6981 23.412 13.9885 22.5938H19.9021C20.1925 23.412 20.974 24 21.8906 24C23.0537 24 24 23.0537 24 21.8906C24 20.7275 23.0537 19.7812 21.8906 19.7812ZM5.67188 8.75354C6.00073 8.91632 6.38654 9.06445 6.82617 9.19629C8.21777 9.61377 10.0554 9.84375 12 9.84375C13.9446 9.84375 15.7822 9.61377 17.1738 9.19629C17.6135 9.06445 17.9993 8.91614 18.3281 8.75336V11.2425C18.2964 11.339 17.9214 11.7504 16.5862 12.121C15.343 12.4662 13.7142 12.6562 12 12.6562C10.2858 12.6562 8.65704 12.4662 7.41376 12.121C6.07855 11.7504 5.70355 11.339 5.67188 11.2425V8.75354ZM5.67188 4.53479C6.00073 4.69757 6.38654 4.8457 6.82617 4.97754C8.21777 5.39502 10.0554 5.625 12 5.625C13.9446 5.625 15.7822 5.39502 17.1738 4.97754C17.6135 4.8457 17.9993 4.69739 18.3281 4.53461V7.02374C18.2964 7.12024 17.9214 7.53168 16.5862 7.90228C15.343 8.24744 13.7142 8.4375 12 8.4375C10.2858 8.4375 8.65704 8.24744 7.41376 7.90228C6.07855 7.53168 5.70355 7.12024 5.67188 7.02374V4.53479ZM7.41376 1.94147C8.65704 1.59631 10.2858 1.40625 12 1.40625C13.7142 1.40625 15.343 1.59631 16.5862 1.94147C17.8883 2.30292 18.2774 2.70337 18.3254 2.8125C18.2774 2.92163 17.8881 3.32208 16.5862 3.68353C15.343 4.02869 13.7142 4.21875 12 4.21875C10.2858 4.21875 8.65704 4.02869 7.41376 3.68353C6.11169 3.32208 5.7226 2.92163 5.67462 2.8125C5.7226 2.70337 6.11169 2.30292 7.41376 1.94147ZM5.67188 15.5081V12.9723C6.00073 13.1351 6.38654 13.2832 6.82617 13.415C8.21777 13.8325 10.0554 14.0625 12 14.0625C13.9446 14.0625 15.7822 13.8325 17.1738 13.415C17.6135 13.2832 17.9993 13.1349 18.3281 12.9721V15.5081C18.2964 15.6046 17.9214 16.0161 16.5862 16.3867C15.343 16.7318 13.7142 16.9219 12 16.9219C10.2858 16.9219 8.65704 16.7318 7.41376 16.3867C6.07855 16.0161 5.70355 15.6046 5.67188 15.5081ZM2.10938 22.5938C1.72174 22.5938 1.40625 22.2783 1.40625 21.8906C1.40625 21.503 1.72174 21.1875 2.10938 21.1875C2.49701 21.1875 2.8125 21.503 2.8125 21.8906C2.8125 22.2783 2.49701 22.5938 2.10938 22.5938ZM12 22.5938C11.6124 22.5938 11.2969 22.2783 11.2969 21.8906C11.2969 21.503 11.6124 21.1875 12 21.1875C12.3876 21.1875 12.7031 21.503 12.7031 21.8906C12.7031 22.2783 12.3876 22.5938 12 22.5938ZM21.8906 22.5938C21.503 22.5938 21.1875 22.2783 21.1875 21.8906C21.1875 21.503 21.503 21.1875 21.8906 21.1875C22.2783 21.1875 22.5938 21.503 22.5938 21.8906C22.5938 22.2783 22.2783 22.5938 21.8906 22.5938Z" fill="#59A745"/>
</g>
<defs>
<clipPath id="clip0_122_2613">
<rect width="24" height="24" fill="white"/>
</clipPath>
</defs>
</svg>
