<svg width="33" height="40" viewBox="0 0 33 40" fill="none" xmlns="http://www.w3.org/2000/svg">
<g id="Group">
<path id="Vector" d="M27.4306 1.33766C24.5392 0.475078 20.7165 0 16.6667 0C12.6168 0 8.79416 0.475078 5.90275 1.33766C3.55033 2.03945 0.746109 3.34383 0.746109 5.57195V34.428C0.746109 35.6578 1.64072 37.3908 5.90275 38.6623C8.79416 39.5249 12.6168 40 16.6667 40C20.7165 40 24.5392 39.5249 27.4306 38.6623C31.6926 37.3909 32.5872 35.6579 32.5872 34.428V5.57195C32.5872 3.34383 29.783 2.03945 27.4306 1.33766ZM6.57283 3.58359C9.25275 2.78406 12.8374 2.34375 16.6667 2.34375C20.4959 2.34375 24.0806 2.78406 26.7605 3.58359C29.392 4.36867 30.2435 5.26219 30.2435 5.57195C30.2435 5.88172 29.3921 6.77523 26.7605 7.56031C24.0806 8.35984 20.4958 8.80016 16.6667 8.80016C12.8375 8.80016 9.25275 8.35984 6.57283 7.56031C3.94127 6.77531 3.08986 5.88172 3.08986 5.57195C3.08986 5.26219 3.94127 4.36867 6.57283 3.58359ZM26.7605 36.4164C24.0806 37.2159 20.4959 37.6562 16.6667 37.6562C12.8374 37.6562 9.25275 37.2159 6.57283 36.4164C3.94127 35.6313 3.08986 34.7378 3.08986 34.428V27.9014C3.96283 28.3905 4.96822 28.7648 5.90275 29.0437C8.79416 29.9063 12.6168 30.3813 16.6667 30.3813C20.7165 30.3813 24.5392 29.9063 27.4306 29.0437C28.3651 28.7648 29.3705 28.3905 30.2435 27.9014V34.428C30.2435 34.7378 29.392 35.6313 26.7605 36.4164ZM26.7605 26.7977C24.0806 27.5973 20.4958 28.0376 16.6667 28.0376C12.8375 28.0376 9.25275 27.5973 6.57283 26.7977C3.94127 26.0127 3.08986 25.1191 3.08986 24.8094V18.2827C3.96283 18.7719 4.96822 19.1462 5.90275 19.425C8.79416 20.2876 12.6168 20.7627 16.6667 20.7627C20.7165 20.7627 24.5392 20.2876 27.4306 19.425C28.3651 19.1462 29.3705 18.7719 30.2435 18.2827V24.8094C30.2435 25.1191 29.392 26.0127 26.7605 26.7977ZM26.7605 17.1791C24.0806 17.9786 20.4958 18.4189 16.6667 18.4189C12.8375 18.4189 9.25275 17.9786 6.57283 17.1791C3.94127 16.394 3.08986 15.5005 3.08986 15.1907V8.66406C3.96283 9.1532 4.96822 9.5275 5.90275 9.80633C8.79416 10.6689 12.6168 11.144 16.6667 11.144C20.7165 11.144 24.5392 10.6689 27.4306 9.80633C28.3651 9.5275 29.3705 9.1532 30.2435 8.66406V15.1907C30.2435 15.5004 29.392 16.394 26.7605 17.1791Z" fill="#1D1D1F"/>
<path id="Vector_2" d="M13.0901 13.5791H15.4338V15.9837H13.0901V13.5791Z" fill="#1D1D1F"/>
<path id="Vector_3" d="M17.8995 13.5791H20.2432V15.9837H17.8995V13.5791Z" fill="#1D1D1F"/>
<path id="Vector_4" d="M13.0901 23.1982H15.4338V25.6028H13.0901V23.1982Z" fill="#1D1D1F"/>
<path id="Vector_5" d="M17.8995 23.1982H20.2432V25.6028H17.8995V23.1982Z" fill="#1D1D1F"/>
<path id="Vector_6" d="M13.0901 32.8164H15.4338V35.221H13.0901V32.8164Z" fill="#1D1D1F"/>
<path id="Vector_7" d="M17.8995 32.8164H20.2432V35.221H17.8995V32.8164Z" fill="#1D1D1F"/>
</g>
</svg>
