<svg width="40" height="38" viewBox="0 0 40 38" fill="none" xmlns="http://www.w3.org/2000/svg">
<g id="Group">
<g id="Group_2">
<path id="Vector" d="M5.00635 9.38574H7.35307V11.7325H5.00635V9.38574Z" fill="#59A745"/>
</g>
<g id="Group_3">
<path id="Vector_2" d="M9.6998 9.38574H12.0465V11.7325H9.6998V9.38574Z" fill="#59A745"/>
</g>
<g id="Group_4">
<path id="Vector_3" d="M12.907 27.7686H17.6004V30.1153H12.907V27.7686Z" fill="#59A745"/>
</g>
<g id="Group_5">
<g id="Group_6">
<path id="Vector_4" d="M40 26.3775L37.5797 23.8628L31.9155 22.8717V20.4938H36.6871V-0.000976562H6.8055V4.69247H0V36.2168H26.674L28.3904 38.0002L31.1475 34.0814L34.9423 37.8762L39.9204 32.898L36.1257 29.1033L40 26.3775ZM9.15223 2.34575H34.3404V18.147H31.9155V4.69247H9.15223V2.34575ZM2.34672 7.0392H29.5687V14.0794H2.34672V7.0392ZM2.34672 33.8701V16.4261H29.5687V22.4611L23.4237 21.3859L25.665 33.8701H2.34672ZM36.6016 32.8981L34.9423 34.5575L30.8339 30.4491L28.1261 34.2976L26.3269 24.2763L36.4026 26.0392L32.4932 28.7897L36.6016 32.8981Z" fill="#59A745"/>
</g>
</g>
<g id="Group_7">
<path id="Vector_5" d="M4.69345 20.8848L7.97887 25.5L4.69345 30.1152H7.35307L10.6385 25.5L7.35307 20.8848H4.69345Z" fill="#59A745"/>
</g>
</g>
</svg>
