<svg width="41" height="40" viewBox="0 0 41 40" fill="none" xmlns="http://www.w3.org/2000/svg">
<g id="Icon - algoseek Console" clip-path="url(#clip0_85_13973)">
<path id="Vector" d="M25.099 0C16.6987 0 9.86462 6.83411 9.86462 15.2344C9.86462 19.0137 11.2483 22.4753 13.5353 25.141L11.9902 26.6861L10.3328 25.0287L0.333374 35.0281L5.3053 40L15.3047 30.0006L13.6473 28.3435L15.1924 26.7981C17.8581 29.0851 21.3197 30.4688 25.099 30.4688C33.4993 30.4688 40.3334 23.6346 40.3334 15.2344C40.3334 6.83411 33.4993 0 25.099 0ZM5.3053 36.6855L3.64789 35.0281L10.3328 28.3432L11.9902 30.0006L5.3053 36.6855ZM25.099 28.125C17.9911 28.125 12.2084 22.3422 12.2084 15.2344C12.2084 8.12653 17.9911 2.34375 25.099 2.34375C32.2068 2.34375 37.9896 8.12653 37.9896 15.2344C37.9896 22.3422 32.2068 28.125 25.099 28.125Z" fill="#1D1D1F"/>
<path id="Vector_2" d="M28.4178 7.55273L26.4677 8.85278L29.9406 14.0621H20.2574L23.7303 8.85278L21.7802 7.55273L17.4406 14.0621H16.4418L19.5668 23.4371H30.6312L33.7562 14.0621H32.7574L28.4178 7.55273ZM28.9418 21.0934H21.2562L19.6937 16.4059H30.5043L28.9418 21.0934Z" fill="#1D1D1F"/>
</g>
<defs>
<clipPath id="clip0_85_13973">
<rect width="40" height="40" fill="white" transform="translate(0.333374)"/>
</clipPath>
</defs>
</svg>
