<svg width="40" height="40" viewBox="0 0 40 40" fill="none" xmlns="http://www.w3.org/2000/svg">
<g id="Icon - algoseek Console" clip-path="url(#clip0_85_13956)">
<path id="Vector" d="M38.2471 29.9415L26.6283 18.3226L28.9799 15.971C35.8152 18.4328 42.324 11.2505 39.1654 4.67765L38.4493 3.17838L33.1205 8.50726L31.4588 6.84554L36.7876 1.51681L35.2884 0.800661C32.1498 -0.698691 28.3877 -0.0527997 25.9275 2.40764C23.6686 4.66645 22.9393 8.02265 23.9952 10.9862L19.9818 14.9995L13.1626 8.1804L13.9936 5.68801L10.7939 2.48823L3.63904 0.0610106L0.0588276 3.64114L2.48621 10.7961L5.68598 13.9959L8.17829 13.1648L14.9975 19.9839L11.0083 23.9732C4.17323 21.5107 -2.33573 28.6939 0.822838 35.2663L1.53899 36.7656L6.58377 31.7209L8.24534 33.3824L3.20064 38.4272L4.69991 39.1433C7.85206 40.6493 11.6114 39.9859 14.061 37.5363C16.3198 35.2775 17.0491 31.9213 15.9932 28.9577L18.3204 26.6305L29.9393 38.2494C35.6467 43.5539 43.5495 35.643 38.2471 29.9415ZM8.81291 10.476L6.32059 11.3072L4.5355 9.522L2.75354 4.26972L4.2677 2.75565L9.51997 4.53745L11.3051 6.32262L10.4739 8.81501L18.3203 16.6611L16.6592 18.3222L8.81291 10.476ZM13.1893 28.4383L13.5474 29.188C15.5838 33.3785 11.9829 38.2288 7.41421 37.5367L11.5684 33.3823L6.5837 28.3976L2.42934 32.5519C2.17485 30.755 2.76278 28.8952 4.0913 27.5667C5.84882 25.8092 8.53602 25.3478 10.778 26.4186L11.5277 26.7767L26.7989 11.5054L26.4408 10.7557C25.3699 8.51392 25.8314 5.82665 27.589 4.06913C28.9175 2.74061 30.7772 2.15299 32.5741 2.40709L28.1358 6.84546L33.1206 11.8303L37.5589 7.39195C37.8134 9.18887 37.2255 11.0486 35.897 12.3771C34.1394 14.1347 31.4522 14.5962 29.2103 13.5253L28.4606 13.1671L13.1893 28.4383ZM19.9819 24.969L24.9668 19.9841L34.924 29.9414L33.2625 31.6031L24.9545 23.2952L23.2929 24.9567L31.6008 33.2647L29.9392 34.9262L19.9819 24.969ZM34.0932 37.6203C33.1516 37.6203 32.2666 37.2536 31.6008 36.5878L36.5856 31.603C38.7989 33.7812 37.2037 37.6435 34.0932 37.6203Z" fill="#1D1D1F"/>
</g>
<defs>
<clipPath id="clip0_85_13956">
<rect width="40" height="40" fill="white"/>
</clipPath>
</defs>
</svg>
