<svg width="52" height="52" viewBox="0 0 52 52" fill="none" xmlns="http://www.w3.org/2000/svg">
<g clip-path="url(#clip0_85_14636)">
<path d="M39.4799 45.6227C38.8339 43.7141 37.0271 42.3359 34.9031 42.3359C32.7792 42.3359 30.9723 43.7141 30.3264 45.6227H0V48.7118H30.3265C30.9724 50.6204 32.7792 51.9986 34.9032 51.9986C37.0272 51.9986 38.834 50.6204 39.4799 48.7118H52V45.6227H39.4799ZM34.9031 48.9096C33.9424 48.9096 33.1609 48.128 33.1609 47.1673C33.1609 46.2066 33.9424 45.4251 34.9031 45.4251C35.8638 45.4251 36.6454 46.2066 36.6454 47.1673C36.6453 48.1279 35.8638 48.9096 34.9031 48.9096Z" fill="#1D1D1F"/>
<path d="M30.9156 3.28822C30.2696 1.37967 28.4628 0.00146484 26.3389 0.00146484C24.2149 0.00146484 22.4081 1.37977 21.7622 3.28822H0V6.37734H21.7623C22.4082 8.2859 24.215 9.6641 26.339 9.6641C28.4629 9.6641 30.2697 8.2859 30.9157 6.37734H52V3.28822H30.9156ZM26.3389 6.57498C25.3782 6.57498 24.5966 5.79346 24.5966 4.83278C24.5966 3.87211 25.3781 3.09048 26.3389 3.09048C27.2995 3.09048 28.0811 3.872 28.0811 4.83278C28.0812 5.79346 27.2995 6.57498 26.3389 6.57498Z" fill="#1D1D1F"/>
<path d="M49.0795 23.5578C49.4918 22.5624 49.7553 21.5307 49.8718 20.489H52V17.3999H49.7846C49.6441 16.57 49.4094 15.7502 49.0794 14.9536C47.9302 12.1795 45.7696 10.0187 42.9954 8.86966C40.2212 7.72048 37.1654 7.72058 34.3913 8.86966C31.6172 10.0188 29.4565 12.1795 28.3073 14.9536C27.9775 15.7502 27.7427 16.5701 27.6022 17.3998H20.0413C19.3954 15.4912 17.5886 14.113 15.4646 14.113C13.3406 14.113 11.5338 15.4912 10.8879 17.3998H0V20.4889H10.8881C11.534 22.3974 13.3408 23.7757 15.4648 23.7757C17.5888 23.7757 19.3956 22.3974 20.0415 20.4889H27.5152C27.6316 21.5307 27.8951 22.5624 28.3074 23.5577C29.4566 26.3319 31.6174 28.4925 34.3914 29.6417C35.7788 30.2163 37.2359 30.5035 38.6935 30.5035C38.9315 30.5035 39.1693 30.4951 39.407 30.4798L39.8344 31.5114H28.5904C27.9445 29.6029 26.1377 28.2247 24.0137 28.2247C21.8897 28.2247 20.0829 29.603 19.437 31.5114H0V34.6006H19.4371C20.083 36.5091 21.8898 37.8873 24.0138 37.8873C26.1378 37.8873 27.9446 36.5091 28.5905 34.6006H41.1137L42.4714 37.8783C42.8431 38.7756 43.542 39.4744 44.4393 39.8462C44.8879 40.032 45.3593 40.125 45.8308 40.125C46.3022 40.125 46.7737 40.032 47.2222 39.8463C48.1195 39.4745 48.8184 38.7757 49.1901 37.8784C49.5618 36.9811 49.5618 35.9927 49.1901 35.0954L48.9851 34.6006H52V31.5114H47.7056L46.1255 27.697C47.4 26.5769 48.4112 25.1715 49.0795 23.5578ZM15.4647 20.6865C14.504 20.6865 13.7225 19.905 13.7225 18.9442C13.7225 17.9836 14.504 17.202 15.4647 17.202C16.4254 17.202 17.2069 17.9836 17.2069 18.9442C17.207 19.905 16.4254 20.6865 15.4647 20.6865ZM24.0137 34.7981C23.053 34.7981 22.2714 34.0166 22.2714 33.0559C22.2714 32.0952 23.0529 31.3136 24.0137 31.3136C24.9744 31.3136 25.7559 32.0951 25.7559 33.0559C25.7559 34.0167 24.9744 34.7981 24.0137 34.7981ZM46.3361 36.2774C46.4115 36.4596 46.3684 36.6179 46.3361 36.696C46.3038 36.7741 46.2222 36.9167 46.04 36.9921C45.858 37.0674 45.6995 37.0243 45.6214 36.9921C45.5432 36.9598 45.4007 36.8782 45.3253 36.696L42.485 29.8388C42.6562 29.7774 42.8264 29.7117 42.9955 29.6416C43.0564 29.6164 43.1168 29.59 43.1772 29.5638C43.2004 29.5537 43.224 29.544 43.2472 29.5337C43.3306 29.4969 43.4134 29.4589 43.4958 29.4202L46.3361 36.2774ZM43.3445 25.9522C43.2441 26.0218 43.1416 26.0887 43.038 26.1538C43.0169 26.1671 42.996 26.1808 42.9747 26.1938C42.8746 26.2554 42.7727 26.3141 42.67 26.3715C42.6449 26.3855 42.6202 26.4002 42.5949 26.414C42.494 26.4689 42.3914 26.5206 42.2883 26.5713C42.2608 26.5848 42.2341 26.5993 42.2063 26.6125C42.0792 26.6731 41.9505 26.7307 41.8203 26.7847L41.8134 26.7878C41.6913 26.8384 41.5685 26.8852 41.4453 26.9294C41.4343 26.9333 41.4233 26.9376 41.4122 26.9415C41.2965 26.9826 41.1804 27.0202 41.064 27.0556C41.0451 27.0614 41.0264 27.0674 41.0075 27.073C40.8936 27.1069 40.7791 27.1378 40.6646 27.1664C40.6453 27.1713 40.626 27.1762 40.6067 27.1808C40.4887 27.2094 40.3704 27.2354 40.252 27.2584C40.2395 27.2609 40.2272 27.2633 40.2147 27.2656C36.5001 27.9721 32.6642 26.0034 31.1614 22.3756C30.3281 20.3637 30.3281 18.1477 31.1614 16.1358C31.9948 14.124 33.5618 12.557 35.5736 11.7237C36.5797 11.3069 37.6365 11.0986 38.6935 11.0986C39.7504 11.0986 40.8076 11.3071 41.8134 11.7237C43.8254 12.557 45.3923 14.124 46.2256 16.1359C47.0587 18.1477 47.0587 20.3637 46.2254 22.3755C45.618 23.842 44.6196 25.0703 43.3445 25.9522Z" fill="#1D1D1F"/>
<path fill-rule="evenodd" clip-rule="evenodd" d="M49.0795 23.5578C49.4918 22.5624 49.7553 21.5307 49.8718 20.489C49.9918 19.72 49.8637 18.1092 49.7846 17.3999C49.6441 16.57 49.4094 15.7502 49.0794 14.9536C47.9302 12.1795 45.7696 10.0187 42.9954 8.86966C40.2212 7.72048 37.1654 7.72058 34.3913 8.86966C31.6172 10.0188 29.4565 12.1795 28.3073 14.9536C27.9775 15.7502 27.7427 16.5701 27.6022 17.3998C27.3704 18.4109 27.4476 19.8805 27.5152 20.4889C27.6316 21.5307 27.8951 22.5624 28.3074 23.5577C29.4566 26.3319 31.6174 28.4925 34.3914 29.6417C35.7788 30.2163 37.2359 30.5035 38.6935 30.5035C38.9315 30.5035 39.1693 30.4951 39.407 30.4798L39.8344 31.5114L41.1137 34.6006L42.4714 37.8783C42.8431 38.7756 43.542 39.4744 44.4393 39.8462C44.8879 40.032 45.3593 40.125 45.8308 40.125C46.3022 40.125 46.7737 40.032 47.2222 39.8463C48.1195 39.4745 48.8184 38.7757 49.1901 37.8784C49.5618 36.9811 49.5618 35.9927 49.1901 35.0954L48.9851 34.6006L47.7056 31.5114L46.1255 27.697C47.4 26.5769 48.4112 25.1715 49.0795 23.5578ZM46.3361 36.2774C46.4115 36.4596 46.3684 36.6179 46.3361 36.696C46.3038 36.7741 46.2222 36.9167 46.04 36.9921C45.858 37.0674 45.6995 37.0243 45.6214 36.9921C45.5432 36.9598 45.4007 36.8782 45.3253 36.696L42.485 29.8388C42.6562 29.7774 42.8264 29.7117 42.9955 29.6416C43.0564 29.6164 43.1168 29.59 43.1772 29.5638C43.2004 29.5537 43.224 29.544 43.2472 29.5337C43.3306 29.4969 43.4134 29.4589 43.4958 29.4202L46.3361 36.2774ZM43.3445 25.9522C43.2441 26.0218 43.1416 26.0887 43.038 26.1538L43.0155 26.1681C43.002 26.1768 42.9884 26.1855 42.9747 26.1938C42.8746 26.2554 42.7727 26.3141 42.67 26.3715L42.6379 26.3897C42.6237 26.3979 42.6094 26.4061 42.5949 26.414C42.494 26.4689 42.3914 26.5206 42.2883 26.5713L42.2681 26.5814L42.2525 26.5894C42.2372 26.5972 42.2219 26.6051 42.2063 26.6125C42.0792 26.6731 41.9505 26.7307 41.8203 26.7847L41.8134 26.7878C41.6913 26.8384 41.5685 26.8852 41.4453 26.9294L41.4122 26.9415C41.2965 26.9826 41.1804 27.0202 41.064 27.0556L41.0273 27.067L41.0075 27.073C40.8936 27.1069 40.7791 27.1378 40.6646 27.1664C40.6453 27.1713 40.626 27.1762 40.6067 27.1808C40.4887 27.2094 40.3704 27.2354 40.252 27.2584L40.2147 27.2656C36.5001 27.9721 32.6642 26.0034 31.1614 22.3756C30.3281 20.3637 30.3281 18.1477 31.1614 16.1358C31.9948 14.124 33.5618 12.557 35.5736 11.7237C36.5797 11.3069 37.6365 11.0986 38.6935 11.0986C39.7504 11.0986 40.8076 11.3071 41.8134 11.7237C43.8254 12.557 45.3923 14.124 46.2256 16.1359C47.0587 18.1477 47.0587 20.3637 46.2254 22.3755C45.618 23.842 44.6196 25.0703 43.3445 25.9522Z" fill="#59A745"/>
<path fill-rule="evenodd" clip-rule="evenodd" d="M27.6022 17.3998H20.0413C19.3954 15.4912 17.5886 14.113 15.4646 14.113C13.3406 14.113 11.5338 15.4912 10.8879 17.3998H0V20.4889H10.8881C11.534 22.3974 13.3408 23.7757 15.4648 23.7757C17.5888 23.7757 19.3956 22.3974 20.0415 20.4889H27.5152C27.4476 19.8805 27.3704 18.4109 27.6022 17.3998ZM13.7225 18.9442C13.7225 19.905 14.504 20.6865 15.4647 20.6865C16.4254 20.6865 17.207 19.905 17.2069 18.9442C17.2069 17.9836 16.4254 17.202 15.4647 17.202C14.504 17.202 13.7225 17.9836 13.7225 18.9442Z" fill="#59A745"/>
<path d="M49.8718 20.489H52V17.3999H49.7846C49.8637 18.1092 49.9918 19.72 49.8718 20.489Z" fill="#59A745"/>
<path d="M44.7985 16.7268C43.7715 14.2472 41.3736 12.645 38.6896 12.645C37.8239 12.645 36.9743 12.8151 36.1645 13.1506C34.5359 13.8253 33.2665 15.0957 32.5905 16.7277C31.9145 18.3598 31.9136 20.1558 32.5883 21.7845C33.6154 24.2642 36.0133 25.8663 38.6973 25.8663C39.5629 25.8663 40.4124 25.6962 41.2222 25.3607C42.8528 24.6852 44.123 23.4152 44.7985 21.7845C45.474 20.1537 45.4739 18.3575 44.7985 16.7268ZM41.9446 20.6022C41.5849 21.4707 40.9085 22.147 40.0402 22.5067C39.607 22.6862 39.1551 22.7771 38.6973 22.7771C37.2673 22.7771 35.9896 21.9233 35.4423 20.6021C34.6998 18.8094 35.554 16.7468 37.3468 16.0043C37.78 15.8249 38.2317 15.7339 38.6897 15.7339C40.1198 15.7339 41.3973 16.5877 41.9445 17.9089C42.3042 18.7775 42.3042 19.734 41.9446 20.6022Z" fill="#59A745"/>
</g>
<defs>
<clipPath id="clip0_85_14636">
<rect width="52" height="52" fill="white"/>
</clipPath>
</defs>
</svg>
