<svg width="52" height="52" viewBox="0 0 52 52" fill="none" xmlns="http://www.w3.org/2000/svg">
<g id="Group">
<path id="Vector" d="M23.0547 6.09375C10.4427 6.09375 0 16.2968 0 28.9453C0 41.5533 10.3983 52 23.0547 52C35.7068 52 45.9062 41.5533 45.9062 28.9453V27.4219H24.5781V6.09375H23.0547ZM42.8026 30.4687C42.0298 40.792 33.468 48.9531 23.0547 48.9531C12.2093 48.9531 3.04687 39.7907 3.04687 28.9453C3.04687 18.532 11.208 9.97018 21.5312 9.19736V30.4687H42.8026Z" fill="#1D1D1F"/>
<path id="Vector_2" d="M29.1484 0H27.625V24.375H52V22.8516C52 10.2221 41.7795 0 29.1484 0ZM30.6719 14.3421L39.2126 5.80096C40.21 6.39209 41.1515 7.06812 42.0266 7.81873L30.6719 19.1739V14.3421ZM44.1813 9.97336C44.9319 10.8485 45.6079 11.79 46.199 12.7874L37.6579 21.3281H32.8261L44.1813 9.97336ZM36.3161 4.38901L30.6719 10.0333V3.1048C32.648 3.25595 34.5435 3.6983 36.3161 4.38901ZM41.9667 21.3281L47.611 15.6839C48.3017 17.4565 48.744 19.3524 48.8952 21.3281H41.9667Z" fill="#59A745"/>
</g>
</svg>
