<svg width="52" height="52" viewBox="0 0 52 52" fill="none" xmlns="http://www.w3.org/2000/svg">
<g clip-path="url(#clip0_85_4536)">
<path d="M31.1505 11.2056C30.9492 10.7516 30.6639 10.3657 30.2941 10.0477C29.9243 9.72989 29.4734 9.4638 28.9416 9.2498C28.4094 9.03571 27.8128 8.83807 27.1511 8.65617C26.6708 8.52668 26.2492 8.40988 25.8861 8.30588C25.5227 8.20219 25.221 8.08874 24.9811 7.96524C24.741 7.84205 24.5595 7.7025 24.4363 7.5468C24.3128 7.39111 24.2514 7.19651 24.2514 6.96302C24.2514 6.19765 24.8222 5.81476 25.964 5.81476C26.3791 5.81476 26.7941 5.87316 27.2095 5.98995C27.6246 6.10675 28.0074 6.24294 28.3578 6.39864C28.7081 6.55434 29 6.70363 29.2336 6.84633C29.4672 6.98923 29.6034 7.08652 29.6423 7.13822L31.0435 4.4914C30.7321 4.30991 30.3915 4.12831 30.0217 3.94652C29.6519 3.76492 29.253 3.60293 28.8248 3.45993C28.4095 3.3216 27.9755 3.20805 27.5235 3.11837V0H24.4766V3.16205C24.3516 3.19302 24.2276 3.22664 24.1054 3.26523C23.489 3.45983 22.9475 3.74867 22.4804 4.13126C22.0132 4.51415 21.6435 4.98448 21.371 5.54227C21.0985 6.10025 20.9624 6.74253 20.9624 7.46901C20.9624 7.98809 21.0369 8.44208 21.1862 8.83127C21.3352 9.22055 21.5624 9.56444 21.8673 9.86273C22.172 10.1613 22.5583 10.4241 23.0253 10.651C23.4923 10.8781 24.0436 11.0888 24.6795 11.2835C25.1594 11.4264 25.6039 11.556 26.0126 11.6728C26.4212 11.7895 26.7746 11.916 27.0732 12.0522C27.3714 12.1884 27.605 12.3412 27.7738 12.5096C27.9422 12.6784 28.0267 12.8924 28.0267 13.1517C28.0268 13.8395 27.4624 14.1831 26.3337 14.1831C25.8016 14.1831 25.2761 14.112 24.7573 13.9691C24.2383 13.8265 23.7679 13.6644 23.3464 13.4826C22.9246 13.301 22.5709 13.1195 22.2858 12.9376C22.0002 12.7561 21.8314 12.633 21.7798 12.5679L20.3785 15.3509C20.7805 15.6234 21.2185 15.8636 21.6923 16.0709C22.1656 16.2786 22.6556 16.4572 23.1616 16.6062C23.5905 16.7327 24.0291 16.832 24.4767 16.9071V20.3829H27.5236V16.9711C27.7522 16.9368 27.9785 16.8932 28.2021 16.8397C28.8249 16.6907 29.3762 16.4505 29.8564 16.1196C30.3362 15.7888 30.7224 15.3542 31.0143 14.8157C31.3062 14.2775 31.4521 13.6188 31.4521 12.8403C31.4521 12.2048 31.3515 11.6599 31.1505 11.2056Z" fill="#59A745"/>
<path d="M47.7385 48.953V20.0464H35.4779V48.953H32.2341V25.6084H19.9736V48.953H16.522V30.6931H4.26136V48.953H0V51.9999H52V48.953H47.7385ZM13.4751 48.953H7.30823V33.74H13.4751V48.953ZM29.1872 48.953H23.0205V28.6552H29.1872V48.953ZM44.6918 48.953H38.5249V23.0933H44.6918V48.953Z" fill="#1D1D1F"/>
</g>
<defs>
<clipPath id="clip0_85_4536">
<rect width="52" height="52" fill="white"/>
</clipPath>
</defs>
</svg>
