<svg width="52" height="52" viewBox="0 0 52 52" fill="none" xmlns="http://www.w3.org/2000/svg">
<g id="Group">
<path id="Vector" d="M9.17647 6.11768H12.2353V21.4118H9.17647V6.11768Z" fill="#1D1D1F"/>
<path id="Vector_2" d="M15.2941 21.4118H18.3529V15.2941H24.4706V6.11768H15.2941V21.4118ZM18.3529 9.1765H21.4118V12.2353H18.3529V9.1765Z" fill="#1D1D1F"/>
<path id="Vector_3" d="M27.5294 21.4118H36.7059V6.11768H27.5294V21.4118ZM30.5882 9.1765H33.6471V18.353H30.5882V9.1765Z" fill="#1D1D1F"/>
<path id="Vector_4" d="M6.11765 27.5294H42.8235V0H3.05882V42.8235H0V52H9.17647V42.8235H6.11765V27.5294ZM6.11765 3.05882H39.7647V24.4706H6.11765V3.05882ZM6.11765 48.9412H3.05882V45.8824H6.11765V48.9412Z" fill="#1D1D1F"/>
<path id="Vector_5" d="M21.4118 48.9413V30.5884H18.3529V52.0001H52V48.9413H21.4118Z" fill="#59A745"/>
<path id="Vector_6" d="M35.2888 38.7054L32.23 34.1171L24.8057 43.3975L27.1943 45.3083L32.0053 39.2945L35.0641 43.8827L41.1818 36.2357L44.3529 40.9925L51.7431 29.9071L49.1981 28.2104L44.3529 35.478L41.4065 31.0583L35.2888 38.7054Z" fill="#59A745"/>
</g>
</svg>
