<svg width="52" height="52" viewBox="0 0 52 52" fill="none" xmlns="http://www.w3.org/2000/svg">
<g id="Icon - Core and Extended Reference Data" clip-path="url(#clip0_85_9259)">
<path id="Vector" d="M20.3946 33.7148L26 30.7679L31.6054 33.7148L30.5346 27.4735L35.0692 23.0531L28.8025 22.1426L26 16.4639L23.1975 22.1426L16.9308 23.0531L21.4654 27.4735L20.3946 33.7148ZM25.2208 24.9273L26 23.3487L26.7792 24.9273L28.5216 25.1808L27.2608 26.4095L27.5583 28.1451L26 27.3259L24.4417 28.1451L24.7392 26.4095L23.4784 25.1808L25.2208 24.9273Z" fill="#59A745"/>
<path id="Vector_2" d="M45.8047 3.04688V0H42.7578V3.04688H36.6641V0H33.6172V3.04688H27.5234V0H24.4766V3.04688H18.3828V0H15.3359V3.04688H9.24219V0H6.19531V3.04688H0V52H52C52 51.6295 52 4.67108 52 3.04688H45.8047ZM3.04688 6.09375H6.19531V9.14062H9.24219V6.09375H15.3359V9.14062H18.3828V6.09375H24.4766V9.14062H27.5234V6.09375H33.6172V9.14062H36.6641V6.09375H42.7578V9.14062H45.8047V6.09375H48.9531V12.2891H3.04688V6.09375ZM48.9531 48.9531H3.04688V15.3359H48.9531V48.9531Z" fill="#1D1D1F"/>
<path id="Vector_3" d="M15.3359 21.4297H6.19531V30.5703H15.3359V21.4297ZM12.2891 27.5234H9.24219V24.4766H12.2891V27.5234Z" fill="#1D1D1F"/>
<path id="Vector_4" d="M15.3359 45.8047V36.6641H6.19531V45.8047H15.3359ZM9.24219 39.7109H12.2891V42.7578H9.24219V39.7109Z" fill="#1D1D1F"/>
<path id="Vector_5" d="M21.4297 45.8047H30.5703V36.6641H21.4297V45.8047ZM24.4766 39.7109H27.5234V42.7578H24.4766V39.7109Z" fill="#1D1D1F"/>
<path id="Vector_6" d="M45.8047 36.6641H36.6641V45.8047H45.8047V36.6641ZM42.7578 42.7578H39.7109V39.7109H42.7578V42.7578Z" fill="#1D1D1F"/>
<path id="Vector_7" d="M45.8047 21.4297H36.6641V30.5703H45.8047V21.4297ZM42.7578 27.5234H39.7109V24.4766H42.7578V27.5234Z" fill="#1D1D1F"/>
</g>
<defs>
<clipPath id="clip0_85_9259">
<rect width="52" height="52" fill="white"/>
</clipPath>
</defs>
</svg>
