<svg width="52" height="52" viewBox="0 0 52 52" fill="none" xmlns="http://www.w3.org/2000/svg">
<g id="Icon - Core and Extended Reference Data">
<path id="Vector" d="M49.4362 7.66624H46.0134V1.42187H24.294L23.4845 0H2.56384V43.7043H21.2012V47.4297C21.2012 49.9498 23.2514 52 25.7715 52H26.2285C28.7486 52 30.7988 49.9498 30.7988 47.4297V43.7043H49.4362V7.66624ZM42.9665 4.46875V7.66624H27.8486L26.0284 4.46875H42.9665ZM27.752 47.4297C27.752 48.2697 27.0685 48.9531 26.2285 48.9531H25.7715C24.9315 48.9531 24.248 48.2697 24.248 47.4297V40.4857H27.752V47.4297ZM46.3893 40.6574H30.7988V37.4388H27.5234V34.6456H27.4257C32.4839 33.9485 36.3923 29.5982 36.3923 24.3515C36.3923 18.6212 31.7304 13.9592 26 13.9592C20.2696 13.9592 15.6077 18.6212 15.6077 24.3515C15.6077 29.5983 19.5161 33.9486 24.5743 34.6456H24.4766V37.4388H21.2012V40.6574H5.61072V3.04687H21.713L26.0771 10.7131H46.3893V40.6574ZM26 31.6969C21.9497 31.6969 18.6546 28.4018 18.6546 24.3514C18.6546 20.3011 21.9497 17.006 26 17.006C30.0503 17.006 33.3454 20.3012 33.3454 24.3515C33.3454 28.4019 30.0503 31.6969 26 31.6969Z" fill="#1D1D1F"/>
<path id="Vector_2" fill-rule="evenodd" clip-rule="evenodd" d="M30.7988 43.7043V40.6574V37.4388H27.5234V34.6456H27.4257C32.4838 33.9485 36.3923 29.5982 36.3923 24.3515C36.3923 18.6212 31.7303 13.9592 26 13.9592C20.2696 13.9592 15.6077 18.6212 15.6077 24.3515C15.6077 29.5983 19.5161 33.9486 24.5742 34.6456H24.4765V37.4388H21.2011V40.6574V43.7043V47.4297C21.2011 49.9498 23.2514 52 25.7715 52H26.2285C28.7486 52 30.7988 49.9498 30.7988 47.4297V43.7043ZM26.2285 48.9531C27.0685 48.9531 27.7519 48.2697 27.7519 47.4297V40.4857H24.248V47.4297C24.248 48.2697 24.9314 48.9531 25.7715 48.9531H26.2285ZM18.6546 24.3514C18.6546 28.4018 21.9497 31.6969 26 31.6969C30.0503 31.6969 33.3454 28.4019 33.3454 24.3515C33.3454 20.3012 30.0503 17.006 26 17.006C21.9497 17.006 18.6546 20.3011 18.6546 24.3514Z" fill="#59A745"/>
</g>
</svg>
