<svg width="52" height="50" viewBox="0 0 52 50" fill="none" xmlns="http://www.w3.org/2000/svg">
<g id="Group">
<g id="Group_2">
<g id="Group_3">
<g id="Group_4">
<g id="Group_5">
<path id="Vector" d="M15.2088 49.7439H0C0 49.7439 11.4154 34.3458 12.426 33.1153C14.1172 31.0563 16.4967 29.7797 19.1279 29.5198L30.5292 28.2474C32.4542 28.0594 34.2138 29.083 35.0731 30.7224L44.5721 24.1434C45.5257 23.403 46.7077 23.077 47.9077 23.2255C49.148 23.3789 50.2547 24.0174 51.0238 25.0236C52.5806 27.0602 52.2383 29.9987 50.262 31.5779L36.5991 42.6932L19.4581 44.3821L15.2088 49.7439ZM6.04896 46.699H13.7367L17.874 41.4786L35.3885 39.753L48.4598 29.2987C49.1864 28.7183 49.3103 27.6612 48.7378 26.9284C48.1857 26.2217 47.1789 26.0666 46.4398 26.5744L35.4666 34.1537C35.3041 34.7761 35.016 35.3635 34.6144 35.8713C33.8411 36.849 32.7372 37.4551 31.505 37.5787L20.769 38.786L20.4289 35.7603L30.6353 34.5914C31.5369 34.4884 32.1854 33.6756 32.0854 32.7736C31.9851 31.8679 31.1684 31.2157 30.2629 31.3183L19.4344 32.549C17.6092 32.7275 15.9559 33.6148 14.7791 35.0476C14.1323 35.8352 9.48167 42.0763 6.04896 46.699Z" fill="#1D1D1F"/>
</g>
</g>
</g>
</g>
<g id="Group_6">
<g id="Group_7">
<g id="Group_8">
<path id="Vector_2" d="M16.0703 24.6144C13.1063 24.6144 10.6948 22.203 10.6948 19.2389C10.6948 16.2748 13.1063 13.8633 16.0703 13.8633C19.0343 13.8633 21.4458 16.2748 21.4458 19.2389C21.4458 22.203 19.0343 24.6144 16.0703 24.6144ZM16.0703 16.908C14.7852 16.908 13.7397 17.9536 13.7397 19.2388C13.7397 20.524 14.7853 21.5694 16.0703 21.5694C17.3555 21.5694 18.401 20.5239 18.401 19.2388C18.401 17.9536 17.3554 16.908 16.0703 16.908Z" fill="#1D1D1F"/>
</g>
</g>
</g>
<g id="Group_9">
<g id="Group_10">
<g id="Group_11">
<path id="Vector_3" d="M5.65864 15.9171C2.69464 15.9171 0.283142 13.5057 0.283142 10.5416C0.283142 7.57752 2.69464 5.16602 5.65864 5.16602C8.62264 5.16602 11.0341 7.57752 11.0341 10.5416C11.0341 13.5057 8.62274 15.9171 5.65864 15.9171ZM5.65864 8.21086C4.37347 8.21086 3.32799 9.25645 3.32799 10.5416C3.32799 11.8268 4.37357 12.8723 5.65864 12.8723C6.94371 12.8723 7.9893 11.8267 7.9893 10.5416C7.9894 9.25645 6.94381 8.21086 5.65864 8.21086Z" fill="#59A745"/>
</g>
</g>
</g>
<g id="Group_12">
<g id="Group_13">
<g id="Group_14">
<path id="Vector_4" d="M34.4031 15.1056V16.3586H32.8114V15.162C31.6825 15.0943 30.5877 14.7895 29.9103 14.3718L30.7681 12.4303C31.5132 12.8704 32.5065 13.1527 33.3757 13.1527C34.1321 13.1527 34.403 12.9947 34.403 12.7237C34.403 11.7303 30.0343 12.5318 30.0343 9.5855C30.0343 8.30998 30.96 7.23758 32.8113 6.97789V5.74756H34.403V6.95544C35.2383 7.03446 36.051 7.24896 36.6945 7.61011L35.8931 9.54041C35.1141 9.14533 34.3804 8.95338 33.6918 8.95338C32.9128 8.95338 32.6646 9.17915 32.6646 9.45012C32.6646 10.3983 37.0332 9.60815 37.0332 12.5206C37.0333 13.7398 36.1528 14.8008 34.4031 15.1056Z" fill="#59A745"/>
</g>
</g>
</g>
<g id="Group_15">
<g id="Group_16">
<g id="Group_17">
<path id="Vector_5" d="M33.4785 21.9574C27.4954 21.9574 22.6278 17.0898 22.6278 11.1067C22.6278 5.12355 27.4954 0.255859 33.4785 0.255859C39.4617 0.255859 44.3293 5.12345 44.3293 11.1066C44.3293 17.0897 39.4617 21.9574 33.4785 21.9574ZM33.4785 3.3007C29.1743 3.3007 25.6727 6.80248 25.6727 11.1067C25.6727 15.4109 29.1744 18.9126 33.4785 18.9126C37.7827 18.9126 41.2845 15.4108 41.2845 11.1067C41.2845 6.80258 37.7828 3.3007 33.4785 3.3007Z" fill="#59A745"/>
</g>
</g>
</g>
</g>
</svg>
