<svg width="52" height="52" viewBox="0 0 52 52" fill="none" xmlns="http://www.w3.org/2000/svg">
<g id="Group">
<path id="Vector" d="M42.8955 25.672V0H0V44.3828C0 48.5829 3.41707 52 7.61719 52H45.9062C49.2663 52 52 49.2663 52 45.9062V25.672H42.8955ZM3.04688 44.3828V3.04688H39.8487V45.9425C39.8487 47.038 40.1425 48.0655 40.6531 48.9531H7.61719C5.09712 48.9531 3.04688 46.9029 3.04688 44.3828ZM48.9531 45.9062C48.9531 47.5863 47.5863 48.9531 45.9062 48.9531C44.2461 48.9531 42.8955 47.6025 42.8955 45.9425V28.7188H48.9531V45.9062Z" fill="#1D1D1F"/>
<path id="Vector_2" d="M6.09375 18.2749H36.8018V6.0874H6.09375V18.2749ZM9.14062 9.13428H33.7549V15.228H9.14062V9.13428Z" fill="#1D1D1F"/>
<path id="Vector_3" d="M19.9244 36.5562H36.8019V21.3218H19.9244V36.5562ZM22.9713 24.3687H33.755V33.5093H22.9713V24.3687Z" fill="#59A745"/>
<path id="Vector_4" d="M6.09375 21.3218H16.8776V24.3687H6.09375V21.3218Z" fill="#59A745"/>
<path id="Vector_5" d="M6.09375 33.5093H16.8776V36.5562H6.09375V33.5093Z" fill="#59A745"/>
<path id="Vector_6" d="M6.09375 39.603H36.8018V42.6499H6.09375V39.603Z" fill="#1D1D1F"/>
<path id="Vector_7" d="M6.09375 27.4155H16.8776V30.4624H6.09375V27.4155Z" fill="#59A745"/>
</g>
</svg>
