<svg width="52" height="52" viewBox="0 0 52 52" fill="none" xmlns="http://www.w3.org/2000/svg">
<g id="Group 47281">
<path id="Vector" d="M30.2408 30.7913C29.7544 30.3369 28.3164 29.5501 26.7939 28.7171C25.7647 28.1541 24.7005 27.5718 24.0688 27.1612C23.5806 26.844 23.2892 26.3031 23.2892 25.7143C23.2892 24.7669 24.0483 23.9961 24.9813 23.9961H25.737C26.8489 23.9961 27.7535 24.9146 27.7535 26.0436V26.5416H31.4834L31.4777 25.1844C31.4725 23.9799 30.5032 23 29.317 23H24.9813C23.5073 23 22.3082 24.2176 22.3082 25.7143C22.3082 26.6444 22.7686 27.499 23.54 28.0002C24.0531 28.3337 24.8165 28.7632 25.62 29.2056L25.2108 29.3401C25.0955 29.3748 24.1084 29.6869 23.119 30.48C21.7327 31.5913 21 33.1165 21 34.8908V35.5776C21 38.0161 22.9539 40 25.3554 40H27.6446C30.0462 40 32 38.0161 32 35.5776V34.8909C32 33.2843 31.3917 31.8668 30.2408 30.7913ZM29.317 23.9961C29.9647 23.9961 30.4939 24.5311 30.4967 25.1888L30.4982 25.5456H28.6944C28.5983 24.9546 28.3338 24.4207 27.953 23.9961H29.317ZM21.981 35.5776V34.8909C21.981 33.3704 22.6088 32.0866 23.8497 31.1664C23.6526 31.6261 23.5512 32.1304 23.5512 32.6692V37.0058C23.5512 37.6622 23.7605 38.2699 24.1146 38.7639C22.8662 38.2609 21.981 37.0222 21.981 35.5776ZM28.4679 37.0058C28.4679 38.1076 27.5851 39.0039 26.5 39.0039C25.415 39.0039 24.5322 38.1076 24.5322 37.0058V32.6692C24.5322 30.862 26.0301 30.1471 26.5 29.9672C26.97 30.147 28.4679 30.862 28.4679 32.6692V37.0058ZM31.019 35.5776C31.019 37.0223 30.1339 38.2609 28.8854 38.7639C29.2396 38.2699 29.4488 37.6622 29.4488 37.0058V32.6692C29.4488 32.1533 29.3561 31.669 29.1752 31.2252C29.3526 31.3427 29.4909 31.4443 29.5765 31.5243C30.5337 32.4187 31.019 33.5514 31.019 34.8909V35.5776Z" fill="#1D1D1F" stroke="black" stroke-width="0.5"/>
<path id="Vector 3045 (Stroke)" fill-rule="evenodd" clip-rule="evenodd" d="M22.7465 13.2134C22.0481 14.5691 20.7394 16.2498 18.4167 16.2498C17.6026 16.2498 16.8157 16.0959 16.1033 15.7196C15.3813 15.3381 14.8696 14.7987 14.5088 14.234C13.951 13.3609 13.6893 12.2675 13.5287 11.5967C13.5079 11.5098 13.4888 11.43 13.471 11.3586C13.2605 10.5167 13.1154 10.1857 12.9663 10.0126L12.9626 10.0081C12.9282 9.96556 12.76 9.75801 11.9643 9.75003C11.9065 9.77866 11.5872 9.95771 11.0408 10.8843C10.373 12.0167 9.76177 13.5883 9.06395 15.4026C9.05027 15.4382 9.03654 15.4739 9.02278 15.5096C8.37655 17.1902 7.64608 19.0898 6.77519 20.5666C5.97006 21.9318 4.53129 23.8331 2.16671 23.8331L2.16663 20.7998C2.12851 20.7998 2.10945 20.8044 2.10945 20.8044C2.10857 20.8016 2.43521 20.6951 3.04252 19.6653C3.71038 18.5329 4.32157 16.9613 5.01938 15.147C5.03307 15.1114 5.04679 15.0757 5.06055 15.04C5.70679 13.3594 6.43726 11.4598 7.30815 9.98302C8.11327 8.61781 9.55204 6.71647 11.9166 6.71647C13.7535 6.71647 15.2258 7.29578 16.2499 8.48496C17.1503 9.5306 17.4791 10.8246 17.6749 11.6076C17.6832 11.641 17.6913 11.6736 17.6993 11.7055C17.9292 12.6255 18.0152 12.9696 18.1563 13.1945C18.199 13.204 18.2789 13.216 18.4089 13.2165C18.4138 13.2129 18.4198 13.2082 18.4271 13.2022C18.5115 13.1324 18.6793 12.946 18.8942 12.5289C19.3433 11.6571 19.6924 10.415 20.118 8.85472C20.1294 8.81288 20.1409 8.77077 20.1524 8.72839C20.5325 7.33373 20.989 5.65864 21.6702 4.33621C22.3686 2.98054 23.6772 1.2998 26 1.2998C27.3552 1.2998 28.374 2.00407 29.0564 2.77226C29.7146 3.51312 30.194 4.45022 30.5633 5.35932C31.3044 7.18351 31.8466 9.53108 32.3145 11.6701C32.3851 11.9931 32.4541 12.3114 32.5219 12.6242C32.9246 14.4819 33.2852 16.1456 33.6985 17.4257C33.8073 17.7625 33.9092 18.0378 34.0018 18.2587C34.2563 17.9566 34.4826 17.6062 34.7946 17.1232C34.9408 16.8968 35.1058 16.6413 35.3014 16.348C36.4719 14.5921 38.3914 12.1331 42.25 12.1331C44.907 12.1331 46.3407 14.101 47.1097 15.7572C47.8036 17.2518 48.2735 19.1494 48.6871 20.8199C48.7322 21.0021 48.7767 21.1816 48.8207 21.3576C49.3069 23.3024 49.756 24.9111 50.3869 26.0387C50.9686 27.0785 51.4537 27.2998 52 27.2998L52 30.3331C49.2963 30.3331 47.6147 28.6586 46.6053 26.8546C45.6451 25.1385 45.0785 22.9555 44.6168 21.1086C44.5773 20.9507 44.5386 20.7951 44.5004 20.6418C44.0543 18.8508 43.6866 17.3745 43.1794 16.282C42.6522 15.1465 42.3304 15.1626 42.2584 15.1662C42.2551 15.1663 42.25 15.1665 42.25 15.1665C40.6919 15.1665 39.9031 15.9575 38.907 17.4516C38.8129 17.5928 38.709 17.7541 38.597 17.9279C38.1969 18.5491 37.6937 19.3303 37.1663 19.9236C36.4035 20.7818 35.2525 21.6665 33.5834 21.6665C32.0929 21.6665 31.1695 20.6543 30.7056 19.9661C30.2138 19.2366 29.8561 18.3279 29.5749 17.4573C29.0893 15.9534 28.6751 14.0383 28.2784 12.2039C28.2123 11.8983 28.1467 11.595 28.0813 11.2961C27.6013 9.10185 27.1279 7.11609 26.5487 5.69028C26.2962 5.06874 26.0692 4.67246 25.8934 4.44329C25.8015 4.5481 25.6736 4.7273 25.5225 5.02068C25.0734 5.89245 24.7242 7.13459 24.2987 8.69488C24.2873 8.73672 24.2758 8.77883 24.2643 8.8212C23.8842 10.2159 23.4277 11.891 22.7465 13.2134ZM34.3571 18.9221C34.3571 18.9221 34.3529 18.9182 34.3448 18.9079C34.353 18.9165 34.3571 18.9221 34.3571 18.9221ZM18.1164 13.1829C18.1164 13.1829 18.1178 13.1834 18.1204 13.1846Z" fill="#59A745"/>
<path id="Vector 3044 (Stroke)" fill-rule="evenodd" clip-rule="evenodd" d="M0 0H3.9V48.1H52V52H0V0Z" fill="#1D1D1F"/>
</g>
</svg>
