<svg width="52" height="52" viewBox="0 0 52 52" fill="none" xmlns="http://www.w3.org/2000/svg">
<g id="Group">
<g id="Group_2">
<path id="Vector" d="M0 42.5547H3.04688V45.6016H0V42.5547Z" fill="#1D1D1F"/>
<path id="Vector_2" d="M0 36.4756H3.04688V39.5225H0V36.4756Z" fill="#1D1D1F"/>
<path id="Vector_3" d="M0 30.396H3.04688V33.4429H0V30.396Z" fill="#1D1D1F"/>
<path id="Vector_4" d="M0 24.3169H3.04688V27.3638H0V24.3169Z" fill="#1D1D1F"/>
<path id="Vector_5" d="M0 18.2378H3.04688V21.2847H0V18.2378Z" fill="#1D1D1F"/>
<path id="Vector_6" d="M0 12.1587H3.04688V15.2056H0V12.1587Z" fill="#1D1D1F"/>
<path id="Vector_7" d="M0 6.0791H3.04688V9.12598H0V6.0791Z" fill="#1D1D1F"/>
<path id="Vector_8" d="M0 0H3.04688V3.04688H0V0Z" fill="#1D1D1F"/>
<path id="Vector_9" d="M48.9437 48.9531H51.9905V52H48.9437V48.9531Z" fill="#1D1D1F"/>
<path id="Vector_10" d="M42.8499 48.9531H45.8968V52H42.8499V48.9531Z" fill="#1D1D1F"/>
<path id="Vector_11" d="M36.7562 48.9531H39.803V52H36.7562V48.9531Z" fill="#1D1D1F"/>
<path id="Vector_12" d="M30.6624 48.9531H33.7093V52H30.6624V48.9531Z" fill="#1D1D1F"/>
<path id="Vector_13" d="M24.5687 48.9531H27.6155V52H24.5687V48.9531Z" fill="#1D1D1F"/>
<path id="Vector_14" d="M18.4749 48.9531H21.5218V52H18.4749V48.9531Z" fill="#1D1D1F"/>
<path id="Vector_15" d="M12.3812 48.9531H15.428V52H12.3812V48.9531Z" fill="#1D1D1F"/>
<path id="Vector_16" d="M6.28741 48.9531H9.33429V52H6.28741V48.9531Z" fill="#1D1D1F"/>
</g>
<path id="Vector_17" d="M39.5999 42.7578V24.191L46.7813 31.3508H42.3373V34.3977H51.9906V24.7445H48.9437V29.2041L40.2971 20.5835H30.4376L18.0456 6.07923H9.14062V0H6.09375V45.8047H52V42.7578H39.5999ZM9.14062 9.1261H16.6412L29.0334 23.6304H36.5532V42.7578H9.14062V9.1261Z" fill="#1D1D1F"/>
<path id="Vector_18" fill-rule="evenodd" clip-rule="evenodd" d="M39.5999 24.191V42.7578H36.5532V23.6304H29.0334L16.6412 9.1261H9.14062V6.07923H18.0456L30.4376 20.5835H40.2971L48.9437 29.2041V24.7445H51.9906V34.3977H42.3373V31.3508H46.7813L39.5999 24.191Z" fill="#59A745"/>
</g>
</svg>
