<svg width="52" height="52" viewBox="0 0 52 52" fill="none" xmlns="http://www.w3.org/2000/svg">
<g id="Group">
<path id="Vector" d="M0 25.9964C0 31.7237 1.91654 37.2165 5.54231 41.8808L6.60186 43.2437L15.2546 34.5909C14.9602 34.0051 12.2906 31.0409 12.2906 25.9963C12.2906 19.5058 16.9041 13.8545 23.2605 12.559L24.4799 12.3106V0L22.7677 0.213514C9.65565 1.84859 0 13.3778 0 25.9964ZM21.4326 9.86987C14.2993 11.8932 9.24345 18.485 9.24345 25.9964C9.24345 28.8749 9.97592 31.6742 11.3717 34.1645L6.93208 38.6041C4.38515 34.8026 3.04729 30.4773 3.04729 25.9964C3.04729 15.8465 10.3592 5.7737 21.4326 3.5181V9.86987Z" fill="#1D1D1F"/>
<path id="Vector_2" d="M39.441 28.7393C38.1453 35.0957 32.494 39.7092 26.0036 39.7092C20.9334 39.7092 18.0106 37.0477 17.409 36.7453L8.75623 45.3981L10.1192 46.4576C14.7836 50.0834 20.2763 51.9999 26.0036 51.9999C39.1631 51.9999 50.1869 42.0606 51.7865 29.2322L52 27.52H39.6895L39.441 28.7393ZM48.4835 30.5673C46.3418 41.1622 36.9669 48.9526 26.0036 48.9526C21.5228 48.9526 17.1974 47.6148 13.3958 45.068L17.8355 40.6284C20.3259 42.024 23.1252 42.7566 26.0036 42.7566C33.515 42.7566 40.1068 37.7007 42.1302 30.5674H48.4835V30.5673Z" fill="#1D1D1F"/>
<path id="Vector_3" d="M24.4799 15.3311V18.6404C22.7065 19.2694 21.4326 20.963 21.4326 22.9493C21.4326 25.4697 23.4831 27.5202 26.0036 27.5202C26.8437 27.5202 27.5272 28.2037 27.5272 29.0439C27.5272 29.884 26.8437 30.5675 26.0036 30.5675C25.1634 30.5675 24.4799 29.884 24.4799 29.0439H21.4326C21.4326 31.0302 22.7066 32.7239 24.4801 33.3527L24.4799 36.662L27.5262 36.6611L27.5264 33.3525C29.2997 32.7236 30.5745 31.0301 30.5745 29.0439C30.5745 26.5235 28.524 24.4729 26.0036 24.4729C25.1634 24.4729 24.4799 23.7894 24.4799 22.9493C24.4799 22.1091 25.1634 21.4256 26.0036 21.4256C26.8437 21.4256 27.5272 22.1091 27.5272 22.9493H30.5745C30.5745 20.963 29.3006 19.2694 27.5272 18.6404V15.3311H24.4799Z" fill="#59A745"/>
<path id="Vector_4" d="M51.7865 22.7605C50.3336 11.11 41.0128 1.6816 29.2394 0.213514L27.5272 0V12.3106L28.7465 12.5591C34.1432 13.6591 38.3409 17.8568 39.4409 23.2535L39.6895 24.4728H52L51.7865 22.7605ZM42.1304 21.4255C40.5516 15.8526 36.1479 11.4489 30.5745 9.86967V3.51627C39.6032 5.33764 46.6623 12.3967 48.4838 21.4255H42.1304Z" fill="#59A745"/>
</g>
</svg>
