<svg width="48" height="48" viewBox="0 0 48 48" fill="none" xmlns="http://www.w3.org/2000/svg">
<g id="Icon - Contact" clip-path="url(#clip0_85_14388)">
<path id="Vector" d="M21.6312 36.5586C17.8777 34.7511 13.2641 30.0967 11.4405 26.2762L14.2081 22.1247L10.8565 12.0938H4.21875C1.89253 12.0938 0 13.9773 0 16.2925C0 32.6108 15.3127 48 31.6137 48C33.929 48 35.8125 46.1075 35.8125 43.7812V37.1435L25.7814 33.7919L21.6312 36.5586ZM33 39.169V43.7812C33 44.5698 32.3911 45.1875 31.6137 45.1875C16.8094 45.1875 2.8125 31.1451 2.8125 16.2925C2.8125 15.5152 3.43022 14.9062 4.21875 14.9062H8.83097L11.1044 21.7103L8.26341 25.9718C8.27006 25.9811 12.2776 35.8739 21.2478 39.462L21.9346 39.7367L26.1961 36.8957L33 39.169Z" fill="#1D1D1F"/>
<path id="Vector_2" d="M32.4375 0C24.3334 0 16.9688 5.28994 16.9688 12.6562C16.9688 16.3185 18.8868 19.7285 22.2669 22.1401C21.8912 23.5073 21.1851 24.7325 20.1967 25.721L17.8043 28.1133L22.5938 28.125C25.2686 28.125 27.8003 27.0254 29.6601 25.0814C30.6416 25.2366 31.5565 25.3125 32.4375 25.3125C41.0187 25.3125 48 19.6349 48 12.6562C48 5.67759 41.0187 0 32.4375 0ZM32.4375 22.5C30.6447 22.5 29.1289 22.1106 28.5658 22.0182C28.2689 22.2987 27.0155 24.4982 24.0806 25.1498C25.1756 23.0925 25.2584 21.3711 25.3864 20.8061C25.148 20.5854 19.7812 18.0415 19.7812 12.6562C19.7812 7.22841 25.4588 2.8125 32.4375 2.8125C40.1752 2.8125 45.1875 7.85063 45.1875 12.6562C45.1875 17.4883 40.137 22.5 32.4375 22.5Z" fill="#59A745"/>
<path id="Vector_3" d="M25.4062 11.25H28.2188V14.0625H25.4062V11.25Z" fill="#59A745"/>
<path id="Vector_4" d="M31.0312 11.25H33.8438V14.0625H31.0312V11.25Z" fill="#59A745"/>
<path id="Vector_5" d="M36.6562 11.25H39.4688V14.0625H36.6562V11.25Z" fill="#59A745"/>
</g>
<defs>
<clipPath id="clip0_85_14388">
<rect width="48" height="48" fill="white"/>
</clipPath>
</defs>
</svg>
