<svg width="48" height="48" viewBox="0 0 48 48" fill="none" xmlns="http://www.w3.org/2000/svg">
<g id="Group">
<path id="Vector" fill-rule="evenodd" clip-rule="evenodd" d="M31.6617 6.55368C40.7948 7.56609 48 15.3027 48 24.7217C48 29.3762 46.1238 33.937 42.8237 37.3715L46.095 47.1854L35.678 41.9768C33.7373 42.6581 31.7044 43.003 29.6249 43.003C24.5885 43.003 19.7739 40.9177 16.3257 37.2639C16.9186 37.3408 18.5939 37.4453 20.5522 37.2478C23.17 39.1426 26.3418 40.1905 29.625 40.1905C31.5665 40.1905 33.459 39.8359 35.25 39.1364L35.8318 38.9091L41.2799 41.6331L39.5962 36.582L40.248 35.9661C43.3871 32.9993 45.1875 28.9009 45.1875 24.7217C45.1875 17.8613 40.5663 11.9031 34.1915 9.93806C33.6333 9.09264 32.3458 7.23218 31.6617 6.55368Z" fill="#050505"/>
<path id="Vector_2" fill-rule="evenodd" clip-rule="evenodd" d="M16.3257 37.2639C16.9186 37.3408 18.5939 37.4453 20.5522 37.2478C29.6098 36.168 36.6562 28.4404 36.6562 19.0967C36.6562 15.7616 35.7579 12.6327 34.1915 9.93806C33.6333 9.09264 32.3458 7.23218 31.6617 6.55368C28.3266 3.02268 23.6039 0.81543 18.375 0.81543C8.24297 0.81543 0 9.0164 0 19.0967C0 23.7512 1.87622 28.312 5.17613 31.7464L1.90481 41.5603L12.3218 36.3517C13.6197 36.8074 14.959 37.1117 16.3257 37.2639ZM6.72019 36.0081L12.1682 33.2841L12.75 33.5113C14.541 34.2108 16.4335 34.5654 18.375 34.5654C26.9045 34.5654 33.8438 27.6261 33.8438 19.0967C33.8438 10.5672 26.9045 3.62793 18.375 3.62793C9.79378 3.62793 2.8125 10.5672 2.8125 19.0967C2.8125 23.2759 4.61288 27.3743 7.75209 30.3411L8.40384 30.9571L6.72019 36.0081Z" fill="#59A745"/>
<path id="Vector_3" d="M10.7584 24.7207L23.9951 11.4839L25.9836 13.4724L12.7468 26.7091L10.7584 24.7207Z" fill="#59A745"/>
<path id="Vector_4" d="M19.7812 24.7217C19.7812 27.0479 21.6738 28.9404 24 28.9404C26.3262 28.9404 28.2188 27.0479 28.2188 24.7217C28.2188 22.3955 26.3262 20.5029 24 20.5029C21.6738 20.5029 19.7812 22.3955 19.7812 24.7217ZM25.4062 24.7217C25.4062 25.4971 24.7754 26.1279 24 26.1279C23.2246 26.1279 22.5938 25.4971 22.5938 24.7217C22.5938 23.9463 23.2246 23.3154 24 23.3154C24.7754 23.3154 25.4062 23.9463 25.4062 24.7217Z" fill="#59A745"/>
<path id="Vector_5" d="M16.9688 13.4717C16.9688 11.1455 15.0762 9.25293 12.75 9.25293C10.4238 9.25293 8.53125 11.1455 8.53125 13.4717C8.53125 15.7979 10.4238 17.6904 12.75 17.6904C15.0762 17.6904 16.9688 15.7979 16.9688 13.4717ZM11.3438 13.4717C11.3438 12.6963 11.9746 12.0654 12.75 12.0654C13.5254 12.0654 14.1562 12.6963 14.1562 13.4717C14.1562 14.2471 13.5254 14.8779 12.75 14.8779C11.9746 14.8779 11.3438 14.2471 11.3438 13.4717Z" fill="#59A745"/>
</g>
</svg>
