<svg width="48" height="44" viewBox="0 0 48 44" fill="none" xmlns="http://www.w3.org/2000/svg">
<g id="Group">
<path id="Vector" d="M22.5938 18.8965H25.4062V21.709H22.5938V18.8965Z" fill="#59A745"/>
<path id="Vector_2" d="M24 10.4121C24.7819 10.4121 25.418 11.0482 25.418 11.8301C25.418 12.612 24.7819 13.248 24 13.248H22.5938V16.9578H25.4062V15.8203C27.0497 15.2394 28.2305 13.67 28.2305 11.8301C28.2305 9.49739 26.3327 7.59961 24 7.59961C21.6673 7.59961 19.7695 9.49739 19.7695 11.8301H22.582C22.582 11.0482 23.2181 10.4121 24 10.4121Z" fill="#59A745"/>
<path id="Vector_3" fill-rule="evenodd" clip-rule="evenodd" d="M42.3516 0.824219V12.4593V15.6037V20.2664L39.5391 22.1914V3.63672H8.46094V22.1914L5.64844 20.2664V15.6037V12.4593V0.824219H42.3516Z" fill="#59A745"/>
<path id="Vector_4" fill-rule="evenodd" clip-rule="evenodd" d="M0 15.2835L5.64844 12.4593V15.6037L2.8125 17.0217V18.3254L5.64844 20.2664L8.46094 22.1914L17.9911 28.7143L24 24.6016L30.0089 28.7143L39.5391 22.1914L42.3516 20.2664L45.1875 18.3254V17.0217L42.3516 15.6037V12.4593L48 15.2835V43.1761H0V15.2835ZM2.8125 39.1031L15.5013 30.4184L2.8125 21.7337V39.1031ZM42.0493 40.3636L24 28.0098L5.95069 40.3636H42.0493ZM45.1875 21.7337L32.4987 30.4184L45.1875 39.1031V21.7337Z" fill="#050505"/>
</g>
</svg>
