<svg width="65" height="56" viewBox="0 0 65 56" fill="none" xmlns="http://www.w3.org/2000/svg">
<g id="Group">
<path id="Vector" d="M34.6826 26.112H63.55C64.2403 26.112 64.8 25.5522 64.8 24.862V6.03545C64.8 5.3452 64.2403 4.78545 63.55 4.78545H50.2616L46.8625 1.3862C46.6281 1.15183 46.3101 1.02008 45.9786 1.02008H34.6828C33.9925 1.02008 33.4328 1.5797 33.4328 2.27008V12.316H28.4073C27.717 12.316 27.1573 12.8756 27.1573 13.566V26.7497H23.3818C23.3818 22.4827 23.3818 10.797 23.3818 5.40795C23.3818 2.11533 17.7018 0.392578 12.0909 0.392578C6.48 0.392578 0.800003 2.11533 0.800003 5.40795V50.5916C0.800003 53.8842 6.47988 55.607 12.0908 55.607C17.7016 55.607 23.3816 53.8842 23.3816 50.5916C23.3816 48.2443 23.3816 31.3402 23.3816 29.2498H27.1571V42.4336C27.1571 43.1238 27.7169 43.6836 28.4071 43.6836H33.4326V53.7295C33.4326 54.4197 33.9924 54.9795 34.6826 54.9795H63.55C64.2403 54.9795 64.8 54.4197 64.8 53.7295V34.9028C64.8 34.2125 64.2403 33.6528 63.55 33.6528H50.2616L46.8625 30.2535C46.6281 30.0191 46.3101 29.8873 45.9786 29.8873H34.6828C33.9925 29.8873 33.4328 30.4471 33.4328 31.1373V41.1833H29.6573V14.816H33.4328V24.862C33.4326 25.5523 33.9924 26.112 34.6826 26.112ZM20.8816 43.061C20.8816 43.791 17.801 45.5762 12.0908 45.5762C6.3805 45.5762 3.3 43.791 3.3 43.061V38.7943C7.69063 41.1263 16.4874 41.1283 20.8816 38.7943V43.061ZM20.8816 12.9385C20.8816 13.6685 17.801 15.4538 12.0908 15.4538C6.3805 15.4538 3.3 13.6685 3.3 12.9385V8.67195C7.69063 11.004 16.4874 11.006 20.8816 8.67195V12.9385ZM20.8816 16.2025V20.4691C20.8816 21.1991 17.801 22.9845 12.0908 22.9845C6.3805 22.9845 3.3 21.1991 3.3 20.4691V16.2026C7.691 18.5347 16.4874 18.5365 20.8816 16.2025ZM20.8816 23.7331V27.9997C20.8816 28.7297 17.801 30.515 12.0908 30.515C6.3805 30.515 3.3 28.7297 3.3 27.9997V23.7332C7.691 26.0653 16.4874 26.0671 20.8816 23.7331ZM20.8816 31.2637V35.5303C20.8816 36.2603 17.801 38.0456 12.0908 38.0456C6.3805 38.0456 3.3 36.2603 3.3 35.5303V31.2637C7.69063 33.5957 16.4874 33.5977 20.8816 31.2637ZM12.0908 2.89258C17.8011 2.89258 20.8816 4.67795 20.8816 5.40795C20.8816 6.13795 17.801 7.9232 12.0908 7.9232C6.3805 7.9232 3.3 6.13783 3.3 5.40795C3.3 4.67795 6.3805 2.89258 12.0908 2.89258ZM12.0908 53.1068C6.3805 53.1068 3.3 51.3215 3.3 50.5915V46.325C7.69063 48.657 16.4874 48.6588 20.8816 46.325V50.5915C20.8816 51.3215 17.8011 53.1068 12.0908 53.1068ZM35.9326 32.3875H45.4608L48.8599 35.7867C49.0944 36.0211 49.4123 36.1528 49.7438 36.1528H62.3V52.4793H35.9326V32.3875ZM35.9326 3.52008H45.4608L48.8599 6.91933C49.0944 7.1537 49.4123 7.28545 49.7438 7.28545H62.3V23.612H35.9326V3.52008Z" fill="#59A745"/>
<path id="Vector_2" d="M40.9583 19.8369H57.2745C57.9648 19.8369 58.5245 19.2772 58.5245 18.5869C58.5245 17.8967 57.9648 17.3369 57.2745 17.3369H40.9583C40.268 17.3369 39.7083 17.8967 39.7083 18.5869C39.7083 19.2773 40.2679 19.8369 40.9583 19.8369Z" fill="#59A745"/>
<path id="Vector_3" d="M40.9583 13.5605H57.2745C57.9648 13.5605 58.5245 13.0008 58.5245 12.3105C58.5245 11.6203 57.9648 11.0605 57.2745 11.0605H40.9583C40.268 11.0605 39.7083 11.6203 39.7083 12.3105C39.7083 13.0009 40.2679 13.5605 40.9583 13.5605Z" fill="#59A745"/>
<path id="Vector_4" d="M40.9583 48.7041H57.2745C57.9648 48.7041 58.5245 48.1444 58.5245 47.4541C58.5245 46.7639 57.9648 46.2041 57.2745 46.2041H40.9583C40.268 46.2041 39.7083 46.7639 39.7083 47.4541C39.7083 48.1444 40.2679 48.7041 40.9583 48.7041Z" fill="#59A745"/>
<path id="Vector_5" d="M40.9583 42.4287H57.2745C57.9648 42.4287 58.5245 41.869 58.5245 41.1787C58.5245 40.4885 57.9648 39.9287 57.2745 39.9287H40.9583C40.268 39.9287 39.7083 40.4885 39.7083 41.1787C39.7083 41.869 40.2679 42.4287 40.9583 42.4287Z" fill="#59A745"/>
</g>
</svg>
