<svg width="65" height="48" viewBox="0 0 65 48" fill="none" xmlns="http://www.w3.org/2000/svg">
<g id="Group 47283">
<g id="Vector">
<path d="M18.5334 38.8071V42.4111H13.1001V38.8071L18.5334 38.8071Z" fill="#59A745"/>
<path d="M46.9111 9.22374V5.58988H51.6001V9.22374H46.9111Z" fill="#59A745"/>
<path fill-rule="evenodd" clip-rule="evenodd" d="M35.6277 22.1255L33.6182 17.4674L35.7242 12.8093C37.7375 8.35613 42.0241 5.58988 46.9111 5.58988V9.22374L45.0362 9.54176C42.4462 10.1098 40.2749 11.8468 39.1412 14.3543L35.6277 22.1255ZM29.7202 35.1918L31.8262 30.5336L29.8167 25.8755L26.3032 33.6468C25.1696 36.1541 22.9982 37.8913 20.4082 38.4593L18.5334 38.8071V42.4111C23.4204 42.4111 27.707 39.6449 29.7202 35.1918Z" fill="#59A745"/>
</g>
<g id="Vector_2">
<path fill-rule="evenodd" clip-rule="evenodd" d="M33.9322 22.1255L29.7202 12.8092C27.707 8.35609 23.4204 5.58984 18.5334 5.58984V9.19389L20.4082 9.54172C22.9982 10.1097 25.1696 11.8468 26.3032 14.3542L29.8167 22.1255L31.5122 25.8755L35.7242 35.1917C37.7375 39.6448 42.0241 42.4111 46.9111 42.4111V38.7772L45.0362 38.4592C42.4462 37.8912 40.2749 36.1542 39.1412 33.6467L35.6277 25.8755L33.9322 22.1255Z" fill="#59A745"/>
<path d="M18.5334 9.19389V5.58984H13.6001V9.19389H18.5334Z" fill="#59A745"/>
<path d="M46.9111 38.7772V42.4111H51.1001V38.7772H46.9111Z" fill="#59A745"/>
</g>
<path id="Rectangle 34624261 (Stroke)" fill-rule="evenodd" clip-rule="evenodd" d="M12.1001 3.5H4.1001V11.5H12.1001V3.5ZM0.600098 0V15H15.6001V0H0.600098Z" fill="#59A745"/>
<path id="Rectangle 34624262 (Stroke)" fill-rule="evenodd" clip-rule="evenodd" d="M12.1001 36.5H4.1001V44.5H12.1001V36.5ZM0.600098 33V48H15.6001V33H0.600098Z" fill="#59A745"/>
<path id="Rectangle 34624263 (Stroke)" fill-rule="evenodd" clip-rule="evenodd" d="M61.1001 3.5H53.1001V11.5H61.1001V3.5ZM49.6001 0V15H64.6001V0H49.6001Z" fill="#59A745"/>
<path id="Rectangle 34624264 (Stroke)" fill-rule="evenodd" clip-rule="evenodd" d="M61.1001 36.5H53.1001V44.5H61.1001V36.5ZM49.6001 33V48H64.6001V33H49.6001Z" fill="#59A745"/>
</g>
</svg>
