<svg width="65" height="64" viewBox="0 0 65 64" fill="none" xmlns="http://www.w3.org/2000/svg">
<g id="Group">
<path id="Vector" d="M0.400024 64H64.4V0H0.400024V64ZM4.15002 60.25V15H60.65V60.25H4.15002ZM60.65 3.75V11.25H56.775V7.5H53.025V11.25H49.275V7.5H45.525V11.25H41.775V7.5H38.025V11.25H4.15002V3.75H60.65Z" fill="#59A745"/>
<path id="Vector_2" d="M44.2934 41.3667L42.9078 39.9811C44.5508 37.7894 45.525 35.0689 45.525 32.125C45.525 24.8879 39.6371 19 32.4 19C25.1629 19 19.275 24.8879 19.275 32.125C19.275 39.3621 25.1629 45.25 32.4 45.25C35.3438 45.25 38.0643 44.2758 40.2561 42.6328L41.6418 44.0184L38.9902 46.67L49.5968 57.2766L57.5518 49.3216L46.9451 38.715L44.2934 41.3667ZM32.4 41.5C27.2306 41.5 23.025 37.2944 23.025 32.125C23.025 26.9556 27.2306 22.75 32.4 22.75C37.5694 22.75 41.775 26.9556 41.775 32.125C41.775 37.2944 37.5694 41.5 32.4 41.5ZM49.5968 51.9734L44.2935 46.67L46.9451 44.0184L52.2484 49.3216L49.5968 51.9734Z" fill="#59A745"/>
<path id="Vector_3" d="M8.02502 30.25H11.775V56.5H8.02502V30.25Z" fill="#59A745"/>
<path id="Vector_4" d="M15.525 41.5H19.275V56.5H15.525V41.5Z" fill="#59A745"/>
<path id="Vector_5" d="M23.025 49H26.775V56.5H23.025V49Z" fill="#59A745"/>
<path id="Vector_6" d="M30.525 52.75H34.275V56.5H30.525V52.75Z" fill="#59A745"/>
</g>
</svg>
