<svg width="65" height="64" viewBox="0 0 65 64" fill="none" xmlns="http://www.w3.org/2000/svg">
<g id="XMLID_1729_">
<path id="Vector" fill-rule="evenodd" clip-rule="evenodd" d="M5.20007 55C2.44307 55 0.200073 52.757 0.200073 50V14C0.200073 11.243 2.44307 9 5.20007 9H16.5751V11.5H5.20007C3.82157 11.5 2.70007 12.6215 2.70007 14V45.25H61.7001V14C61.7001 12.6215 60.5786 11.5 59.2001 11.5H49.0751V9H59.2001C61.9571 9 64.2001 11.243 64.2001 14V50C64.2001 52.757 61.9571 55 59.2001 55H39.5751V61.25H44.0751C44.7653 61.25 45.3251 61.8097 45.3251 62.5C45.3251 63.1903 44.7653 63.75 44.0751 63.75H20.3251C19.6347 63.75 19.0751 63.1903 19.0751 62.5C19.0751 61.8097 19.6347 61.25 20.3251 61.25H24.5751V55H5.20007ZM27.0751 61.25H37.0751V55H27.0751V61.25ZM59.2001 52.5C60.5786 52.5 61.7001 51.3785 61.7001 50V47.75H2.70007V50C2.70007 51.3785 3.82157 52.5 5.20007 52.5H59.2001Z" fill="white"/>
<path id="Vector_2" fill-rule="evenodd" clip-rule="evenodd" d="M16.5751 9V11.5V35.25C16.5751 35.9403 17.1347 36.5 17.8251 36.5H34.0751V40.25C34.0751 40.9403 34.6348 41.5 35.3251 41.5H57.8251C58.5153 41.5 59.0751 40.9403 59.0751 40.25V26.5C59.0751 25.8096 58.5153 25.25 57.8251 25.25H49.0751V11.5V9V1.5C49.0751 0.809625 48.5153 0.25 47.8251 0.25H17.8251C17.1347 0.25 16.5751 0.809625 16.5751 1.5V9ZM56.5751 39V27.75H36.5751V39H56.5751ZM36.5751 11.9774V2.75H29.0751V11.9774L32.2662 10.3819C32.6179 10.2059 33.0326 10.206 33.3841 10.3819L36.5751 11.9774ZM26.5751 2.75H19.0751V34H34.0751V26.5C34.0751 25.8096 34.6348 25.25 35.3251 25.25H46.5751V2.75H39.0751V14C39.0751 14.9309 38.0926 15.5315 37.2661 15.1181L32.8251 12.8976L28.3841 15.118C27.5532 15.5337 26.5751 14.9272 26.5751 14V2.75Z" fill="#F5F6F7"/>
<path id="Vector_3" d="M22.8251 25.25H27.8251C28.5154 25.25 29.0751 24.6904 29.0751 24C29.0751 23.3096 28.5154 22.75 27.8251 22.75H22.8251C22.1347 22.75 21.5751 23.3096 21.5751 24C21.5751 24.6904 22.1347 25.25 22.8251 25.25Z" fill="#F5F6F7"/>
<path id="Vector_4" d="M22.8251 30.25H30.3251C31.0154 30.25 31.5751 29.6904 31.5751 29C31.5751 28.3096 31.0154 27.75 30.3251 27.75H22.8251C22.1347 27.75 21.5751 28.3096 21.5751 29C21.5751 29.6904 22.1347 30.25 22.8251 30.25Z" fill="#F5F6F7"/>
<path id="Vector_5" d="M41.5751 30.25C40.8848 30.25 40.3251 30.8096 40.3251 31.5V35.25C40.3251 35.9402 40.8848 36.5 41.5751 36.5C42.2653 36.5 42.8251 35.9402 42.8251 35.25V31.5C42.8251 30.8096 42.2653 30.25 41.5751 30.25Z" fill="#F5F6F7"/>
<path id="Vector_6" d="M46.5751 30.25C45.8848 30.25 45.3251 30.8096 45.3251 31.5V35.25C45.3251 35.9402 45.8848 36.5 46.5751 36.5C47.2653 36.5 47.8251 35.9402 47.8251 35.25V31.5C47.8251 30.8096 47.2653 30.25 46.5751 30.25Z" fill="#F5F6F7"/>
<path id="Vector_7" d="M51.5751 30.25C50.8848 30.25 50.3251 30.8096 50.3251 31.5V35.25C50.3251 35.9402 50.8848 36.5 51.5751 36.5C52.2653 36.5 52.8251 35.9402 52.8251 35.25V31.5C52.8251 30.8096 52.2653 30.25 51.5751 30.25Z" fill="#F5F6F7"/>
</g>
</svg>
