<svg width="63" height="58" viewBox="0 0 63 58" fill="none" xmlns="http://www.w3.org/2000/svg">
<g id="Group 47369">
<path id="Union" d="M57.7282 30.1324L58.0217 29.8137L58.0241 29.8163L60.7032 26.9071L63 29.4011L56.0024 37L56 36.9974L55.9976 37L49 29.4011L51.2968 26.9071L53.9759 29.8163L53.9783 29.8137L54.361 30.2292V23H57.7282V30.1324Z" fill="#59A745"/>
<path id="XMLID_236_" fill-rule="evenodd" clip-rule="evenodd" d="M0 54V58H52V54H0Z" fill="#59A745"/>
<path id="XMLID_236__2" fill-rule="evenodd" clip-rule="evenodd" d="M0 38V42H52V38H0Z" fill="#59A745"/>
<path id="Vector (Stroke)" fill-rule="evenodd" clip-rule="evenodd" d="M51 3.75C48.6856 3.75 46.8094 5.6262 46.8094 7.9406V19.6388C46.8094 22.6558 44.3636 25.1017 41.3465 25.1017C38.3295 25.1017 35.8837 22.6558 35.8837 19.6388V18.2838C35.8837 17.4731 35.2265 16.8159 34.4158 16.8159C33.6052 16.8159 32.948 17.4731 32.948 18.2838V27.2871C32.948 30.3042 30.5022 32.75 27.4851 32.75C24.4681 32.75 22.0223 30.3042 22.0223 27.2871V15.9818C22.0223 15.0345 21.2543 14.2665 20.3069 14.2665C19.3596 14.2665 18.5916 15.0345 18.5916 15.9818V17.5844C18.5916 20.328 16.3674 22.5522 13.6238 22.5522C10.8801 22.5522 8.65594 20.328 8.65594 17.5844V6.36957C8.65594 5.56164 8.00099 4.90669 7.19307 4.90669C6.38515 4.90669 5.7302 5.56164 5.7302 6.36957V16.1846C5.7302 19.3493 3.1647 21.9148 0 21.9148V18.4148C1.2317 18.4148 2.2302 17.4163 2.2302 16.1846V6.36957C2.2302 3.62865 4.45215 1.4067 7.19307 1.4067C9.93399 1.4067 12.1559 3.62865 12.1559 6.36957V17.5844C12.1559 18.395 12.8131 19.0522 13.6238 19.0522C14.4344 19.0522 15.0916 18.395 15.0916 17.5844V15.9818C15.0916 13.1015 17.4266 10.7665 20.3069 10.7665C23.1873 10.7665 25.5223 13.1015 25.5223 15.9818V27.2871C25.5223 28.3712 26.4011 29.25 27.4851 29.25C28.5692 29.25 29.448 28.3712 29.448 27.2871V18.2838C29.448 15.5401 31.6722 13.3159 34.4158 13.3159C37.1595 13.3159 39.3837 15.5401 39.3837 18.2838V19.6388C39.3837 20.7228 40.2625 21.6017 41.3465 21.6017C42.4306 21.6017 43.3094 20.7228 43.3094 19.6388V7.9406C43.3094 3.69321 46.7526 0.25 51 0.25V3.75ZM2.2302 38.25H12.1559V48.266C12.1559 49.0766 12.8131 49.7338 13.6238 49.7338C14.4344 49.7338 15.0916 49.0766 15.0916 48.266V47.1976C15.0916 44.3172 17.4266 41.9822 20.3069 41.9822C23.1873 41.9822 25.5223 44.3172 25.5223 47.1976V54.25H29.448V49.3351C29.448 46.5915 31.6722 44.3673 34.4158 44.3673C37.1595 44.3673 39.3837 46.5915 39.3837 49.3351V50.156C39.3837 51.2401 40.2625 52.1189 41.3465 52.1189C42.4306 52.1189 43.3094 51.2401 43.3094 50.156V38.25H51V41.75H46.8094V50.156C46.8094 53.1731 44.3636 55.6189 41.3465 55.6189C38.3295 55.6189 35.8837 53.1731 35.8837 50.156V49.3351C35.8837 48.5245 35.2265 47.8673 34.4158 47.8673C33.6052 47.8673 32.948 48.5245 32.948 49.3351V57.75H22.0223V47.1976C22.0223 46.2502 21.2543 45.4822 20.3069 45.4822C19.3596 45.4822 18.5916 46.2502 18.5916 47.1976V48.266C18.5916 51.0096 16.3674 53.2338 13.6238 53.2338C10.8801 53.2338 8.65594 51.0096 8.65594 48.266V41.75H5.7302V46.9073C5.7302 50.072 3.1647 52.6375 0 52.6375V49.1375C1.2317 49.1375 2.2302 48.139 2.2302 46.9073V38.25Z" fill="#59A745"/>
<path id="XMLID_236__3" fill-rule="evenodd" clip-rule="evenodd" d="M0 23V27H52V23H0Z" fill="#59A745"/>
<path id="XMLID_236__4" fill-rule="evenodd" clip-rule="evenodd" d="M0 7V11H52V7H0Z" fill="#59A745"/>
</g>
</svg>
