<svg width="53" height="52" viewBox="0 0 53 52" fill="none" xmlns="http://www.w3.org/2000/svg">
<g id="Icon - InfraConnect" clip-path="url(#clip0_85_13987)">
<path id="Vector" d="M19.5398 7.76953L13.4373 15.8362L19.5398 23.9025L21.9698 22.0641L17.2578 15.8362L21.9698 9.60797L19.5398 7.76953Z" fill="#59A745"/>
<path id="Vector_2" d="M31.0302 9.60797L35.7422 15.8362L31.0302 22.0641L33.4602 23.9025L39.5627 15.8362L33.4602 7.76953L31.0302 9.60797Z" fill="#59A745"/>
<path id="Vector_3" d="M24.9766 7.62207H28.0234V24.0494H24.9766V7.62207Z" fill="#59A745"/>
<path id="Vector_4" d="M52.5 45.9015V9.14777H46.4015V0H6.59851V9.14777H0.5V45.9015H17.8616V48.9531H13.2862V52H39.7134V48.9531H35.1384V45.9015H52.5ZM9.64539 3.04688H43.3546V28.6244H9.64539V3.04688ZM6.59851 12.1946V31.6712H46.4015V12.1946H49.4531V34.7229H3.54688V12.1946H6.59851ZM3.54688 37.7697H49.4531V42.8546H3.54688V37.7697ZM32.0915 48.9531H20.9085V45.9015H32.0915V48.9531Z" fill="#1D1D1F"/>
</g>
<defs>
<clipPath id="clip0_85_13987">
<rect width="52" height="52" fill="white" transform="translate(0.5)"/>
</clipPath>
</defs>
</svg>
