<svg width="53" height="52" viewBox="0 0 53 52" fill="none" xmlns="http://www.w3.org/2000/svg">
<g id="Icon - InfraConnect" clip-path="url(#clip0_85_14005)">
<path id="Vector" d="M34.1172 6.09375H43.2578V9.14063H34.1172V6.09375Z" fill="#59A745"/>
<path id="Vector_2" d="M15.8359 6.09375H18.8828V9.14063H15.8359V6.09375Z" fill="#59A745"/>
<path id="Vector_3" d="M9.74219 6.09375H12.7891V9.14063H9.74219V6.09375Z" fill="#59A745"/>
<path id="Vector_4" d="M34.1172 18.2812H43.2578V21.3281H34.1172V18.2812Z" fill="#59A745"/>
<path id="Vector_5" d="M15.8359 18.2812H18.8828V21.3281H15.8359V18.2812Z" fill="#59A745"/>
<path id="Vector_6" d="M9.74219 18.2812H12.7891V21.3281H9.74219V18.2812Z" fill="#59A745"/>
<path id="Vector_7" d="M31.0703 42.8594H37.1641V45.9062H31.0703V42.8594Z" fill="#1D1D1F"/>
<path id="Vector_8" d="M15.8359 36.7656H23.4531C25.9731 36.7656 28.0234 34.7153 28.0234 32.1953V27.4219H49.3516C49.3516 26.2122 49.3516 1.21002 49.3516 0H3.64844V27.4219H24.9766V32.1953C24.9766 33.0352 24.293 33.7188 23.4531 33.7188H15.8359C12.4756 33.7188 9.74219 36.4522 9.74219 39.8125C9.74219 43.1728 12.4756 45.9062 15.8359 45.9062H25.1297C25.8375 49.3788 28.9153 52 32.5938 52H41.7344C45.9345 52 49.3516 48.583 49.3516 44.3828C49.3516 40.1826 45.9345 36.7656 41.7344 36.7656H32.5938C28.9153 36.7656 25.8375 39.3868 25.1297 42.8594H15.8359C14.1558 42.8594 12.7891 41.4926 12.7891 39.8125C12.7891 38.1324 14.1558 36.7656 15.8359 36.7656ZM6.69531 3.04688H46.3047V12.1875H6.69531V3.04688ZM6.69531 15.2344H46.3047V24.375H6.69531V15.2344ZM32.5938 39.8125H41.7344C44.2544 39.8125 46.3047 41.8628 46.3047 44.3828C46.3047 46.9028 44.2544 48.9531 41.7344 48.9531H32.5938C30.0737 48.9531 28.0234 46.9028 28.0234 44.3828C28.0234 41.8628 30.0737 39.8125 32.5938 39.8125Z" fill="#1D1D1F"/>
</g>
<defs>
<clipPath id="clip0_85_14005">
<rect width="52" height="52" fill="white" transform="translate(0.5)"/>
</clipPath>
</defs>
</svg>
