<svg width="49" height="52" viewBox="0 0 49 52" fill="none" xmlns="http://www.w3.org/2000/svg">
<g id="Group 47282">
<g id="Group">
<path id="Vector" d="M41.3951 25.7689C42.1354 26.1895 42.9902 26.4311 43.9009 26.4311C46.7079 26.4311 48.9915 24.1475 48.9915 21.3406C48.9915 18.5336 46.7079 16.25 43.9009 16.25C41.094 16.25 38.8104 18.5336 38.8104 21.3406C38.8104 22.1224 38.988 22.8634 39.3043 23.526L33.8093 27.6876C32.9971 27.1389 32.0188 26.8183 30.967 26.8183C29.9405 26.8183 28.9847 27.1247 28.1843 27.6494L22.7968 23.2413C23.0075 22.6834 23.1236 22.0796 23.1236 21.4489C23.1236 18.642 20.8399 16.3584 18.033 16.3584C15.2262 16.3584 12.9425 18.642 12.9425 21.4489C12.9425 22.1603 13.0898 22.838 13.3546 23.4535L6.31669 30.8573C5.92629 30.7611 5.51872 30.709 5.09906 30.709C2.29218 30.709 0.00854492 32.9927 0.00854492 35.7996C0.00854492 38.6064 2.29218 40.8901 5.09906 40.8901C7.90594 40.8901 10.1896 38.6064 10.1896 35.7996C10.1896 34.5397 9.72848 33.3861 8.96747 32.4962L15.3557 25.776C16.134 26.2594 17.0512 26.5395 18.033 26.5395C19.102 26.5395 20.0945 26.2076 20.9144 25.6425L26.2469 30.0056C26.0088 30.594 25.8764 31.2361 25.8764 31.9088C25.8764 34.7157 28.16 36.9993 30.9669 36.9993C33.7738 36.9993 36.0574 34.7157 36.0574 31.9088C36.0574 31.2612 35.9347 30.6422 35.7131 30.072L41.3951 25.7689ZM43.9009 19.3003C45.0259 19.3003 45.9412 20.2155 45.9412 21.3406C45.9412 22.4655 45.026 23.3807 43.9009 23.3807C42.776 23.3807 41.8607 22.4655 41.8607 21.3406C41.8608 20.2156 42.776 19.3003 43.9009 19.3003ZM5.09906 37.8398C3.97415 37.8398 3.05887 36.9246 3.05887 35.7996C3.05887 34.6746 3.97405 33.7594 5.09906 33.7594C6.22397 33.7594 7.13925 34.6746 7.13925 35.7996C7.13925 36.9246 6.22397 37.8398 5.09906 37.8398ZM18.033 23.4891C16.9081 23.4891 15.9929 22.5739 15.9929 21.4489C15.9929 20.3239 16.908 19.4088 18.033 19.4088C19.1581 19.4088 20.0732 20.324 20.0732 21.4489C20.0732 22.5738 19.1579 23.4891 18.033 23.4891ZM30.967 33.9488C29.8421 33.9488 28.9268 33.0336 28.9268 31.9087C28.9268 30.7838 29.842 29.8685 30.967 29.8685C32.092 29.8685 33.0072 30.7837 33.0072 31.9087C33.0072 33.0337 32.0919 33.9488 30.967 33.9488Z" fill="#59A745"/>
<path id="Vector_2" d="M43.8124 28.333C41.0689 28.333 38.8368 30.5651 38.8368 33.3087V52.0004H48.7882V33.3087C48.7882 30.5651 46.5561 28.333 43.8124 28.333ZM45.7378 48.95H41.8871V33.3087C41.8871 32.2471 42.7508 31.3834 43.8123 31.3834C44.874 31.3834 45.7377 32.2471 45.7377 33.3087L45.7378 48.95Z" fill="#1D1D1F"/>
<path id="Vector_3" d="M30.967 38.6289C28.2235 38.6289 25.9913 40.8609 25.9913 43.6047V52.0003H35.9427V43.6046C35.9427 40.8609 33.7106 38.6289 30.967 38.6289ZM32.8923 48.9499H29.0417V43.6046C29.0417 42.5429 29.9054 41.6792 30.9669 41.6792C32.0285 41.6792 32.8922 42.5429 32.8922 43.6046L32.8923 48.9499Z" fill="#1D1D1F"/>
<path id="Vector_4" d="M17.9535 32.4004C15.2099 32.4004 12.9778 34.6324 12.9778 37.3761V52.0004H22.9293V37.3761C22.9293 34.6325 20.6972 32.4004 17.9535 32.4004ZM19.879 48.95H16.0282V37.3761C16.0282 36.3145 16.8919 35.4508 17.9535 35.4508C19.0152 35.4508 19.8789 36.3145 19.8789 37.3761L19.879 48.95Z" fill="#1D1D1F"/>
<path id="Vector_5" d="M5.10807 42.1143C2.36447 42.1143 0.132324 44.3463 0.132324 47.0899V52.0003H10.0837V47.0899C10.0837 44.3463 7.85158 42.1143 5.10807 42.1143ZM7.03329 48.9499H3.18275V47.0899C3.18275 46.0283 4.04644 45.1646 5.10807 45.1646C6.16961 45.1646 7.03329 46.0283 7.03329 47.0899V48.9499Z" fill="#1D1D1F"/>
</g>
<g id="Group 47281">
<path id="Vector_6" d="M30.8429 17.3333C35.6296 17.3333 39.51 13.453 39.51 8.66704C39.51 3.88032 35.6296 0 30.8429 0C26.057 0 22.1766 3.88032 22.1766 8.66704C22.1766 13.453 26.057 17.3333 30.8429 17.3333ZM30.8429 2.23435C34.3903 2.23435 37.2756 5.11964 37.2756 8.66704C37.2756 12.2137 34.3903 15.099 30.8429 15.099C27.2963 15.099 24.411 12.2137 24.411 8.66704C24.411 5.11964 27.2963 2.23435 30.8429 2.23435Z" fill="black"/>
<path id="Vector_7" d="M29.1088 9.78393H32.5782C32.9173 9.78393 33.2038 10.0704 33.2038 10.4095C33.2038 10.7486 32.9172 11.0351 32.5781 11.0351L27.3659 11.0353L27.366 13.2697L29.7315 13.2696V14.4409H31.9659V13.2695H32.5781C34.1551 13.2695 35.438 11.9865 35.438 10.4096C35.438 8.83269 34.1551 7.54965 32.5781 7.54965H29.1088C28.7697 7.54965 28.4833 7.26314 28.4833 6.92411C28.4833 6.58509 28.7698 6.29857 29.1088 6.29857H34.321V4.06422H31.9659V2.88672H29.7315V4.06422H29.1088C27.5319 4.06422 26.2489 5.34718 26.2489 6.92411C26.2489 8.50104 27.5318 9.78393 29.1088 9.78393Z" fill="black"/>
</g>
</g>
</svg>
