<svg width="53" height="52" viewBox="0 0 53 52" fill="none" xmlns="http://www.w3.org/2000/svg">
<g id="Group">
<path id="Vector" d="M49.7676 42.3887C50.1727 41.7068 50.4055 40.9111 50.4055 40.0619V39.0875C50.4055 36.5676 48.3554 34.5176 45.8356 34.5176C43.3158 34.5176 41.2657 36.5676 41.2657 39.0875V40.0619C41.2657 40.911 41.4985 41.7067 41.9035 42.3887C40.2698 43.3734 39.1749 45.165 39.1749 47.2076V52.0004H52.4962V47.2076C52.4962 45.165 51.4013 43.3733 49.7676 42.3887ZM44.3121 39.0875C44.3121 38.2474 44.9955 37.564 45.8356 37.564C46.6757 37.564 47.359 38.2473 47.359 39.0875V40.0619C47.359 40.9019 46.6757 41.5853 45.8356 41.5853C44.9955 41.5853 44.3121 40.902 44.3121 40.0619V39.0875ZM49.4498 48.954H42.2214V47.2076C42.2214 45.7873 43.3769 44.6318 44.7971 44.6318H46.8739C48.2942 44.6318 49.4497 45.7873 49.4497 47.2076V48.954H49.4498Z" fill="#59A745"/>
<path id="Vector_2" d="M11.0965 42.3887C11.5016 41.7068 11.7343 40.9111 11.7343 40.0619V39.0875C11.7343 36.5676 9.68425 34.5176 7.16443 34.5176C4.64462 34.5176 2.59456 36.5676 2.59456 39.0875V40.0619C2.59456 40.911 2.82731 41.7067 3.23238 42.3887C1.59868 43.3734 0.503784 45.165 0.503784 47.2076V52.0004H13.8251V47.2076C13.8251 45.165 12.7302 43.3733 11.0965 42.3887ZM5.64101 39.0875C5.64101 38.2474 6.32432 37.564 7.16443 37.564C8.00454 37.564 8.68786 38.2473 8.68786 39.0875V40.0619C8.68786 40.9019 8.00454 41.5853 7.16443 41.5853C6.32432 41.5853 5.64101 40.902 5.64101 40.0619V39.0875ZM10.7786 48.954H3.55023V47.2076C3.55023 45.7873 4.70575 44.6318 6.126 44.6318H8.20276C9.62302 44.6318 10.7785 45.7873 10.7785 47.2076L10.7786 48.954Z" fill="#59A745"/>
<path id="Vector_3" d="M49.7676 7.871C50.1727 7.18911 50.4055 6.39337 50.4055 5.54423V4.56977C50.4055 2.05006 48.3555 0 45.8356 0C43.3157 0 41.2657 2.05006 41.2657 4.56987V5.54433C41.2657 6.39337 41.4985 7.18911 41.9035 7.8711C40.2698 8.85572 39.1749 10.6473 39.1749 12.69V17.4829H52.4962V12.69C52.4962 10.6473 51.4013 8.85572 49.7676 7.871ZM44.3121 4.56987C44.3121 3.72987 44.9955 3.04645 45.8356 3.04645C46.6757 3.04645 47.359 3.72976 47.359 4.56987V5.54433C47.359 6.38434 46.6757 7.06776 45.8356 7.06776C44.9955 7.06776 44.3121 6.38444 44.3121 5.54433V4.56987ZM49.4498 14.4364H42.2214V12.6899C42.2214 11.2696 43.3769 10.1142 44.7971 10.1142H46.8739C48.2942 10.1142 49.4497 11.2696 49.4497 12.6899V14.4364H49.4498Z" fill="#59A745"/>
<path id="Vector_4" d="M13.8251 12.6899C13.8251 10.6473 12.7302 8.85572 11.0965 7.871C11.5016 7.18911 11.7343 6.39337 11.7343 5.54423V4.56977C11.7343 2.05006 9.68425 0 7.16443 0C4.64462 0 2.59456 2.05006 2.59456 4.56987V5.54433C2.59456 6.39337 2.82731 7.18911 3.23238 7.8711C1.59868 8.85572 0.503784 10.6473 0.503784 12.69V17.4829H13.8251V12.6899ZM5.64101 4.56987C5.64101 3.72976 6.32432 3.04645 7.16443 3.04645C8.00454 3.04645 8.68786 3.72976 8.68786 4.56987V5.54433C8.68786 6.38434 8.00444 7.06776 7.16443 7.06776C6.32443 7.06776 5.64101 6.38434 5.64101 5.54433V4.56987ZM10.7786 14.4364H3.55023V12.6899C3.55023 11.2696 4.70575 10.1142 6.126 10.1142H8.20276C9.62302 10.1142 10.7785 11.2696 10.7785 12.6899L10.7786 14.4364Z" fill="#59A745"/>
<path id="Vector_5" d="M13.733 25.9965C13.733 33.0363 19.4601 38.7635 26.5 38.7635C33.5398 38.7635 39.2669 33.0364 39.2669 25.9965C39.2669 18.9567 33.5397 13.2295 26.5 13.2295C19.4602 13.2295 13.733 18.9568 13.733 25.9965ZM28.0434 18.5791C28.6316 20.1536 29.015 22.2439 29.1362 24.4733H23.8638C23.9849 22.2439 24.3684 20.1536 24.9565 18.5791C25.6639 16.6858 26.3645 16.2759 26.5 16.2759C26.6354 16.2759 27.3361 16.6859 28.0434 18.5791ZM26.5 35.717C26.3645 35.717 25.6639 35.3072 24.9565 33.4139C24.3684 31.8395 23.9849 29.7492 23.8638 27.5198H29.1362C29.015 29.7492 28.6316 31.8395 28.0434 33.4139C27.3361 35.3072 26.6354 35.717 26.5 35.717ZM22.1904 17.2846C22.1602 17.3612 22.1311 17.4373 22.1028 17.5129C21.3853 19.4337 20.9381 21.8629 20.8126 24.4733H16.8988C17.3977 21.3163 19.4219 18.6597 22.1904 17.2846ZM16.8988 27.5198H20.8126C20.9381 30.1302 21.3853 32.5594 22.1028 34.4801C22.1311 34.5556 22.1603 34.6319 22.1904 34.7084C19.4219 33.3333 17.3977 30.6768 16.8988 27.5198ZM30.8097 34.7084C30.8398 34.6318 30.869 34.5556 30.8972 34.4801C31.6148 32.5594 32.062 30.1302 32.1875 27.5198H36.1013C35.6022 30.6768 33.5781 33.3333 30.8097 34.7084ZM36.1013 24.4733H32.1875C32.062 21.8629 31.6148 19.4337 30.8972 17.5129C30.869 17.4373 30.8398 17.3612 30.8097 17.2846C33.5781 18.6597 35.6022 21.3163 36.1013 24.4733Z" fill="#1D1D1F"/>
<path id="Vector_6" d="M24.9768 3.75684H28.0233V6.80349H24.9768V3.75684Z" fill="#59A745"/>
<path id="Vector_7" d="M17.4677 5.62207L20.3314 4.58015L21.3734 7.444L18.5096 8.48592L17.4677 5.62207Z" fill="#59A745"/>
<path id="Vector_8" d="M4.33984 23.6416L4.86994 20.6408L7.87089 21.1709L7.34079 24.1717L4.33984 23.6416Z" fill="#59A745"/>
<path id="Vector_9" d="M4.34558 28.3613L7.34653 27.8312L7.87663 30.8321L4.87568 31.3622L4.34558 28.3613Z" fill="#59A745"/>
<path id="Vector_10" d="M17.4755 46.3652L18.5174 43.5014L21.3812 44.5433L20.3392 47.4072L17.4755 46.3652Z" fill="#59A745"/>
<path id="Vector_11" d="M24.9768 45.1885H28.0233V48.2351H24.9768V45.1885Z" fill="#59A745"/>
<path id="Vector_12" d="M31.6411 44.5674L34.5049 43.5255L35.5468 46.3893L32.6831 47.4312L31.6411 44.5674Z" fill="#59A745"/>
<path id="Vector_13" d="M45.1582 30.8311L45.6883 27.8302L48.6893 28.3603L48.1592 31.3612L45.1582 30.8311Z" fill="#59A745"/>
<path id="Vector_14" d="M45.1525 21.1504L48.1534 20.6203L48.6835 23.6211L45.6826 24.1512L45.1525 21.1504Z" fill="#59A745"/>
<path id="Vector_15" d="M31.6329 7.42969L32.6749 4.56584L35.5386 5.60776L34.4967 8.47161L31.6329 7.42969Z" fill="#59A745"/>
</g>
</svg>
