<svg width="52" height="52" viewBox="0 0 52 52" fill="none" xmlns="http://www.w3.org/2000/svg">
<g id="Group">
<path id="Vector" d="M6.19531 15.2344H3.14844V27.4219H6.19531V30.4688H9.24219V27.4219H12.2891V15.2344H9.24219V12.1875H6.19531V15.2344ZM9.24219 24.375H6.19531V18.2812H9.24219V24.375Z" fill="#59A745"/>
<path id="Vector_2" d="M21.4297 24.375V21.3281H24.4766V9.14062H21.4297V6.09375H18.3828V9.14062H15.3359V21.3281H18.3828V24.375H21.4297ZM18.3828 12.1875H21.4297V18.2812H18.3828V12.1875Z" fill="#59A745"/>
<path id="Vector_3" d="M33.6172 21.3281V18.2812H36.6641V6.09375H33.6172V3.04688H30.5703V6.09375H27.5234V18.2812H30.5703V21.3281H33.6172ZM30.5703 9.14062H33.6172V15.2344H30.5703V9.14062Z" fill="#59A745"/>
<path id="Vector_4" d="M45.8047 18.2812V15.2344H48.8516V3.04688H45.8047V0H42.7578V3.04688H39.7109V15.2344H42.7578V18.2812H45.8047ZM42.7578 6.09375H45.8047V12.1875H42.7578V6.09375Z" fill="#59A745"/>
<path id="Vector_5" d="M1.625 36.5626H14.1721L26.3596 30.4688H38.5471L46.8326 26.3261L46.2193 28.9509L49.1862 29.6442L50.8263 22.6259L44.2277 19.7271L43.0022 22.5167L45.47 23.6008L37.8279 27.4219H25.6404L13.4529 33.5157H1.625V36.5626Z" fill="#59A745"/>
<path id="Vector_6" d="M48.8516 33.5156H39.7109V48.9531H36.6641V33.5156H27.5234V48.9531H24.4766V35.6209L15.3359 40.1912V48.9531H12.2891V39.6094H3.14844V48.9531H0V52H52V48.9531H48.8516V33.5156ZM42.7578 36.5625H45.8047V48.9531H42.7578V36.5625ZM30.5703 36.5625H33.6172V48.9531H30.5703V36.5625ZM18.3828 42.0744L21.4297 40.551V48.9531H18.3828V42.0744ZM6.19531 42.6562H9.24219V48.9531H6.19531V42.6562Z" fill="#1D1D1F"/>
</g>
</svg>
