<svg width="52" height="52" viewBox="0 0 52 52" fill="none" xmlns="http://www.w3.org/2000/svg">
<g id="Group">
<path id="Vector" fill-rule="evenodd" clip-rule="evenodd" d="M45.6987 23.1245C45.8365 24.0757 45.9062 25.0391 45.9062 26C45.9062 26.9609 45.8365 27.9243 45.6989 28.8754L51.8837 33.1682L45.1499 44.8316L38.3388 41.6213C36.6767 42.9382 34.839 43.9662 32.8555 44.6919L32.8553 41.4068C34.3941 40.7228 35.8181 39.8121 37.1057 38.6836L37.8565 38.0257L43.9127 40.8802L47.843 34.0728L42.347 30.258L42.5396 29.2802C42.7517 28.2035 42.8593 27.0999 42.8593 26C42.8593 24.9001 42.7517 23.7965 42.5396 22.7199L42.347 21.7421L47.8431 17.9272L43.9128 11.1198L37.8566 13.9743L37.1058 13.3164C35.4328 11.8501 33.5233 10.7459 31.4306 10.0343L30.4858 9.71303L29.9302 3.04687H22.0697L21.514 9.71293L20.5692 10.0342C18.4765 10.7457 16.5671 11.8499 14.894 13.3163L14.1434 13.9742L8.08708 11.1197L4.15681 17.9271L9.65317 21.742L9.46041 22.7199C9.24824 23.7965 9.14059 24.9 9.14059 26C9.14059 27.1 9.24814 28.2035 9.46051 29.28L9.65327 30.2579L4.15692 34.0728L8.08718 40.8802L14.1435 38.0257L14.8941 38.6836C16.1817 39.8121 17.6057 40.7228 19.1445 41.4068L19.1446 44.6919C17.161 43.9662 15.3233 42.9383 13.6613 41.6214L6.85025 44.8317L0.116455 33.1683L6.30121 28.8755C6.16338 27.9243 6.09371 26.961 6.09371 26C6.09371 25.039 6.16328 24.0757 6.30121 23.1245L0.116455 18.8317L6.85015 7.16828L13.6613 10.3787C15.1799 9.17587 16.8483 8.21102 18.6413 7.49856L19.2662 0H32.7338L33.3588 7.49856C35.1517 8.21092 36.82 9.17577 38.3387 10.3787L45.1498 7.16828L51.8835 18.8317L45.6987 23.1245Z" fill="#1D1D1F"/>
<path id="Vector_2" fill-rule="evenodd" clip-rule="evenodd" d="M32.8556 44.6921L32.8554 41.407V37.9938C34.7875 36.8881 36.4281 35.33 37.6368 33.4438C39.0602 31.223 39.8125 28.649 39.8125 26.0002C39.8125 20.0007 35.9818 14.7221 30.2805 12.8651L28.2852 12.2153V22.2213L26 24.0494L23.7148 22.2213V12.2153L21.7195 12.8651C16.0181 14.7221 12.1875 20.0007 12.1875 26.0002C12.1875 28.649 12.9398 31.223 14.3631 33.4438C15.5719 35.33 17.2124 36.8881 19.1445 37.9938V41.407L19.1446 44.6921V52.0002H32.8556V44.6921ZM29.8086 48.9533V36.1187L30.6701 35.7031C34.373 33.9172 36.7656 30.1085 36.7656 26.0002C36.7656 22.0645 34.6507 18.5266 31.332 16.642V23.6855L26 27.9511L20.668 23.6855V16.642C17.3493 18.5266 15.2344 22.0645 15.2344 26.0002C15.2344 30.1085 17.6269 33.9171 21.3299 35.7031L22.1914 36.1187V48.9533H29.8086Z" fill="#59A745"/>
</g>
</svg>
