<svg width="52" height="52" viewBox="0 0 52 52" fill="none" xmlns="http://www.w3.org/2000/svg">
<g id="Group">
<path id="Vector" d="M0 0V52H52V0H0ZM48.9531 3.04688V12.2891H3.04688V3.04688H48.9531ZM3.04688 48.9531V15.3359H48.9531V48.9531H3.04688Z" fill="#1D1D1F"/>
<path id="Vector_2" d="M9.24219 6.19531H6.19531V9.24219H9.24219V6.19531Z" fill="#1D1D1F"/>
<path id="Vector_3" d="M15.3359 6.19531H12.2891V9.24219H15.3359V6.19531Z" fill="#1D1D1F"/>
<path id="Vector_4" d="M21.4297 6.19531H18.3828V9.24219H21.4297V6.19531Z" fill="#1D1D1F"/>
<path id="Vector_5" d="M45.8047 6.19531H27.5234V9.24219H45.8047V6.19531Z" fill="#1D1D1F"/>
<path id="Vector_6" d="M15.3359 39.6906H18.3828V36.6641H21.4297V24.4766H18.3828V21.4297H15.3359V24.4766H12.2891V36.6641H15.3359V39.6906ZM15.3359 27.5234H18.3828V33.6172H15.3359V27.5234Z" fill="#59A745"/>
<path id="Vector_7" d="M27.5234 36.6437H30.5703V33.6172H33.6172V21.4297H30.5703V18.3828H27.5234V21.4297H24.4766V33.6172H27.5234V36.6437ZM27.5234 24.4766H30.5703V30.5703H27.5234V24.4766Z" fill="#59A745"/>
<path id="Vector_8" d="M42.7578 21.4297H39.7109V24.4766H36.6641V36.6641H39.7109V39.6906H42.7578V36.6641H45.8047V24.4766H42.7578V21.4297ZM42.7578 33.6172H39.7109V27.5234H42.7578V33.6172Z" fill="#59A745"/>
<path id="Vector_9" d="M9.24219 18.3828H6.19531V45.8047H45.8047V42.7578H9.24219V18.3828Z" fill="#1D1D1F"/>
</g>
</svg>
