<svg width="52" height="52" viewBox="0 0 52 52" fill="none" xmlns="http://www.w3.org/2000/svg">
<g id="Icons - Market Data Types">
<path id="Vector" d="M13.856 8.42187L13.856 15.4531L24 15.4531L24 17.7969L11.7892 17.7969L11.7892 24.8281L24 24.8281L24 27.1719L6 27.1719L6 34.2031L24 34.2031L24 36.5469L9.44673 36.5469L9.44673 43.5781L24 43.5781L24 46L26 45.9999L26 5.9999L24 6L24 8.42187L13.856 8.42187ZM16.1984 13.1094L16.1984 10.7656L24 10.7656L24 13.1094L16.1984 13.1094ZM14.1316 22.4844L14.1316 20.1406L24 20.1406L24 22.4844L14.1316 22.4844ZM8.79078 31.8594L8.79078 29.5156L24 29.5156L24 31.8594L8.79078 31.8594ZM11.7892 41.2344L11.7892 38.8906L24 38.8906L24 41.2344L11.7892 41.2344Z" fill="#59A745"/>
<path id="Vector_2" d="M35.875 43.5781L35.875 36.5469L26.3437 36.5469L26.3437 34.2031L38.2187 34.2031L38.2187 27.1719L26.3437 27.1719L26.3437 24.8281L46 24.8281L46 17.7969L26.3437 17.7969L26.3437 15.4531L33.5312 15.4531L33.5312 8.42187L26.3437 8.42187L26.3437 6L24 6L24 46L26.3437 46L26.3437 43.5781L35.875 43.5781ZM33.5312 38.8906L33.5312 41.2344L26.3437 41.2344L26.3437 38.8906L33.5312 38.8906ZM35.875 29.5156L35.875 31.8594L26.3437 31.8594L26.3437 29.5156L35.875 29.5156ZM43.2077 20.1406L43.2077 22.4844L26.3437 22.4844L26.3437 20.1406L43.2077 20.1406ZM31.1875 10.7656L31.1875 13.1094L26.3437 13.1094L26.3437 10.7656L31.1875 10.7656Z" fill="#1D1D1F"/>
</g>
</svg>
