<svg width="50" height="52" viewBox="0 0 50 52" fill="none" xmlns="http://www.w3.org/2000/svg">
<g id="Group">
<path id="Union" d="M12.6499 19.5V34.801H20.4499V32.201H15.7087V28.6L20.4499 28.6V26L15.7087 26V22.1L20.4499 22.1V19.5H12.6499Z" fill="#1D1D1F"/>
<path id="Vector" d="M22.3234 34.7941H31.4998V19.5H22.3234V34.7941ZM25.3822 22.5588H28.441V31.7353H25.3822V22.5588Z" fill="#1D1D1F"/>
<path id="Vector_2" d="M33.3734 34.7941H37.3499C39.9499 34.7941 42.5499 32.5 42.5499 29.25L42.5499 24.7C42.5499 22.1 39.9499 19.5 37.3499 19.5H33.3734V34.7941ZM36.4322 22.5588H36.6999C38.6499 22.5588 39.8439 24.05 39.8439 25.879V28.4257C39.8439 30.55 38.6499 31.7353 36.6999 31.7353H36.4322L36.4322 22.5588Z" fill="#1D1D1F"/>
<path id="Vector_3" d="M9.16872 26C9.16872 16.7246 16.7148 9.17851 25.9901 9.17851C29.2515 9.17851 32.4557 10.1418 35.1759 11.9175L31.8795 15.214L48.9209 19.074L45.0608 2.03247L41.7645 5.32898C37.2579 1.88317 31.7099 0 25.9901 0C19.0453 0 12.5161 2.70451 7.60537 7.61516C2.69462 12.526 -0.0098877 19.0552 -0.0098877 26C-0.0098877 32.9448 2.69462 39.474 7.60537 44.3848C12.5161 49.2955 19.0453 52 25.9901 52H27.5135V42.8215H25.9901C16.7148 42.8215 9.16872 35.2754 9.16872 26ZM24.4667 48.9038C18.9089 48.542 13.7342 46.2047 9.75982 42.2304C5.42462 37.895 3.03699 32.1309 3.03699 26C3.03699 19.8691 5.42462 14.105 9.75982 9.7696C14.0951 5.43441 19.8592 3.04688 25.9901 3.04688C31.4582 3.04688 36.747 4.99525 40.8823 8.53298L41.9533 9.44917L43.3096 8.09291L44.8821 15.0351L37.9399 13.4626L39.7859 11.6166L38.4703 10.552C34.9483 7.70159 30.5162 6.13173 25.9902 6.13173C15.0348 6.13163 6.12185 15.0446 6.12185 26C6.12185 36.4433 14.2198 45.0304 24.4667 45.8106V48.9038Z" fill="#59A745"/>
<path id="Vector_4" d="M46.9503 24.4087L49.9905 24.2066C49.9259 23.235 49.8016 22.2595 49.621 21.3071L46.6274 21.8747C46.7852 22.7067 46.8937 23.5593 46.9503 24.4087Z" fill="#1D1D1F"/>
<path id="Vector_5" d="M46.9674 26.9653C46.9224 27.8147 46.8253 28.6686 46.6788 29.5032L49.6799 30.0297C49.8474 29.0748 49.9584 28.098 50.0099 27.1266L46.9674 26.9653Z" fill="#1D1D1F"/>
<path id="Vector_6" d="M29.7765 46.5676L30.3319 49.5635C31.2878 49.3863 32.2424 49.1483 33.1692 48.8561L32.2531 45.9502C31.4442 46.2051 30.6109 46.4129 29.7765 46.5676Z" fill="#1D1D1F"/>
<path id="Vector_7" d="M34.6364 45.0359L35.8988 47.809C36.7815 47.4071 37.6498 46.9462 38.4795 46.4389L36.8903 43.8394C36.1655 44.2825 35.4072 44.6851 34.6364 45.0359Z" fill="#1D1D1F"/>
<path id="Vector_8" d="M42.5743 38.7547L44.9805 40.6237C45.5766 39.8562 46.132 39.0444 46.6308 38.2109L44.0166 36.646C43.5805 37.3745 43.0954 38.0839 42.5743 38.7547Z" fill="#1D1D1F"/>
<path id="Vector_9" d="M38.9843 42.3781L40.8753 44.7672C41.6364 44.1647 42.369 43.5093 43.0527 42.8193L40.8884 40.6748C40.2906 41.2783 39.65 41.8513 38.9843 42.3781Z" fill="#1D1D1F"/>
<path id="Vector_10" d="M45.1931 34.379L47.9779 35.6152C48.3727 34.726 48.7164 33.8036 48.9997 32.8737L46.0852 31.9858C45.8379 32.7975 45.5378 33.6026 45.1931 34.379Z" fill="#1D1D1F"/>
</g>
</svg>
