<svg width="52" height="52" viewBox="0 0 52 52" fill="none" xmlns="http://www.w3.org/2000/svg">
<g id="Icons - Market Data Types" clip-path="url(#clip0_85_13619)">
<path id="Vector" d="M42.7578 45.9062H39.7109V48.9531H30.5703V45.9062H27.5234V48.9531H18.3828V45.9062H15.3359V48.9531H9.14062V42.8594H3.04688V36.7656H6.09375V33.7188H3.04688V24.4766H6.09375V21.4297H3.04688V12.2891H6.09375V9.24219H3.04688V0H0V52H52V48.9531H42.7578V45.9062ZM3.04688 45.9062H6.09375V48.9531H3.04688V45.9062Z" fill="#1D1D1F"/>
<path id="Vector_2" d="M15.3359 9.24219V15.3359H12.2891V33.7188H15.3359V39.8125H18.3828V33.7188H21.4297V15.3359H18.3828V9.24219H15.3359ZM18.3828 30.6719H15.3359V18.3828H18.3828V30.6719Z" fill="#59A745"/>
<path id="Vector_3" d="M27.5234 3.14844V9.24219H24.4766V27.5234H27.5234V33.7188H30.5703V27.5234H33.6172V9.24219H30.5703V3.14844H27.5234ZM30.5703 24.4766H27.5234V12.2891H30.5703V24.4766Z" fill="#59A745"/>
<path id="Vector_4" d="M39.7109 12.2891V18.3828H36.6641V36.7656H39.7109V42.8594H42.7578V36.7656H45.8047V18.3828H42.7578V12.2891H39.7109ZM42.7578 33.7188H39.7109V21.4297H42.7578V33.7188Z" fill="#1D1D1F"/>
</g>
<defs>
<clipPath id="clip0_85_13619">
<rect width="52" height="52" fill="white"/>
</clipPath>
</defs>
</svg>
