<svg width="52" height="52" viewBox="0 0 52 52" fill="none" xmlns="http://www.w3.org/2000/svg">
<g id="Group">
<path id="Vector" d="M43.1955 42.2921L45.19 44.2867H7.26158V6.35821L9.25618 8.35271L11.4379 6.17113L5.71888 0.452148L0 6.17113L2.18168 8.35271L4.17618 6.35821V47.372H45.19L43.1955 49.3667L45.3772 51.5482L51.0961 45.8294L45.3772 40.1105L43.1955 42.2921Z" fill="#1D1D1F"/>
<path id="Vector_2" d="M14.9751 38.1159C18.818 38.15 21.0043 33.5558 18.5939 30.6078L22.9689 23.6083L27.5564 28.1958L33.5616 19.1881L38.1155 25.26L42.4801 19.4405L44.0423 22.5644C41.2267 25.4417 43.303 30.4136 47.3717 30.4024C49.9236 30.4024 51.9997 28.3263 51.9997 25.7743C52.0197 23.0205 49.5298 20.822 46.8009 21.1826L43.0069 13.5957L38.1154 20.1177L33.4132 13.8481L27.0768 23.3527L22.4081 18.684L15.9786 28.9705C13.0786 28.3266 10.3469 30.5449 10.3469 33.4878C10.347 36.0399 12.4231 38.1159 14.9751 38.1159ZM48.9144 25.7744C48.9144 26.6251 48.2224 27.3171 47.3717 27.3171C45.3279 27.2396 45.3285 24.3088 47.3717 24.2317C48.2225 24.2317 48.9144 24.9237 48.9144 25.7744ZM14.9751 31.9452C15.8257 31.9452 16.5178 32.6372 16.5178 33.4879C16.4403 35.5316 13.5095 35.5311 13.4324 33.4879C13.4324 32.6372 14.1244 31.9452 14.9751 31.9452Z" fill="#59A745"/>
</g>
</svg>
