<svg width="30" height="30" viewBox="0 0 30 30" fill="none" xmlns="http://www.w3.org/2000/svg">
<g id="Icon">
<path id="Vector" d="M30 12.5C30 9.05375 27.1963 6.25 23.75 6.25H21.25V5C21.25 2.9325 19.5675 1.25 17.5 1.25H15V3.75H17.5C18.19 3.75 18.75 4.31125 18.75 5V21.25H2.5V16.25H0V23.75H2.54625C2.51625 23.9562 2.5 24.1637 2.5 24.375C2.5 26.7875 4.4625 28.75 6.875 28.75C9.2875 28.75 11.25 26.7875 11.25 24.375C11.25 24.1637 11.2338 23.9562 11.2038 23.75H18.7962C18.7662 23.9562 18.75 24.1637 18.75 24.375C18.75 26.7875 20.7125 28.75 23.125 28.75C25.5375 28.75 27.5 26.7875 27.5 24.375C27.5 24.1637 27.4837 23.9562 27.4537 23.75H30V12.5ZM8.75 24.375C8.75 25.4088 7.90875 26.25 6.875 26.25C5.84125 26.25 5 25.4088 5 24.375C5 24.1388 5.04625 23.93 5.11375 23.75H8.6375C8.705 23.93 8.75 24.1388 8.75 24.375ZM23.75 8.75C25.8175 8.75 27.5 10.4325 27.5 12.5V13.75H21.25V8.75H23.75ZM25 24.375C25 25.4088 24.1588 26.25 23.125 26.25C22.0912 26.25 21.25 25.4088 21.25 24.375C21.25 24.1388 21.2962 23.93 21.3638 23.75H24.8875C24.955 23.93 25 24.1388 25 24.375ZM21.25 21.25V16.25H27.5V21.25H21.25ZM12.5 3.75H0V1.25H12.5V3.75ZM10 8.75H0V6.25H10V8.75ZM7.5 13.75H0V11.25H7.5V13.75Z" fill="#59A745"/>
</g>
</svg>
