<svg width="30" height="30" viewBox="0 0 30 30" fill="none" xmlns="http://www.w3.org/2000/svg">
<g id="Icon" clip-path="url(#clip0_85_13909)">
<path id="Vector" d="M11.25 13.75C11.25 16.1625 13.2125 18.125 15.625 18.125C18.0375 18.125 20 16.1625 20 13.75C20 11.3375 18.0375 9.375 15.625 9.375C13.2125 9.375 11.25 11.3375 11.25 13.75ZM17.5 13.75C17.5 14.7838 16.6588 15.625 15.625 15.625C14.5912 15.625 13.75 14.7838 13.75 13.75C13.75 12.7162 14.5912 11.875 15.625 11.875C16.6588 11.875 17.5 12.7162 17.5 13.75ZM29.375 21.9825L25.2588 17.8663L23.4912 19.6337L26.3575 22.5H8.68625C8.41 20.5913 6.9075 19.09 5 18.8137V8.68625C6.90875 8.41 8.41 6.9075 8.68625 5H21.3125C21.6187 7.115 23.4263 8.75 25.6238 8.75C28.0363 8.75 29.9988 6.7875 29.9988 4.375C29.9988 1.9625 28.0363 0 25.6238 0C23.885 0 22.3925 1.0275 21.6875 2.5H8.31125C7.60625 1.0275 6.11375 0 4.375 0C1.9625 0 0 1.9625 0 4.375C0 6.11375 1.0275 7.60625 2.5 8.31125V19.1887C1.0275 19.8937 0 21.3862 0 23.125C0 25.5375 1.9625 27.5 4.375 27.5C6.11375 27.5 7.60625 26.4725 8.31125 25H26.3575L23.4912 27.8662L25.2588 29.6338L29.375 25.5175C30.35 24.5425 30.35 22.9575 29.375 21.9825ZM25.625 2.5C26.6588 2.5 27.5 3.34125 27.5 4.375C27.5 5.40875 26.6588 6.25 25.625 6.25C24.5912 6.25 23.75 5.40875 23.75 4.375C23.75 3.34125 24.5912 2.5 25.625 2.5ZM4.375 2.5C5.40875 2.5 6.25 3.34125 6.25 4.375C6.25 5.40875 5.40875 6.25 4.375 6.25C3.34125 6.25 2.5 5.40875 2.5 4.375C2.5 3.34125 3.34125 2.5 4.375 2.5ZM4.375 25C3.34125 25 2.5 24.1588 2.5 23.125C2.5 22.0912 3.34125 21.25 4.375 21.25C5.40875 21.25 6.25 22.0912 6.25 23.125C6.25 24.1588 5.40875 25 4.375 25Z" fill="#59A745"/>
</g>
<defs>
<clipPath id="clip0_85_13909">
<rect width="30" height="30" fill="white"/>
</clipPath>
</defs>
</svg>
