<svg width="30" height="30" viewBox="0 0 30 30" fill="none" xmlns="http://www.w3.org/2000/svg">
<g id="Icon" clip-path="url(#clip0_85_13902)">
<path id="Vector" d="M30 25H18.52C18.3332 24.4772 18.0327 24.0024 17.6402 23.6098C17.2476 23.2173 16.7728 22.9168 16.25 22.73V18.75H26.25V6.25C26.25 5.25544 25.8549 4.30161 25.1517 3.59835C24.4484 2.89509 23.4946 2.5 22.5 2.5H15.3887L11.75 0H7.5C6.50544 0 5.55161 0.395088 4.84835 1.09835C4.14509 1.80161 3.75 2.75544 3.75 3.75V18.75H13.75V22.73C13.2272 22.9168 12.7524 23.2173 12.3598 23.6098C11.9673 24.0024 11.6668 24.4772 11.48 25H0V27.5H11.48C11.7346 28.2307 12.2102 28.864 12.8409 29.3122C13.4717 29.7604 14.2262 30.0012 15 30.0012C15.7738 30.0012 16.5283 29.7604 17.1591 29.3122C17.7898 28.864 18.2654 28.2307 18.52 27.5H30V25ZM7.5 2.5H10.975L14.6113 5H22.5C22.8315 5 23.1495 5.1317 23.3839 5.36612C23.6183 5.60054 23.75 5.91848 23.75 6.25V7.5H6.25V3.75C6.25 3.41848 6.3817 3.10054 6.61612 2.86612C6.85054 2.6317 7.16848 2.5 7.5 2.5ZM6.25 10H23.75V16.25H6.25V10ZM15 27.5C14.7528 27.5 14.5111 27.4267 14.3055 27.2893C14.1 27.152 13.9398 26.9568 13.8452 26.7284C13.7505 26.4999 13.7258 26.2486 13.774 26.0061C13.8222 25.7637 13.9413 25.5409 14.1161 25.3661C14.2909 25.1913 14.5137 25.0722 14.7561 25.024C14.9986 24.9758 15.2499 25.0005 15.4784 25.0952C15.7068 25.1898 15.902 25.35 16.0393 25.5555C16.1767 25.7611 16.25 26.0028 16.25 26.25C16.25 26.5815 16.1183 26.8995 15.8839 27.1339C15.6495 27.3683 15.3315 27.5 15 27.5Z" fill="#59A745"/>
</g>
<defs>
<clipPath id="clip0_85_13902">
<rect width="30" height="30" fill="white"/>
</clipPath>
</defs>
</svg>
