<svg width="26" height="30" viewBox="0 0 26 30" fill="none" xmlns="http://www.w3.org/2000/svg">
<g id="01 align center">
<path id="Vector" d="M12.935 30.0117L12.4925 29.8155C12 29.5992 0.5 24.4055 0.5 15.0005V6.84547C0.500438 6.06068 0.748479 5.29604 1.2088 4.66043C1.66912 4.02483 2.31825 3.55067 3.06375 3.30547L13 0.0117188L22.9362 3.30547C23.6817 3.55067 24.3309 4.02483 24.7912 4.66043C25.2515 5.29604 25.4996 6.06068 25.5 6.84547V15.0005C25.5 25.7217 13.89 29.6942 13.395 29.8592L12.935 30.0117ZM13 2.63297L3.855 5.66547C3.60618 5.74674 3.38946 5.90466 3.23588 6.11663C3.0823 6.32859 2.99973 6.58371 3 6.84547V15.0005C3 21.868 11.05 26.323 13.0587 27.3267C15.0637 26.5205 23 22.8292 23 15.0005V6.84547C23.0003 6.58371 22.9177 6.32859 22.7641 6.11663C22.6105 5.90466 22.3938 5.74674 22.145 5.66547L13 2.63297Z" fill="#59A745"/>
<path id="Vector_2" d="M11.8887 18.1782H11.8474C11.5311 18.1733 11.2189 18.1044 10.93 17.9754C10.641 17.8465 10.3812 17.6604 10.1662 17.4282L7.28369 14.4282L9.08494 12.7007L11.8899 15.6257L18.3662 9.14941L20.1337 10.9169L13.5574 17.4932C13.3384 17.712 13.0781 17.8853 12.7917 18.0028C12.5052 18.1204 12.1983 18.18 11.8887 18.1782Z" fill="#59A745"/>
</g>
</svg>
