<svg width="56" height="56" viewBox="0 0 56 56" fill="none" xmlns="http://www.w3.org/2000/svg">
<g id="Group 47276">
<g id="XMLID_608_">
<path id="XMLID_928_" d="M-7.62939e-06 56L-1.00772e-05 -4.61936e-07L3.49999 -6.14926e-07L3.49999 56L-7.62939e-06 56Z" fill="white"/>
<path id="XMLID_928__2" d="M2.38296 11.8652L9.53189 11.8652V15.4397L2.38296 15.4397L2.38296 11.8652Z" fill="white"/>
<path id="XMLID_928__3" d="M2.38297 27.3301H9.5319V30.9045H2.38297L2.38297 27.3301Z" fill="white"/>
<path id="XMLID_929_" d="M6.99999 30.167V8.16699H56L52.325 11.8337H10.675V30.167H52.325V11.8337L56 8.16699V30.167V33.8337H6.99999V30.167Z" fill="white"/>
</g>
<g id="Vector 3040 (Stroke)">
<path fill-rule="evenodd" clip-rule="evenodd" d="M20.1017 23.2068L18.2457 15.75H16.9481L14.5101 23.5622L13.0428 15.75H11.6667L13.7042 26.25H15.0018L17.5278 18.291L19.5432 26.25H20.8408L22.7871 15.75H21.5021L20.1017 23.2068ZM30.5724 26.25L27.3212 15.75H26.0383L22.7871 26.2496L24.0847 26.25L24.7685 24.1761H28.591L29.2749 26.2496L30.5724 26.25ZM28.1585 22.7943H25.201L26.6798 18.0703L28.1585 22.7943ZM33.8163 15.8855H32.5188L32.5188 26.2496H36.4114V24.8678H33.8163L33.8163 15.8855ZM39.6553 15.8855H38.3578L38.3578 26.2496H42.2504V24.8678H39.6553L39.6553 15.8855ZM44.1968 15.8855C43.2031 15.8855 42.4763 16.0497 42.035 16.5197C41.5967 16.9863 41.5999 17.5989 41.6015 17.9085L41.6017 17.9581C41.6017 19.2017 42.7262 20.0308 44.1968 20.0308C45.3213 20.0308 45.4943 20.5835 45.4943 20.7217C45.4943 20.8599 45.3213 21.4126 44.1968 21.4126C43.0722 21.4126 42.8992 20.8599 42.8992 20.7217H41.6017C41.6017 21.9653 42.7262 22.7943 44.1968 22.7943C45.6673 22.7943 46.7919 21.9653 46.7919 20.7217C46.7919 19.4781 45.6673 18.649 44.1968 18.649C43.0722 18.649 42.8992 18.0963 42.8992 17.9581C42.8992 17.5567 42.929 17.5218 42.9525 17.4967C42.9978 17.4485 43.2441 17.2673 44.1968 17.2673C44.8532 17.2673 45.1683 17.4587 45.313 17.6015C45.4676 17.7538 45.4943 17.9132 45.4943 17.9581H46.7919C46.7919 17.5425 46.624 17.011 46.1946 16.5876C45.7555 16.1546 45.0974 15.8855 44.1968 15.8855ZM47.4407 17.2673H48.7382V22.7943H50.0358V17.2673H51.3333V15.8855H47.4407V17.2673Z" fill="white"/>
<path d="M41.6017 17.9581C41.6017 19.2017 42.7262 20.0308 44.1968 20.0308C45.3213 20.0308 45.4943 20.5835 45.4943 20.7217C45.4943 20.8599 45.3213 21.4126 44.1968 21.4126C43.0722 21.4126 42.8992 20.8599 42.8992 20.7217H41.6017C41.6017 21.9653 42.7262 22.7943 44.1968 22.7943C45.6673 22.7943 46.7919 21.9653 46.7919 20.7217C46.7919 19.4781 45.6673 18.649 44.1968 18.649C43.0722 18.649 42.8992 18.0963 42.8992 17.9581C42.8992 17.5567 42.929 17.5218 42.9525 17.4967C42.9978 17.4485 43.2441 17.2673 44.1968 17.2673C44.8532 17.2673 45.1683 17.4587 45.313 17.6015C45.4676 17.7538 45.4943 17.9132 45.4943 17.9581H46.7919C46.7919 17.5425 46.624 17.011 46.1946 16.5876C45.7555 16.1546 45.0974 15.8855 44.1968 15.8855C43.2031 15.8855 42.4763 16.0497 42.035 16.5197C41.5967 16.9863 41.5999 17.5989 41.6015 17.9085M41.6017 17.9581C41.6017 17.9426 41.6016 17.9261 41.6015 17.9085M41.6017 17.9581L41.6015 17.9085M18.2457 15.75L20.1017 23.2068L21.5021 15.75H22.7871L20.8408 26.25H19.5432L17.5278 18.291L15.0018 26.25H13.7042L11.6667 15.75H13.0428L14.5101 23.5622L16.9481 15.75H18.2457ZM30.5724 26.25L29.2749 26.2496L28.591 24.1761H24.7685L24.0847 26.25L22.7871 26.2496L26.0383 15.75H27.3212L30.5724 26.25ZM28.1585 22.7943H25.201L26.6798 18.0703L28.1585 22.7943ZM32.5188 15.8855H33.8163L33.8163 24.8678H36.4114V26.2496H32.5188L32.5188 15.8855ZM38.3578 15.8855H39.6553L39.6553 24.8678H42.2504V26.2496H38.3578L38.3578 15.8855ZM47.4407 17.2673H48.7382V22.7943H50.0358V17.2673H51.3333V15.8855H47.4407V17.2673Z" stroke="white" stroke-width="0.5"/>
</g>
</g>
</svg>
