<svg width="52" height="56" viewBox="0 0 52 56" fill="none" xmlns="http://www.w3.org/2000/svg">
<g id="Group">
<path id="Vector" d="M40.9231 11.0243L40.8671 10.915C38.7772 7.18566 35.6563 4.19763 31.8419 2.27394C27.8691 0.270288 23.3977 -0.428292 18.9119 0.253992C9.86864 1.6295 2.57833 8.90274 1.18314 17.9415C0.21134 24.2371 2.02227 30.5702 6.15152 35.3172C7.26212 36.5941 7.70454 38.2022 7.36405 39.7344L3.80476 56H26.8531L29.0407 45.9375H43.5778V32.8124H51.074L40.9231 11.0243ZM40.2964 29.5312V36.0937H37.0152V39.375H40.2964V42.6562H26.3961L24.2084 52.7188H7.88162L10.5682 40.441C11.1358 37.887 10.4283 35.2345 8.62712 33.1637C5.13312 29.1469 3.60187 23.7811 4.4259 18.442C5.60464 10.8053 11.7644 4.66018 19.4053 3.49807C26.967 2.34798 34.249 5.86725 37.9752 12.4669L45.9253 29.5312H40.2964Z" fill="white"/>
<path id="Vector_2" d="M30.4526 13.125H27.1713V9.84375H23.8901V13.125H20.6088V9.84375H17.3276V13.125H14.0463V16.4062H10.7651V19.6875H14.0463V22.9688H10.7651V26.25H14.0463V29.5312H17.3276V32.8125H20.6088V29.5312H23.8901V32.8125H27.1713V29.5312H30.4526V26.25H33.7338V22.9688H30.4526V19.6875H33.7338V16.4062H30.4526V13.125ZM27.1713 26.25H17.3276V16.4062H27.1713V26.25Z" fill="white"/>
<path id="Vector_3" d="M20.6089 19.6875H23.8901V22.9688H20.6089V19.6875Z" fill="white"/>
</g>
</svg>
