<svg width="56" height="56" viewBox="0 0 56 56" fill="none" xmlns="http://www.w3.org/2000/svg">
<g id="Group">
<path id="Vector" d="M0 30.1211V55.9768H11.2265V50.814H13.8441L19.9569 54.3719H37.8295L56 36.2014L53.2032 33.4046C51.908 32.1093 50.1859 31.396 48.3543 31.396C46.5225 31.396 44.8005 32.1093 43.5053 33.4046L38.7637 38.1462C38.1918 35.6203 35.9305 33.728 33.2343 33.728H26.5112L17.0205 30.1211H0ZM7.9485 52.6988H3.278V33.3991H7.9485V52.6988ZM36.4716 51.0939H20.8413L14.7285 47.536H11.2265V33.3991H16.4184L25.9091 37.006H33.2342C34.5534 37.006 35.6267 38.0792 35.6267 39.3985V40.3229H25.924V43.6009H37.9445L45.8231 35.7223C46.4991 35.0462 47.3981 34.6739 48.3542 34.6739C49.3102 34.6739 50.2092 35.0462 50.8853 35.7223L51.3641 36.2012L36.4716 51.0939Z" fill="white"/>
<path id="Vector_2" d="M27.9771 13.0169C31.5598 13.0169 34.4743 10.1022 34.4743 6.51968C34.4743 2.93715 31.5598 0.0224609 27.9771 0.0224609C24.3946 0.0224609 21.48 2.93715 21.48 6.51968C21.48 10.1022 24.3946 13.0169 27.9771 13.0169ZM27.9771 3.30047C29.7522 3.30047 31.1963 4.74464 31.1963 6.51968C31.1963 8.29472 29.7522 9.7389 27.9771 9.7389C26.2021 9.7389 24.758 8.29472 24.758 6.51968C24.758 4.74464 26.2021 3.30047 27.9771 3.30047Z" fill="white"/>
<path id="Vector_3" d="M38.3894 19.7414C38.3894 16.0339 35.373 13.0176 31.6654 13.0176H24.2889C20.5814 13.0176 17.565 16.0339 17.565 19.7414V25.6624H38.3894V19.7414ZM35.1114 22.3845H20.843V19.7415C20.843 17.8415 22.3888 16.2957 24.2889 16.2957H31.6654C33.5654 16.2957 35.1114 17.8415 35.1114 19.7415V22.3845Z" fill="white"/>
</g>
</svg>
