<svg width="56" height="56" viewBox="0 0 56 56" fill="none" xmlns="http://www.w3.org/2000/svg">
<g id="Icons - We are" opacity="0.5" clip-path="url(#clip0_85_9374)">
<path id="Vector" d="M18.0482 19.7448C11.0067 18.5685 4.01013 22.3351 1.16681 28.9694L0 31.6918L9.64722 33.6213L7.20166 37.6968L9.46606 39.9608C8.96832 40.1992 8.50946 40.5222 8.10785 40.9238C7.03973 41.9919 7.37256 42.0175 1.14545 54.8494C14.1038 48.5612 14.0214 48.9368 15.0711 47.887C15.4778 47.4803 15.7979 47.0189 16.032 46.5271L18.2985 48.7932L22.374 46.3481L24.3035 55.9953L27.0259 54.8285C33.6606 51.9847 37.4268 44.9869 36.2501 37.9459C47.8332 30.0905 55.9398 15.9824 55.9936 1.64746L56 0H54.3525C40.168 0.000427246 26.0428 7.93652 18.0482 19.7448ZM4.65826 29.2758C6.92865 25.0392 11.4075 22.5641 16.1238 22.8269L11.4404 30.6323L4.65826 29.2758ZM13.1015 34.3121L16.2319 37.4421L13.9107 39.7634L11.3353 37.1879L13.0652 34.3049L13.1015 34.3121ZM12.7503 45.5658C12.3983 45.9178 12.4329 45.7888 8.10699 47.8883C10.2065 43.5624 10.077 43.5966 10.4291 43.245C11.0704 42.6037 12.1082 42.6033 12.7499 43.2446C13.3895 43.8846 13.3899 44.9262 12.7503 45.5658ZM18.8074 44.66L16.2319 42.0842L18.5527 39.7634L21.6832 42.8934L21.6904 42.9301L18.8074 44.66ZM26.7191 51.337L25.363 44.5545L33.1684 39.8715C33.4312 44.5878 30.9557 49.0667 26.7191 51.337ZM32.6215 36.3715L24.6098 41.1784L20.874 37.4421L27.8372 30.4789L25.516 28.1581L18.5527 35.1213L14.8169 31.3851L19.6238 23.3734C23.998 16.0828 30.8557 10.2445 38.6021 6.77911L49.1957 17.3731C45.726 25.1409 39.8928 32.0084 32.6215 36.3715ZM50.5154 14.0508L41.9235 5.4585C45.4205 4.23828 49.0457 3.50043 52.6641 3.32397C52.4761 6.93933 51.7335 10.5594 50.5154 14.0508Z" fill="white"/>
<path id="Vector_2" d="M38.2821 17.7137C35.7225 15.154 31.5577 15.154 28.9976 17.7137C26.438 20.2733 26.438 24.4381 28.9976 26.9977C31.5573 29.5574 35.722 29.5578 38.2821 26.9977C40.8477 24.4321 40.8481 20.2793 38.2821 17.7137ZM35.9609 24.6769C34.6808 25.957 32.5989 25.9565 31.3188 24.6769C30.0388 23.3969 30.0388 21.3145 31.3188 20.0349C32.5984 18.7549 34.6808 18.7549 35.9609 20.0349C37.2439 21.3175 37.2439 23.3939 35.9609 24.6769Z" fill="white"/>
</g>
<defs>
<clipPath id="clip0_85_9374">
<rect width="56" height="56" fill="white"/>
</clipPath>
</defs>
</svg>
