<svg width="56" height="50" viewBox="0 0 56 50" fill="none" xmlns="http://www.w3.org/2000/svg">
<g id="XMLID_608_">
<path id="XMLID_609_" d="M41.1765 10.176H44.4706V23.3524H47.7647V10.176H51.0588V6.88184H41.1765V10.176Z" fill="white"/>
<path id="XMLID_651_" d="M33.7647 20.0583H29.647V23.3524H33.7647C36.0352 23.3524 37.8823 21.5053 37.8823 19.2348V17.5877C37.8823 15.3172 36.0352 13.4701 33.7647 13.4701C33.3105 13.4701 32.9412 13.1007 32.9412 12.6465V10.9995C32.9412 10.5453 33.3105 10.176 33.7647 10.176H37.8823V6.88184H33.7647C31.4942 6.88184 29.647 8.72896 29.647 10.9995V12.6465C29.647 14.9171 31.4942 16.7642 33.7647 16.7642C34.2188 16.7642 34.5882 17.1336 34.5882 17.5877V19.2348C34.5882 19.6889 34.2188 20.0583 33.7647 20.0583Z" fill="white"/>
<path id="XMLID_652_" d="M26.353 10.176V6.88184H18.1177V23.3524H26.353V20.0583H21.4118V16.7642H24.7059V13.4701H21.4118V10.176H26.353Z" fill="white"/>
<path id="XMLID_917_" d="M9.88234 6.88184H4.94116V23.3524H9.88234C12.6069 23.3524 14.8235 21.1359 14.8235 18.4112C14.8235 17.1466 14.3454 15.992 13.5613 15.1171C14.3455 14.2422 14.8235 13.0876 14.8235 11.823C14.8235 9.09845 12.6069 6.88184 9.88234 6.88184ZM8.23528 10.176H9.88234C10.7905 10.176 11.5294 10.9148 11.5294 11.823C11.5294 12.7312 10.7905 13.4701 9.88234 13.4701H8.23528V10.176ZM9.88234 20.0583H8.23528V16.7642H9.88234C10.7905 16.7642 11.5294 17.5031 11.5294 18.4112C11.5294 19.3194 10.7905 20.0583 9.88234 20.0583Z" fill="white"/>
<path id="XMLID_919_" d="M55.1216 29.9406V26.6465H46.8863V43.1171H55.1216V39.823H50.1804V36.5288H53.4745V33.2347H50.1804V29.9406H55.1216Z" fill="white"/>
<path id="XMLID_920_" d="M33.7098 31.5877V38.1759C33.7098 40.9006 35.9537 43.1171 38.6784 43.1171C41.4031 43.1171 43.647 40.9006 43.647 38.1759H40.3529C40.3529 39.0842 39.5867 39.823 38.6784 39.823C37.7701 39.823 37.0039 39.0842 37.0039 38.1759V31.5877C37.0039 30.6794 37.7701 29.9406 38.6784 29.9406C39.5867 29.9406 40.3529 30.6794 40.3529 31.5877H43.647C43.647 28.863 41.4031 26.6465 38.6784 26.6465C35.9537 26.6465 33.7098 28.863 33.7098 31.5877Z" fill="white"/>
<path id="XMLID_921_" d="M27.1216 26.6465H30.4157V43.1171H27.1216V26.6465Z" fill="white"/>
<path id="XMLID_924_" d="M13.9451 43.1171H17.2392V36.5288H18.9411C19.8493 36.5288 20.5333 37.2676 20.5333 38.1759V43.1171H23.8274V38.1759C23.8274 36.9113 23.3768 35.7567 22.5927 34.8818C23.3769 34.0069 23.8686 32.8523 23.8686 31.5877C23.8686 28.863 21.6658 26.6465 18.9411 26.6465H13.9451V43.1171ZM17.2392 29.9406H18.9411C19.8493 29.9406 20.5882 30.6794 20.5882 31.5877C20.5882 32.496 19.8493 33.2347 18.9411 33.2347H17.2392V29.9406Z" fill="white"/>
<path id="XMLID_927_" d="M0.768616 43.1171H4.06273V36.5288H5.76469C8.48926 36.5288 10.7059 34.3123 10.7059 31.5877C10.7059 28.863 8.48926 26.6465 5.76469 26.6465H0.768616V43.1171ZM4.06273 29.9406H5.76469C6.67288 29.9406 7.41175 30.6794 7.41175 31.5877C7.41175 32.496 6.67288 33.2347 5.76469 33.2347H4.06273V29.9406Z" fill="white"/>
<path id="XMLID_928_" d="M0 0.293945H56V3.58806H0V0.293945Z" fill="white"/>
<path id="XMLID_929_" d="M0 46.4111H56V49.7052H0V46.4111Z" fill="white"/>
</g>
</svg>
