<svg width="56" height="56" viewBox="0 0 56 56" fill="none" xmlns="http://www.w3.org/2000/svg">
<g id="Icons - We are" opacity="0.5" clip-path="url(#clip0_85_15021)">
<path id="Vector" d="M42.7656 3.5V0H13.2344V3.5C10.6704 3.5 2.569 3.5 0 3.5V14.9844C0 19.5987 2.72541 23.5989 6.67188 25.4146V41.7874L11.5816 36.9799L16.5156 41.9139V30.8308C18.1997 32.916 20.4497 34.5467 23.0781 35.4725V46.1562H18.5437C15.616 46.1562 13.2344 48.5379 13.2344 51.4655V56H42.7656V51.4655C42.7656 48.5379 40.384 46.1562 37.4565 46.1562H32.9219V35.4725C35.5502 34.5465 37.8003 32.9155 39.4844 30.8303V41.7874L44.3941 36.9799L49.3281 41.9139V25.4146C53.2648 23.6035 56 19.6095 56 14.9844V3.5C51.7476 3.5 46.9067 3.5 42.7656 3.5ZM6.67188 21.6362C4.57745 20.1266 3.28125 17.6825 3.28125 14.9844V6.78125H6.67188V21.6362ZM13.2344 33.9923L11.6059 32.3638L9.95312 33.9822V6.78125H13.2344V33.9923ZM39.4844 21.5469C39.4844 26.7906 35.9429 31.3644 30.8724 32.6694L29.6406 32.9864V49.4375H37.4565C38.5747 49.4375 39.4844 50.3473 39.4844 51.4655V52.7188H16.5156V51.4655C16.5156 50.3473 17.4254 49.4375 18.5437 49.4375H26.3594V32.9864L25.1277 32.6694C20.057 31.3644 16.5156 26.7906 16.5156 21.5469V3.28125H39.4844V21.5469ZM46.0469 33.9923L44.4184 32.3638L42.7656 33.9822C42.7656 32.7471 42.7656 8.82908 42.7656 6.78125H46.0469V33.9923ZM52.7188 14.9844C52.7188 17.6825 51.4225 20.1266 49.3281 21.6362V6.78125H52.7188V14.9844Z" fill="white"/>
<path id="Vector_2" d="M21.7572 24.5898L28 21.3851L34.2429 24.5897L33.0493 17.7955L38.1488 12.9422L31.1059 11.9431L28 5.79883L24.8941 11.9432L17.8512 12.9423L22.9508 17.7956L21.7572 24.5898ZM27.05 14.9514L28 13.0722L28.95 14.9514L30.9762 15.2389L29.5132 16.6311L29.869 18.6562L28 17.6967L26.131 18.6562L26.4868 16.6311L25.0239 15.2389L27.05 14.9514Z" fill="white"/>
</g>
<defs>
<clipPath id="clip0_85_15021">
<rect width="56" height="56" fill="white"/>
</clipPath>
</defs>
</svg>
