<svg width="56" height="53" viewBox="0 0 56 53" fill="none" xmlns="http://www.w3.org/2000/svg">
<g id="Group">
<path id="Vector" d="M21.4375 27.3217C24.051 27.3217 26.1772 25.1955 26.1772 22.582H22.8959C22.8959 23.3863 22.2417 24.0404 21.4375 24.0404C20.6334 24.0404 19.9791 23.3863 19.9791 22.582H16.6979C16.6979 25.1954 18.824 27.3217 21.4375 27.3217Z" fill="white"/>
<path id="Vector_2" fill-rule="evenodd" clip-rule="evenodd" d="M48.0213 24.2988L49.8206 25.1896C53.6322 27.0765 56 30.8895 56 35.141C56 39.2825 53.7324 43.014 50.1373 44.9319V52.3318L0 52.3169V49.5982C0 41.1185 6.57114 34.1449 14.8887 33.5015L15.3393 31.8986C12.2325 29.8906 10.1719 26.3967 10.1719 22.4304V17.7219H13.4531V22.4304C13.4531 26.8329 17.0349 30.4148 21.4375 30.4148C25.8401 30.4148 29.4219 26.8329 29.4219 22.4304V17.7219H32.7031V22.4304C32.7031 26.3967 30.6425 29.8907 27.5357 31.8986L27.9869 33.5032C30.0095 33.6622 31.9835 34.2023 33.7979 35.0843C33.8189 30.87 36.1704 27.0881 39.9468 25.205L41.749 24.3064L43.8077 32.0743H45.9605L48.0213 24.2988ZM24.5127 33.2693C23.5348 33.5471 22.5032 33.696 21.4375 33.696C20.3717 33.696 19.3402 33.5473 18.3623 33.2693L17.9903 34.5925L21.4375 37.9121L24.8847 34.5925L24.5127 33.2693ZM19.7969 40.8875L15.5003 36.7502C8.89153 37.078 3.57941 42.4161 3.29339 49.0356H19.7969V40.8875ZM23.0781 40.8875V49.0356H39.6595V44.9318C37.3901 43.7212 35.6506 41.7875 34.6756 39.4845C32.5885 37.8432 30.0247 36.8856 27.3727 36.7519L23.0781 40.8875ZM46.856 42.7939L47.8726 42.3759C50.8165 41.1649 52.7187 38.3251 52.7187 35.141C52.7187 32.8553 51.7472 30.7494 50.0931 29.2892L48.4853 35.3555H41.2827L39.6806 29.3106C38.0411 30.7703 37.0781 32.8679 37.0781 35.141C37.0781 38.3251 38.9804 41.1649 41.9243 42.3759L42.9408 42.7939V49.0505H46.856V42.7939Z" fill="white"/>
<g id="Vector_3">
<path fill-rule="evenodd" clip-rule="evenodd" d="M10.1789 18.0732L32.6658 18.0732V11.0089L35.2636 9.95823V25.6668H38.1795V8.77913L40.6136 7.79474L21.5102 0L2.01941 7.77563L10.1761 11.0743L10.1789 18.0732ZM32.738 7.77564L21.4955 3.20419L9.98918 7.79453L21.293 12.3659L32.738 7.77564ZM29.75 12.1882L22.4836 15.0939L21.293 15.5701L20.1156 15.0939L13.092 12.2535V15.0939L20.1156 15.0939L22.4836 15.0939L29.75 15.094V12.1882Z" fill="white"/>
<path d="M21.293 15.5701L22.4836 15.0939L20.1156 15.0939L21.293 15.5701Z" fill="white"/>
</g>
</g>
</svg>
