<svg width="56" height="56" viewBox="0 0 56 56" fill="none" xmlns="http://www.w3.org/2000/svg">
<g id="Group">
<path id="Vector" d="M28 18.5898C30.9241 18.5898 33.3031 16.2108 33.3031 13.2867C33.3031 10.3624 30.9241 7.9834 28 7.9834C25.0759 7.9834 22.6968 10.3624 22.6968 13.2867C22.6968 16.2108 25.0759 18.5898 28 18.5898ZM28 11.2645C29.1149 11.2645 30.0219 12.1716 30.0219 13.2866C30.0219 14.4014 29.1149 15.3085 28 15.3085C26.8851 15.3085 25.9781 14.4014 25.9781 13.2866C25.9781 12.1716 26.8851 11.2645 28 11.2645Z" fill="white"/>
<path id="Vector_2" d="M18.856 24.0219L21.0737 22.7416C21.7605 23.2463 22.4959 23.6715 23.2748 24.0139V26.5731H32.725V24.0139C33.5039 23.6715 34.2393 23.2463 34.9261 22.7416L37.1437 24.0219L41.8689 15.8378L39.65 14.5567C39.6957 14.1351 39.7188 13.7106 39.7188 13.2867C39.7188 12.8626 39.6957 12.4382 39.65 12.0166L41.8689 10.7356L37.1437 2.55128L34.9261 3.83163C34.2393 3.32686 33.5039 2.90183 32.725 2.55937V0H23.2748V2.55927C22.4959 2.90172 21.7605 3.32675 21.0737 3.83152L18.856 2.55117L14.1309 10.7355L16.3498 12.0165C16.3041 12.4381 16.281 12.8625 16.281 13.2865C16.281 13.7105 16.3041 14.135 16.3498 14.5566L14.1309 15.8377L18.856 24.0219ZM19.7513 15.0687C19.6259 14.4849 19.5623 13.8853 19.5623 13.2865C19.5623 12.6877 19.6258 12.0881 19.7513 11.5043L20.0022 10.3362L18.6132 9.53422L20.0571 7.03336L21.4488 7.83683L22.3351 7.03336C23.2323 6.21983 24.2694 5.62045 25.4173 5.25175L26.5562 4.886V3.28125H29.444V4.88611L30.5829 5.25186C31.7308 5.62056 32.7679 6.21994 33.6651 7.03347L34.5514 7.83694L35.9431 7.03347L37.387 9.53433L35.998 10.3363L36.249 11.5044C36.3743 12.0882 36.438 12.6878 36.438 13.2867C36.438 13.8854 36.3744 14.485 36.249 15.0688L35.998 16.2368L37.387 17.0389L35.9431 19.5397L34.5514 18.7363L33.6651 19.5397C32.7677 20.3534 31.7307 20.9529 30.5829 21.3215L29.444 21.6872V23.292H26.5562V21.6872L25.4173 21.3215C24.2695 20.9529 23.2326 20.3534 22.3351 19.5397L21.4488 18.7363L20.0571 19.5397L18.6132 17.0389L20.0022 16.2368L19.7513 15.0687Z" fill="white"/>
<path id="Vector_3" d="M8.00562 36.7457H26.2665V40.1784H29.5462V36.7457H47.9943V40.1784H51.2739V33.4662H29.5462V29.9414H26.2665V33.4662H4.72601V40.1784H8.00562V36.7457Z" fill="white"/>
<path id="Vector_4" d="M0 56.0002H12.7317V43.2686H0V56.0002ZM3.27961 46.5481H9.45219V52.7206H3.27961V46.5481Z" fill="white"/>
<path id="Vector_5" d="M27.9064 43.2686C24.3962 43.2686 21.5404 46.1242 21.5404 49.6344C21.5404 53.1446 24.3962 56.0004 27.9064 56.0004C31.4165 56.0004 34.2723 53.1446 34.2723 49.6344C34.2722 46.1242 31.4164 43.2686 27.9064 43.2686ZM27.9064 52.7206C26.2046 52.7206 24.82 51.3361 24.82 49.6343C24.82 47.9326 26.2046 46.5481 27.9064 46.5481C29.6081 46.5481 30.9927 47.9326 30.9927 49.6343C30.9926 51.3362 29.6081 52.7206 27.9064 52.7206Z" fill="white"/>
<path id="Vector_6" d="M52.1975 43.2686H47.0708L43.2683 47.071V52.1976L47.0707 56.0002H52.1974L56 52.1977V47.0711L52.1975 43.2686ZM52.7204 50.8393L50.839 52.7206H48.4291L46.5477 50.8393V48.4293L48.4291 46.5481H50.839L52.7204 48.4293V50.8393Z" fill="white"/>
</g>
</svg>
