<svg width="27" height="26" viewBox="0 0 27 26" fill="none" xmlns="http://www.w3.org/2000/svg">
<g id="Group">
<path id="Vector" d="M3.39731 19.5706L4.46774 19.9467L4.97474 18.5038L1.40254 17.2485L0.359894 21.1001L1.83613 21.4997L2.12769 20.4227C4.61874 24.5773 9.38827 26.6486 13.9896 25.8188L13.7181 24.3137C9.56369 25.0626 5.47369 23.1101 3.39731 19.5706Z" fill="#3D3A3A"/>
<path id="Vector_2" d="M23.2694 6.429L22.1989 6.05287L21.6919 7.49577L25.2641 8.75106L26.3067 4.89954L24.8305 4.49985L24.5389 5.57686C22.0377 1.40524 17.2588 -0.645547 12.6771 0.180794L12.9485 1.68589C17.103 0.936578 21.193 2.88948 23.2694 6.429Z" fill="#3D3A3A"/>
<path id="Vector_3" d="M8.74509 9.49287L10.8152 7.42276L9.7338 6.34131L7.98039 8.09468L6.22697 6.34131L5.14557 7.42276L7.21568 9.49287V10.7055H5.68627V12.2349H7.21568V13.7644H8.74509V12.2349H10.2745V10.7055H8.74509V9.49287Z" fill="#3D3A3A"/>
<path id="Vector_4" d="M18.6863 8.41159C17.58 8.41159 16.5281 8.64804 15.5778 9.0725C15.1452 5.2634 11.9033 2.29395 7.98039 2.29395C3.7638 2.29395 0.333328 5.72442 0.333328 9.941C0.333328 14.1576 3.7638 17.5881 7.98039 17.5881C9.06214 17.5881 10.1169 17.3618 11.089 16.9286C11.5223 20.737 14.7638 23.7057 18.6863 23.7057C22.9029 23.7057 26.3333 20.2752 26.3333 16.0587C26.3333 11.8421 22.9029 8.41159 18.6863 8.41159ZM1.86274 9.941C1.86274 6.56773 4.60712 3.82336 7.98039 3.82336C11.3422 3.82336 14.098 6.55473 14.098 9.94493C12.4547 11.1813 11.3242 13.0638 11.0864 15.2116C10.148 15.7662 9.08177 16.0587 7.98039 16.0587C4.60712 16.0587 1.86274 13.3143 1.86274 9.941ZM12.5686 16.0587C12.5686 12.9443 14.9079 10.3662 17.9216 9.98872V12.3667C17.0315 12.6823 16.3922 13.5324 16.3922 14.5293C16.3922 15.7943 17.4212 16.8234 18.6863 16.8234C19.108 16.8234 19.451 17.1665 19.451 17.5881C19.451 18.0098 19.108 18.3528 18.6863 18.3528H16.3922V19.8822H17.9216V22.1287C14.9079 21.7511 12.5686 19.173 12.5686 16.0587ZM19.451 22.1286V19.7507C20.341 19.435 20.9804 18.585 20.9804 17.5881C20.9804 16.3231 19.9513 15.2939 18.6863 15.2939C18.2646 15.2939 17.9216 14.9509 17.9216 14.5292C17.9216 14.1076 18.2646 13.7645 18.6863 13.7645H20.9804V12.2351H19.451V9.98872C22.4646 10.3662 24.8039 12.9443 24.8039 16.0587C24.8039 19.173 22.4646 21.7511 19.451 22.1286Z" fill="#59A745"/>
</g>
</svg>
