<svg width="27" height="26" viewBox="0 0 27 26" fill="none" xmlns="http://www.w3.org/2000/svg">
<g id="Group">
<path id="Vector" d="M23.0257 3.80758C20.5703 1.35225 17.3057 0 13.8333 0C10.3609 0 7.09633 1.35225 4.64091 3.80758C2.18558 6.263 0.833328 9.52758 0.833328 13C0.833328 16.4724 2.18558 19.737 4.64091 22.1924C7.09633 24.6477 10.3609 26 13.8333 26C17.3057 26 20.5703 24.6477 23.0257 22.1924C25.4811 19.737 26.8333 16.4724 26.8333 13C26.8333 9.52758 25.4811 6.263 23.0257 3.80758ZM21.9485 21.1151C19.7808 23.2828 16.8988 24.4766 13.8333 24.4766C10.7678 24.4766 7.88583 23.2828 5.71818 21.1151C3.55053 18.9475 2.35677 16.0655 2.35677 13C2.35677 9.93449 3.55053 7.0525 5.71818 4.88485C7.88583 2.7172 10.7678 1.52344 13.8333 1.52344C16.8988 1.52344 19.7808 2.7172 21.9485 4.88485C24.1161 7.0525 25.3099 9.93449 25.3099 13C25.3099 16.0655 24.1161 18.9475 21.9485 21.1151Z" fill="#3D3A3A"/>
<path id="Vector_2" d="M13.8333 3.27881C8.47292 3.27881 4.11192 7.6398 4.11192 13.0002C4.11192 18.3606 8.47292 22.7216 13.8333 22.7216C19.1938 22.7216 23.5547 18.3606 23.5547 13.0002C23.5547 7.6398 19.1938 3.27881 13.8333 3.27881ZM13.8333 21.1982C9.31294 21.1982 5.63536 17.5206 5.63536 13.0002C5.63536 8.47982 9.31294 4.80225 13.8333 4.80225C18.3537 4.80225 22.0313 8.47982 22.0313 13.0002C22.0313 17.5206 18.3537 21.1982 13.8333 21.1982Z" fill="#3D3A3A"/>
<path id="Vector_3" d="M9.46411 13.0002L13.8333 20.1146L18.2025 13.0002L13.8333 5.88574L9.46411 13.0002ZM16.1804 12.6186L13.8333 13.5228L11.4863 12.6186L13.8333 8.79683L16.1804 12.6186ZM12.1856 14.5206L13.8333 15.1554L15.481 14.5206L13.8333 17.2036L12.1856 14.5206Z" fill="#59A745"/>
</g>
</svg>
