<svg width="27" height="26" viewBox="0 0 27 26" fill="none" xmlns="http://www.w3.org/2000/svg">
<g id="Group">
<path id="Vector" d="M21.7503 5.58169V9.52861H18.6908V12.4458H17.1546V3.77195H12.5716V8.71175H11.0355V1.24365H6.45247V5.58164H3.3929V17.5264H6.45247V22.9117H11.0355V15.0862H12.5716V18.2868H15.6312V22.9118H20.2142V16.303H21.7503V18.7924H26.3333V5.58169H21.7503ZM6.45247 16.003H4.91634V7.10508H6.45247V16.003ZM9.51204 21.3883H7.97591V2.76709H9.51204V21.3883ZM12.5716 13.5628H11.0355V10.2352H12.5716V13.5628ZM15.6312 16.7633H14.095V5.29534H15.6312V16.7633ZM18.6908 21.3883H17.1546V13.9692H18.6908V21.3883ZM21.7503 14.7796H20.2142V11.0521H21.7503V14.7796ZM24.8099 17.2689H23.2738V7.10513H24.8099V17.2689Z" fill="#59A745"/>
<path id="Vector_2" d="M1.85819 0H0.333328V26H26.3333V24.4754H1.85819V0Z" fill="#3D3A3A"/>
</g>
</svg>
