<svg width="21" height="26" viewBox="0 0 21 26" fill="none" xmlns="http://www.w3.org/2000/svg">
<g id="Group">
<path id="Vector" d="M19.5391 3.04688C18.279 3.04688 17.2539 2.02175 17.2539 0.761719V0H3.74609V0.761719C3.74609 2.02175 2.72097 3.04688 1.46094 3.04688H0.699219V15.1621C0.699219 17.294 1.71337 19.336 3.412 20.6242L10.5 26L17.588 20.6243C19.2866 19.336 20.3008 17.2941 20.3008 15.1621V3.04688H19.5391ZM18.7773 15.1621C18.7773 16.8202 17.9886 18.4085 16.6674 19.4105L10.5 24.088L4.33262 19.4105C3.01139 18.4085 2.22266 16.8202 2.22266 15.1621V4.49378C3.71268 4.19011 4.88933 3.01346 5.193 1.52344H15.807C16.1107 3.01346 17.2873 4.19011 18.7773 4.49378V15.1621Z" fill="#3D3A3A"/>
<path id="Vector_2" d="M12.7852 3.80859H8.21484V6.85547H5.16797V17.5332H15.832V6.85547H12.7852V3.80859ZM8.21484 16.0098H6.69141V8.37891H8.21484V16.0098ZM11.2617 16.0098H9.73828V5.33203H11.2617V16.0098ZM14.3086 8.37891V16.0098H12.7852V8.37891H14.3086Z" fill="#59A745"/>
</g>
</svg>
