<svg width="27" height="24" viewBox="0 0 27 24" fill="none" xmlns="http://www.w3.org/2000/svg">
<g id="Group">
<path id="Vector" d="M26.8333 0.0610352H0.833328V1.55338H2.40755V4.53808H3.93098V17.9692H13.0716V19.5899C12.185 19.8979 11.5482 20.7273 11.5482 21.7001C11.5482 22.9344 12.5733 23.9386 13.8333 23.9386C15.0934 23.9386 16.1185 22.9344 16.1185 21.7001C16.1185 20.7273 15.4816 19.8979 14.595 19.5899V17.9692H23.7357V4.53808H25.2591V1.55338H26.8333V0.0610352ZM13.8333 22.4462C13.4133 22.4462 13.0716 22.1115 13.0716 21.7001C13.0716 21.2886 13.4133 20.9539 13.8333 20.9539C14.2533 20.9539 14.595 21.2886 14.595 21.7001C14.595 22.1115 14.2533 22.4462 13.8333 22.4462ZM22.2122 16.4769H5.45442V4.53808H22.2122V16.4769ZM23.7357 3.04573H3.93098V1.55338H23.7357V3.04573Z" fill="#3D3A3A"/>
<path id="Vector_2" d="M6.97786 14.9844H20.6888V13.492H19.1654V6.03027H17.6419V13.492H16.1185V7.52262H14.595V13.492H13.0716V10.5073H11.5482V13.492H10.0247V11.9997H8.5013V13.492H6.97786V14.9844Z" fill="#59A745"/>
</g>
</svg>
