<svg width="27" height="26" viewBox="0 0 27 26" fill="none" xmlns="http://www.w3.org/2000/svg">
<g id="Icon - Data Offering" clip-path="url(#clip0_85_6283)">
<path id="Vector" d="M10.6973 16.8574L13.5 15.384L16.3027 16.8574L15.7673 13.7367L18.0346 11.5266L14.9012 11.0713L13.5 8.23193L12.0988 11.0713L8.96539 11.5266L11.2327 13.7367L10.6973 16.8574ZM13.1104 12.4636L13.5 11.6743L13.8896 12.4636L14.7608 12.5904L14.1304 13.2047L14.2792 14.0726L13.5 13.6629L12.7208 14.0726L12.8696 13.2047L12.2392 12.5904L13.1104 12.4636Z" fill="#59A745"/>
<path id="Vector_2" d="M23.4023 1.52344V0H21.8789V1.52344H18.832V0H17.3086V1.52344H14.2617V0H12.7383V1.52344H9.69141V0H8.16797V1.52344H5.12109V0H3.59766V1.52344H0.5V26H26.5C26.5 25.8147 26.5 2.33554 26.5 1.52344H23.4023ZM2.02344 3.04688H3.59766V4.57031H5.12109V3.04688H8.16797V4.57031H9.69141V3.04688H12.7383V4.57031H14.2617V3.04688H17.3086V4.57031H18.832V3.04688H21.8789V4.57031H23.4023V3.04688H24.9766V6.14453H2.02344V3.04688ZM24.9766 24.4766H2.02344V7.66797H24.9766V24.4766Z" fill="#3D3A3A"/>
<path id="Vector_3" d="M8.16797 10.7148H3.59766V15.2852H8.16797V10.7148ZM6.64453 13.7617H5.12109V12.2383H6.64453V13.7617Z" fill="#3D3A3A"/>
<path id="Vector_4" d="M8.16797 22.9023V18.332H3.59766V22.9023H8.16797ZM5.12109 19.8555H6.64453V21.3789H5.12109V19.8555Z" fill="#3D3A3A"/>
<path id="Vector_5" d="M11.2148 22.9023H15.7852V18.332H11.2148V22.9023ZM12.7383 19.8555H14.2617V21.3789H12.7383V19.8555Z" fill="#3D3A3A"/>
<path id="Vector_6" d="M23.4023 18.332H18.832V22.9023H23.4023V18.332ZM21.8789 21.3789H20.3555V19.8555H21.8789V21.3789Z" fill="#3D3A3A"/>
<path id="Vector_7" d="M23.4023 10.7148H18.832V15.2852H23.4023V10.7148ZM21.8789 13.7617H20.3555V12.2383H21.8789V13.7617Z" fill="#3D3A3A"/>
</g>
<defs>
<clipPath id="clip0_85_6283">
<rect width="26" height="26" fill="white" transform="translate(0.5)"/>
</clipPath>
</defs>
</svg>
