<svg width="27" height="26" viewBox="0 0 27 26" fill="none" xmlns="http://www.w3.org/2000/svg">
<g id="Icon - Data Offering" clip-path="url(#clip0_85_10027)">
<path id="Vector" d="M24.26 21.2212L23.1829 22.2983L23.7867 22.9023H3.7644V19.4093L7.573 15.6008L10.6199 18.6476L15.1902 14.0773L18.2283 17.1153L21.3855 14.0601L25.6073 18.1176L26.6667 17.023L22.4809 13L26.6667 8.97697L25.6073 7.8824L21.3855 11.9399L18.2283 8.88474L15.1902 11.9227L9.09644 5.82893L3.7644 11.161V2.54977L4.43111 3.08298L5.38286 1.89339L2.99297 0L0.666748 1.90311L1.66214 3.07346L2.24097 2.59103V24.4258H23.6933L23.2017 24.8862L24.2412 26L26.6667 23.6829L24.26 21.2212ZM18.2458 11.0215L20.2901 13L18.2458 14.9785L16.2675 13L18.2458 11.0215ZM9.09644 7.98357L14.1129 13L10.6199 16.493L7.573 13.4461L3.7644 17.2547V13.3156L9.09644 7.98357Z" fill="#3D3A3A"/>
<path id="Vector_2" fill-rule="evenodd" clip-rule="evenodd" d="M3.7644 11.161L9.09644 5.82893L15.1902 11.9227L18.2283 8.88474L21.3855 11.9399L25.6073 7.8824L26.6667 8.97697L22.4809 13L26.6667 17.023L25.6073 18.1176L21.3855 14.0601L18.2283 17.1153L15.1902 14.0773L10.6199 18.6476L7.573 15.6008L3.7644 19.4093V17.2547L7.573 13.4461L10.6199 16.493L14.1129 13L9.09644 7.98357L3.7644 13.3156V11.161ZM20.2901 13L18.2458 11.0215L16.2675 13L18.2458 14.9785L20.2901 13Z" fill="#59A745"/>
</g>
<defs>
<clipPath id="clip0_85_10027">
<rect width="26" height="26" fill="white" transform="translate(0.666748)"/>
</clipPath>
</defs>
</svg>
