<svg width="26" height="24" viewBox="0 0 26 24" fill="none" xmlns="http://www.w3.org/2000/svg">
<g id="Group">
<path id="Vector" d="M0 0.574219V23.4258H26V0.574219H0ZM24.4766 3.62109H9.19141V2.09766H24.4766V3.62109ZM7.66797 2.09766V3.62109H1.52344V2.09766H7.66797ZM1.52344 21.9023V5.14453H24.4766V21.9023H1.52344Z" fill="#3D3A3A"/>
<path id="Vector_2" d="M3.09766 11.7528C3.09766 14.9627 5.14363 17.8013 8.18883 18.8164L8.42969 18.8967L8.67054 18.8164C11.7157 17.8013 13.7617 14.9627 13.7617 11.7528V8.19141H3.09766V11.7528ZM4.62109 9.71484H12.2383V11.7528C12.2383 14.2204 10.7182 16.4121 8.42969 17.2851C6.14113 16.4121 4.62109 14.2204 4.62109 11.7528V9.71484Z" fill="#59A745"/>
<path id="Vector_3" d="M7.98764 15.3339L8.42969 15.6489L8.87174 15.3339C9.94754 14.5673 10.6157 13.3709 10.7049 12.0514L10.7599 11.2383H6.09949L6.15448 12.0514C6.24366 13.3709 6.91183 14.5673 7.98764 15.3339ZM9.01037 12.7617C8.88042 13.1105 8.68364 13.4306 8.42969 13.7047C8.17573 13.4306 7.97895 13.1105 7.849 12.7617H9.01037Z" fill="#59A745"/>
<path id="Vector_4" d="M21.3789 8.19141H22.9023V9.71484H21.3789V8.19141Z" fill="#3D3A3A"/>
<path id="Vector_5" d="M15.2852 17.332H16.8086V18.8555H15.2852V17.332Z" fill="#3D3A3A"/>
<path id="Vector_6" d="M15.2852 8.19141H19.8555V9.71484H15.2852V8.19141Z" fill="#3D3A3A"/>
<path id="Vector_7" d="M15.2852 11.2383H22.9023V12.7617H15.2852V11.2383Z" fill="#3D3A3A"/>
<path id="Vector_8" d="M15.2852 14.2852H22.9023V15.8086H15.2852V14.2852Z" fill="#3D3A3A"/>
<path id="Vector_9" d="M18.332 17.332H22.9023V18.8555H18.332V17.332Z" fill="#3D3A3A"/>
</g>
</svg>
