<svg width="27" height="26" viewBox="0 0 27 26" fill="none" xmlns="http://www.w3.org/2000/svg">
<g id="Group">
<path id="Vector" fill-rule="evenodd" clip-rule="evenodd" d="M16.1274 21.3571V19.0357L14.598 17.7711V22.8866L16.1274 21.3571ZM15.9964 24.4706C15.6808 25.3608 14.8303 26 13.8333 26H3.12745C1.86247 26 0.833328 24.9709 0.833328 23.7059V2.29412C0.833328 1.02914 1.86247 0 3.12745 0H13.8333C15.0984 0 16.1274 1.02914 16.1274 2.29412V12.6833L14.598 14.2127V2.29412C14.598 1.87246 14.255 1.52941 13.8333 1.52941H12.7766L11.2471 4.58824H5.71368L4.18427 1.52941H3.12745C2.70579 1.52941 2.36274 1.87246 2.36274 2.29412V23.3891V24.4706H3.44419H13.8333H15.9964ZM5.8942 1.52941H11.0666L10.3019 3.05882H6.65891L5.8942 1.52941Z" fill="#3D3A3A"/>
<path id="Vector_2" fill-rule="evenodd" clip-rule="evenodd" d="M26.8333 6.11765V10.7059H25.3039V8.72866L18.4215 15.6108L16.8922 14.0815L16.1274 14.8462L14.598 16.3756L13.8333 17.1403L12.3039 15.6109L3.44419 24.4706H2.36274V23.3891L12.3039 13.448L13.8333 14.9774L14.598 14.2127L16.1274 12.6833L16.8922 11.9186L18.4216 13.448L24.2225 7.64706H22.2451V6.11765H26.8333Z" fill="#59A745"/>
<path id="Vector 3043" d="M12.9048 15.7856H19.4048L12.9048 25.0714H19.4048L12.9048 15.7856Z" stroke="#3D3A3A" stroke-width="2" stroke-linejoin="round"/>
<path id="Vector_3" d="M3.89215 6.11768H10.7745V7.64709H3.89215V6.11768Z" fill="#59A745"/>
<path id="Vector_4" d="M3.89215 9.17627H7.71568V10.7057H3.89215V9.17627Z" fill="#59A745"/>
<path id="Vector_5" d="M3.89215 12.2354H6.95097V13.7648H3.89215V12.2354Z" fill="#59A745"/>
<path id="Vector_6" d="M3.89215 15.2939H6.18627V16.8234H3.89215V15.2939Z" fill="#59A745"/>
</g>
</svg>
