<svg width="20" height="26" viewBox="0 0 20 26" fill="none" xmlns="http://www.w3.org/2000/svg">
<g id="Group">
<path id="Vector" d="M0.550537 0V26H19.1161V0H0.550537ZM6.90721 1.52344H12.7595V3.04709H6.90721V1.52344ZM17.5927 24.4766H2.07398V1.52344H5.38376V4.57053H14.2829V1.52344H17.5927V24.4766Z" fill="#3D3A3A"/>
<path id="Vector_2" d="M5.57521 16.4383H7.09864V15.1437H8.62218V7.89423H7.09864V6.59961H5.57521V7.89423H4.05167V15.1437H5.57521V16.4383ZM5.57515 9.41766H7.09879V13.6202H5.57515V9.41766Z" fill="#59A745"/>
<path id="Vector_3" d="M13.7006 7.61523H12.1772V8.90985H10.6537V15.1436H12.1772V16.4382H13.7006V15.1436H15.2242V8.90985H13.7006V7.61523ZM13.7007 13.6201H12.1771V10.4333H13.7007V13.6201Z" fill="#59A745"/>
<path id="Vector_4" d="M4.81343 18.3823H14.4625V19.9058H4.81343V18.3823Z" fill="#3D3A3A"/>
<path id="Vector_5" d="M4.81343 21.4297H14.4625V22.9531H4.81343V21.4297Z" fill="#3D3A3A"/>
</g>
</svg>
