<svg width="27" height="24" viewBox="0 0 27 24" fill="none" xmlns="http://www.w3.org/2000/svg">
<g id="Group">
<path id="Vector" d="M20.4714 9.69793H22.2275C22.5419 10.5845 23.3886 11.2214 24.3816 11.2214C25.6416 11.2214 26.6667 10.1963 26.6667 8.93622C26.6667 7.67618 25.6416 6.65106 24.3816 6.65106C23.3886 6.65106 22.5419 7.28791 22.2275 8.1745H20.4714V3.57031H22.2275C22.5419 4.4569 23.3886 5.09375 24.3816 5.09375C25.6416 5.09375 26.6667 4.06863 26.6667 2.80859C26.6667 1.54856 25.6416 0.523438 24.3816 0.523438C23.3886 0.523438 22.5419 1.16029 22.2275 2.04688H18.948V21.9531H22.2275C22.5419 22.8397 23.3886 23.4766 24.3816 23.4766C25.6416 23.4766 26.6667 22.4514 26.6667 21.1914C26.6667 19.9314 25.6416 18.9062 24.3816 18.9062C23.3886 18.9062 22.5419 19.5431 22.2275 20.4297H20.4714V15.8255H22.2275C22.5419 16.7121 23.3886 17.3489 24.3816 17.3489C25.6416 17.3489 26.6667 16.3238 26.6667 15.0638C26.6667 13.8038 25.6416 12.7786 24.3816 12.7786C23.3886 12.7786 22.5419 13.4155 22.2275 14.3021H20.4714V9.69793ZM24.3816 8.1745C24.8016 8.1745 25.1433 8.5162 25.1433 8.93622C25.1433 9.35623 24.8016 9.69793 24.3816 9.69793C23.9616 9.69793 23.6199 9.35623 23.6199 8.93622C23.6199 8.5162 23.9616 8.1745 24.3816 8.1745ZM24.3816 2.04688C24.8016 2.04688 25.1433 2.38858 25.1433 2.80859C25.1433 3.22861 24.8016 3.57031 24.3816 3.57031C23.9616 3.57031 23.6199 3.22861 23.6199 2.80859C23.6199 2.38858 23.9616 2.04688 24.3816 2.04688ZM24.3816 20.4297C24.8016 20.4297 25.1433 20.7714 25.1433 21.1914C25.1433 21.6114 24.8016 21.9531 24.3816 21.9531C23.9616 21.9531 23.6199 21.6114 23.6199 21.1914C23.6199 20.7714 23.9616 20.4297 24.3816 20.4297ZM24.3816 14.3021C24.8016 14.3021 25.1433 14.6438 25.1433 15.0638C25.1433 15.4838 24.8016 15.8255 24.3816 15.8255C23.9616 15.8255 23.6199 15.4838 23.6199 15.0638C23.6199 14.6438 23.9616 14.3021 24.3816 14.3021Z" fill="#59A745"/>
<path id="Vector_2" d="M16.3078 10.0191C16.309 10.0179 9.45358 3.16239 9.45358 3.16239C8.76265 2.474 7.8105 2.04688 6.7605 2.04688H2.19019V12.8125H0.666748V18.9062H2.19019V21.9531H17.4246V12.7109C17.4246 11.6609 16.9974 10.7087 16.3078 10.0191ZM10.5691 6.43234L13.0391 8.90234H10.5691V6.43234ZM2.19019 14.3359H12.8542V17.3828H2.19019V14.3359ZM15.9011 20.4297H3.71362V18.9062H14.3777V12.8125H3.71362V3.57031H6.7605C8.02053 3.57031 9.04565 4.59543 9.04565 5.85547V10.4258H13.616C14.876 10.4258 15.9011 11.4509 15.9011 12.7109V20.4297Z" fill="#3D3A3A"/>
</g>
</svg>
