<svg width="27" height="26" viewBox="0 0 27 26" fill="none" xmlns="http://www.w3.org/2000/svg">
<g id="Group">
<path id="Vector" d="M10.0203 26H26.8289V15.2852H10.0203V26ZM11.5438 16.8086H25.3055V24.4766H11.5438V16.8086Z" fill="#59A745"/>
<path id="Vector_2" d="M18.3992 18.332C17.1392 18.332 16.1141 19.3572 16.1141 20.6172C16.1141 21.8772 17.1392 22.9023 18.3992 22.9023C19.6593 22.9023 20.6844 21.8772 20.6844 20.6172C20.6844 19.3572 19.6593 18.332 18.3992 18.332ZM18.3992 21.3789C17.9792 21.3789 17.6375 21.0372 17.6375 20.6172C17.6375 20.1972 17.9792 19.8555 18.3992 19.8555C18.8192 19.8555 19.1609 20.1972 19.1609 20.6172C19.1609 21.0372 18.8193 21.3789 18.3992 21.3789Z" fill="#59A745"/>
<path id="Vector_3" d="M7.73517 4.62109C6.47513 4.62109 5.45001 5.64621 5.45001 6.90625C5.45001 8.16629 6.47513 9.19141 7.73517 9.19141C8.9952 9.19141 10.0203 8.16629 10.0203 6.90625C10.0203 5.64621 8.99525 4.62109 7.73517 4.62109ZM7.73517 7.66797C7.31516 7.66797 6.97345 7.32626 6.97345 6.90625C6.97345 6.48624 7.31516 6.14453 7.73517 6.14453C8.15518 6.14453 8.49689 6.48624 8.49689 6.90625C8.49689 7.32626 8.15523 7.66797 7.73517 7.66797Z" fill="#3D3A3A"/>
<path id="Vector_4" d="M13.0672 19.8555H14.5906V21.3789H13.0672V19.8555Z" fill="#59A745"/>
<path id="Vector_5" d="M22.2078 19.8555H23.7313V21.3789H22.2078V19.8555Z" fill="#59A745"/>
<path id="Vector_6" d="M12.524 1.63262L11.3151 2.00672C10.9595 1.7453 10.5805 1.52516 10.182 1.34855L9.85975 0H5.61058L5.28832 1.3485C4.88969 1.52511 4.51076 1.74525 4.15524 2.00667L2.94629 1.63262L0.837753 5.28475L1.68956 6.20262C1.65691 6.45257 1.64142 6.68195 1.64142 6.90625C1.64142 7.13055 1.65696 7.35993 1.68956 7.60988L0.837753 8.52775L2.94629 12.1799L4.15524 11.8058C4.51218 12.0682 4.89274 12.2891 5.29305 12.466L5.61703 13.7617H9.8533L10.1773 12.4661C10.5776 12.2891 10.9582 12.0683 11.3151 11.8058L12.524 12.1799L14.6326 8.5278L13.7808 7.60993C13.8134 7.35998 13.8289 7.1306 13.8289 6.9063C13.8289 6.682 13.8134 6.45262 13.7808 6.20268L14.6326 5.2848L12.524 1.63262ZM12.3055 6.90625C12.3055 7.38822 12.1964 7.82818 12.1535 8.096L12.751 8.73986L11.8127 10.3651L10.9847 10.1089C10.7779 10.2626 10.2523 10.8346 9.27379 11.1881L8.89201 11.3259L8.66391 12.2383H6.80643L6.57832 11.3259L6.19655 11.1881C5.21901 10.8349 4.69271 10.2627 4.48573 10.1088L3.65764 10.3651L2.71935 8.73981L3.31684 8.09595C3.27256 7.81919 3.16491 7.38608 3.16491 6.9062C3.16491 6.42423 3.27398 5.98427 3.31684 5.71645L2.71935 5.07269L3.65769 3.44749L4.48578 3.70373C4.69281 3.54986 5.21804 2.97796 6.1966 2.62448L6.58314 2.48483L6.81288 1.52344H8.65746L8.88719 2.48483L9.27374 2.62448C10.2513 2.97761 10.7782 3.55027 10.9846 3.70368L11.8126 3.44749L12.751 5.07269L12.1535 5.71655C12.1978 5.99325 12.3055 6.42637 12.3055 6.90625Z" fill="#3D3A3A"/>
<path id="Vector_7" d="M18.1761 10.1763L17.0989 11.2534L19.9227 14.0772L22.7465 11.2534L21.6692 10.1763L20.6844 11.1611V6.14453H16.1141V7.66797H19.1609V11.1611L18.1761 10.1763Z" fill="#3D3A3A"/>
<path id="Vector_8" d="M8.49688 22.9024V21.379H5.45001V17.8859L6.43486 18.8707L7.51208 17.7935L4.68829 14.9697L1.86455 17.7935L2.94177 18.8707L3.92657 17.8859V22.9024H8.49688Z" fill="#3D3A3A"/>
</g>
</svg>
