<svg width="27" height="26" viewBox="0 0 27 26" fill="none" xmlns="http://www.w3.org/2000/svg">
<g id="Group">
<path id="Vector" d="M4.755 3.05859H6.28442V10.7057H4.755V3.05859Z" fill="#59A745"/>
<path id="Vector_2" d="M7.81384 10.7057H9.34325V7.64683H12.4021V3.05859H7.81384V10.7057ZM9.34325 4.58801H10.8727V6.11742H9.34325V4.58801Z" fill="#59A745"/>
<path id="Vector_3" d="M13.9314 10.7057H18.5196V3.05859H13.9314V10.7057ZM15.4608 4.58801H16.9902V9.17624H15.4608V4.58801Z" fill="#59A745"/>
<path id="Vector_4" d="M3.22557 13.7647H21.5785V0H1.69616V21.4118H0.166748V26H4.75498V21.4118H3.22557V13.7647ZM3.22557 1.52941H20.0491V12.2353H3.22557V1.52941ZM3.22557 24.4706H1.69616V22.9412H3.22557V24.4706Z" fill="#3D3A3A"/>
<path id="Vector_5" d="M10.8727 24.4704V15.2939H9.34326V25.9998H26.1668V24.4704H10.8727Z" fill="#3D3A3A"/>
<path id="Vector_6" d="M17.8111 19.3529L16.2817 17.0588L12.5696 21.699L13.7638 22.6544L16.1694 19.6475L17.6988 21.9416L20.7576 18.1181L22.3432 20.4965L26.0382 14.9538L24.7658 14.1055L22.3432 17.7392L20.87 15.5294L17.8111 19.3529Z" fill="#3D3A3A"/>
</g>
</svg>
