<svg width="27" height="26" viewBox="0 0 27 26" fill="none" xmlns="http://www.w3.org/2000/svg">
<g id="Group">
<path id="Vector" d="M22.1145 12.836V0H0.666748V22.1914C0.666748 24.2915 2.37528 26 4.47534 26H23.6199C25.2999 26 26.6667 24.6332 26.6667 22.9531V12.836H22.1145ZM2.19019 22.1914V1.52344H20.5911V22.9713C20.5911 23.519 20.738 24.0327 20.9933 24.4766H4.47534C3.21531 24.4766 2.19019 23.4514 2.19019 22.1914ZM25.1433 22.9531C25.1433 23.7931 24.4599 24.4766 23.6199 24.4766C22.7898 24.4766 22.1145 23.8013 22.1145 22.9713V14.3594H25.1433V22.9531Z" fill="#3D3A3A"/>
<path id="Vector_2" d="M3.71362 9.13721H19.0676V3.04346H3.71362V9.13721ZM5.23706 4.56689H17.5442V7.61377H5.23706V4.56689Z" fill="#3D3A3A"/>
<path id="Vector_3" d="M10.6289 18.2778H19.0676V10.6606H10.6289V18.2778ZM12.1523 12.1841H17.5442V16.7544H12.1523V12.1841Z" fill="#59A745"/>
<path id="Vector_4" d="M3.71362 10.6606H9.10553V12.1841H3.71362V10.6606Z" fill="#59A745"/>
<path id="Vector_5" d="M3.71362 16.7544H9.10553V18.2778H3.71362V16.7544Z" fill="#3D3A3A"/>
<path id="Vector_6" d="M3.71362 19.8013H19.0676V21.3247H3.71362V19.8013Z" fill="#3D3A3A"/>
<path id="Vector_7" d="M3.71362 13.7075H9.10553V15.231H3.71362V13.7075Z" fill="#59A745"/>
</g>
</svg>
