<svg width="27" height="26" viewBox="0 0 27 26" fill="none" xmlns="http://www.w3.org/2000/svg">
<g id="Group">
<path id="Vector" d="M26.5 0H0.5V4.605H1.79289V20.1493H12.7383V21.8668C11.9351 22.1743 11.363 22.9529 11.363 23.863C11.363 25.0414 12.3216 26 13.5 26C14.6783 26 15.637 25.0414 15.637 23.863C15.637 22.9529 15.0649 22.1744 14.2617 21.8668V20.1493H25.2071V4.605H26.5V0ZM13.5 24.4766C13.1617 24.4766 12.8864 24.2013 12.8864 23.863C12.8864 23.5247 13.1616 23.2494 13.5 23.2494C13.8384 23.2494 14.1135 23.5247 14.1135 23.863C14.1135 24.2013 13.8383 24.4766 13.5 24.4766ZM2.02344 1.52344H24.9766V3.08156H2.02344V1.52344ZM23.6837 18.6259H3.31633V4.605H23.6837V18.6259Z" fill="#3D3A3A"/>
<path id="Vector_2" d="M10.2063 15.0673L13.5 17.4617L16.7937 15.0673H16.7938C17.8058 14.3317 18.4099 13.1455 18.4099 11.8945V7.80788H17.6482C17.1761 7.80788 16.792 7.42382 16.792 6.95166V6.18994H10.208V6.95166C10.208 7.42382 9.82392 7.80788 9.35181 7.80788H8.59009V11.8945C8.59009 13.1455 9.19428 14.3317 10.2063 15.0673ZM16.8865 9.2063V11.8945C16.8865 12.6597 16.517 13.3851 15.898 13.8351H15.8981L14.2617 15.0246V7.71333H15.3936C15.6309 8.41375 16.1861 8.969 16.8865 9.2063ZM10.1135 9.2063C10.814 8.969 11.3692 8.4138 11.6064 7.71338H12.7383V15.0246L11.102 13.8351C10.4831 13.3851 10.1135 12.6597 10.1135 11.8945V9.2063Z" fill="#59A745"/>
<path id="Vector_3" d="M4.90009 12.3853H6.44617V13.9087H4.90009V12.3853Z" fill="#3D3A3A"/>
<path id="Vector_4" d="M4.90009 15.4321H8.72711V16.9556H4.90009V15.4321Z" fill="#3D3A3A"/>
<path id="Vector_5" d="M20.4643 12.3853H22.0104V13.9087H20.4643V12.3853Z" fill="#3D3A3A"/>
<path id="Vector_6" d="M18.1833 15.4321H22.0104V16.9556H18.1833V15.4321Z" fill="#3D3A3A"/>
</g>
</svg>
