<svg width="27" height="26" viewBox="0 0 27 26" fill="none" xmlns="http://www.w3.org/2000/svg">
<g clip-path="url(#clip0_85_6293)">
<path fill-rule="evenodd" clip-rule="evenodd" d="M11.8732 6.6068C11.524 7.28463 10.8697 8.125 9.70834 8.125C9.30126 8.125 8.90782 8.04806 8.55165 7.85989C8.19062 7.66916 7.93479 7.39946 7.7544 7.11711C7.47548 6.68053 7.34463 6.13387 7.26435 5.79847C7.25395 5.75501 7.24439 5.71509 7.23547 5.67941C7.13023 5.25845 7.05766 5.09294 6.98312 5.00638C6.98262 5.00579 6.98201 5.00504 6.98128 5.00413C6.96406 4.98289 6.87999 4.87911 6.48214 4.87512C6.45322 4.88943 6.29361 4.97896 6.02039 5.44224C5.68646 6.00847 5.38087 6.79424 5.03196 7.70139C5.02512 7.71919 5.01826 7.73703 5.01137 7.75493C4.68826 8.59521 4.32302 9.54503 3.88758 10.2834C3.48501 10.966 2.76563 11.9167 1.58334 11.9167V9.75C1.56428 9.75 1.55486 9.75261 1.55475 9.75228C1.55431 9.75087 1.71763 9.69765 2.02128 9.18276C2.35521 8.61653 2.66081 7.83076 3.00971 6.92361C3.01656 6.90581 3.02342 6.88797 3.0303 6.87007C3.35341 6.02979 3.71865 5.07997 4.1541 4.34161C4.55666 3.659 5.27604 2.70833 6.45834 2.70833C7.37677 2.70833 8.11295 2.99799 8.62496 3.59258C9.07516 4.1154 9.23956 4.76238 9.33745 5.15392C9.34161 5.17058 9.34569 5.18689 9.34968 5.20285C9.46463 5.66284 9.50763 5.83492 9.57817 5.94733C9.59954 5.95209 9.63946 5.9581 9.70447 5.95833C9.7069 5.95655 9.70994 5.95422 9.71358 5.9512C9.75577 5.91627 9.83966 5.82312 9.9471 5.61456C10.1717 5.17867 10.3462 4.5576 10.559 3.77746C10.5647 3.75654 10.5705 3.73548 10.5762 3.71429C10.7663 3.01696 10.9945 2.17942 11.3351 1.5182C11.6843 0.840369 12.3386 0 13.5 0C14.1776 0 14.687 0.352135 15.0282 0.736226C15.3573 1.10666 15.597 1.57521 15.7817 2.02976C16.1522 2.94185 16.4233 4.11564 16.6573 5.18516C16.6926 5.34662 16.7271 5.50579 16.761 5.6622C16.9623 6.59106 17.1426 7.42291 17.3493 8.06293C17.4037 8.23136 17.4546 8.36898 17.5009 8.47946C17.6282 8.3284 17.7413 8.1532 17.8973 7.9117C17.9704 7.79851 18.0529 7.67074 18.1507 7.52407C18.736 6.64614 19.6957 5.41667 21.625 5.41667C22.9535 5.41667 23.6704 6.40059 24.0549 7.22869C24.4018 7.97601 24.6368 8.92479 24.8436 9.76004C24.8661 9.85115 24.8884 9.94092 24.9104 10.0289C25.1535 11.0013 25.378 11.8057 25.6935 12.3695C25.9843 12.8893 26.2269 13 26.5 13V15.1667C25.1481 15.1667 24.3073 14.3294 23.8026 13.4274C23.3225 12.5693 23.0393 11.4779 22.8084 10.5544C22.7887 10.4755 22.7693 10.3977 22.7502 10.321C22.5271 9.42553 22.3433 8.68737 22.0897 8.1411C21.8261 7.57337 21.6652 7.58139 21.6292 7.58318C21.6275 7.58326 21.6261 7.58333 21.625 7.58333C20.8459 7.58333 20.4515 7.97886 19.9535 8.72593C19.9064 8.7965 19.8545 8.87714 19.7985 8.96404C19.5984 9.27465 19.3468 9.66527 19.0831 9.96192C18.7017 10.391 18.1262 10.8333 17.2917 10.8333C16.5464 10.8333 16.0847 10.3273 15.8528 9.98315C15.6069 9.61842 15.428 9.16405 15.2874 8.72873C15.0446 7.97679 14.8375 7.01927 14.6392 6.10205C14.6061 5.94926 14.5733 5.79759 14.5407 5.64817C14.3007 4.55103 14.0639 3.55815 13.7743 2.84524C13.6481 2.53448 13.5346 2.33633 13.4467 2.22175C13.4007 2.27416 13.3368 2.36376 13.2612 2.51044C13.0367 2.94633 12.8621 3.5674 12.6493 4.34754C12.6436 4.36846 12.6379 4.38952 12.6321 4.4107C12.4421 5.10803 12.2138 5.94558 11.8732 6.6068ZM17.6786 8.81114C17.6786 8.81134 17.6765 8.80919 17.6724 8.80405C17.6765 8.80836 17.6786 8.81093 17.6786 8.81114ZM9.55822 5.94157C9.55823 5.94154 9.55893 5.94179 9.56024 5.9424Z" fill="#59A745"/>
<path fill-rule="evenodd" clip-rule="evenodd" d="M0.5 0H2.66667V23.8333H26.5V26H0.5V0Z" fill="#3D3A3A"/>
<path d="M15.1262 16.0645C14.7946 15.7594 13.8142 15.2312 12.7763 14.6719C12.0747 14.2939 11.3492 13.903 10.9185 13.6273C10.5857 13.4143 10.3871 13.0512 10.3871 12.6559C10.3871 12.0198 10.9045 11.5023 11.5406 11.5023H12.0558C12.8138 11.5023 13.4305 12.119 13.4305 12.8769V13.2113H15.9733L15.9693 12.3001C15.9658 11.4914 15.3051 10.8335 14.4964 10.8335H11.5406C10.5358 10.8335 9.71828 11.651 9.71828 12.6559C9.71828 13.2803 10.0322 13.8541 10.558 14.1906C10.9078 14.4145 11.4283 14.7029 11.9761 14.9999L11.6971 15.0902C11.6185 15.1135 10.9456 15.323 10.2711 15.8555C9.326 16.6016 8.82648 17.6256 8.82648 18.8169V19.278C8.8265 20.9152 10.1585 22.2472 11.7957 22.2472H13.3563C14.9935 22.2472 16.3254 20.9152 16.3254 19.278V18.8169C16.3255 17.7383 15.9108 16.7866 15.1262 16.0645ZM14.4964 11.5023C14.9379 11.5023 15.2987 11.8615 15.3006 12.303L15.3016 12.5426H14.072C14.0064 12.1458 13.8261 11.7873 13.5665 11.5023H14.4964ZM9.49527 19.278V18.8169C9.49527 17.7961 9.92322 16.9342 10.7692 16.3164C10.6348 16.625 10.5657 16.9636 10.5657 17.3253V20.2369C10.5657 20.6776 10.7084 21.0856 10.9498 21.4173C10.0987 21.0796 9.49527 20.2479 9.49527 19.278ZM13.9175 20.2369C13.9175 20.9766 13.3157 21.5784 12.576 21.5784C11.8363 21.5784 11.2345 20.9766 11.2345 20.2369V17.3253C11.2345 16.112 12.2556 15.632 12.576 15.5113C12.8964 15.632 13.9175 16.112 13.9175 17.3253V20.2369ZM15.6567 19.278C15.6567 20.248 15.0533 21.0796 14.2022 21.4173C14.4436 21.0856 14.5863 20.6776 14.5863 20.2369V17.3253C14.5863 16.979 14.5231 16.6538 14.3997 16.3559C14.5206 16.4347 14.6149 16.5029 14.6733 16.5567C15.3259 17.1571 15.6567 17.9176 15.6567 18.8169V19.278Z" fill="#3D3A3A" stroke="#3D3A3A" stroke-width="0.5"/>
</g>
<defs>
<clipPath id="clip0_85_6293">
<rect width="26" height="26" fill="white" transform="translate(0.5)"/>
</clipPath>
</defs>
</svg>
